<?xml version="1.0" encoding="utf-8"?>
<!-- Generator: Adobe Illustrator 15.1.0, SVG Export Plug-In . SVG Version: 6.00 Build 0)  -->
<!DOCTYPE svg PUBLIC "-//W3C//DTD SVG 1.1//EN" "http://www.w3.org/Graphics/SVG/1.1/DTD/svg11.dtd">
<svg version="1.1" id="Layer_1" xmlns="http://www.w3.org/2000/svg" xmlns:xlink="http://www.w3.org/1999/xlink" x="0px" y="0px"
	 width="44.041px" height="24.299px" viewBox="0 0 44.041 24.299" enable-background="new 0 0 44.041 24.299" xml:space="preserve">
<g>
	<path fill="#FFFFFF" d="M0,24.299V0h5.82v1.83H2.191v20.639H5.82v1.83H0z"/>
	<path fill="#FFFFFF" d="M11.971,22.352V5.553H8.16V4.082c2.311-0.15,3.99-0.779,4.35-2.73h1.77v21H11.971z"/>
	<path fill="#FFFFFF" d="M26.701,22.682c-4.68,0-7.861-3.871-7.861-10.83s3.182-10.83,7.861-10.83s7.859,3.871,7.859,10.83
		S31.381,22.682,26.701,22.682z M26.701,3.121c-3.631,0-5.551,3.301-5.551,8.73s1.92,8.73,5.551,8.73
		c3.629,0,5.549-3.301,5.549-8.73S30.33,3.121,26.701,3.121z"/>
	<path fill="#FFFFFF" d="M38.221,24.299v-1.83h3.629V1.83h-3.629V0h5.82v24.299H38.221z"/>
</g>
</svg>
