<?xml version="1.0" encoding="utf-8"?>
<!-- Generator: Adobe Illustrator 15.1.0, SVG Export Plug-In . SVG Version: 6.00 Build 0)  -->
<!DOCTYPE svg PUBLIC "-//W3C//DTD SVG 1.1//EN" "http://www.w3.org/Graphics/SVG/1.1/DTD/svg11.dtd">
<svg version="1.1" id="Layer_1" xmlns="http://www.w3.org/2000/svg" xmlns:xlink="http://www.w3.org/1999/xlink" x="0px" y="0px"
	 width="41.85px" height="24.299px" viewBox="0 0 41.85 24.299" enable-background="new 0 0 41.85 24.299" xml:space="preserve">
<g>
	<path fill="#FFFFFF" d="M0,24.299V0h5.82v1.83H2.189v20.639H5.82v1.83H0z"/>
	<path fill="#FFFFFF" d="M11.969,22.352V5.553H8.16V4.082c2.309-0.149,3.988-0.779,4.35-2.729h1.77v20.999H11.969z"/>
	<path fill="#FFFFFF" d="M18.24,22.352c0.27-5.31,2.76-7.529,6.75-10.26c3.719-2.52,4.529-3.54,4.529-5.46
		c0-2.158-1.529-3.51-4.289-3.51c-2.4,0-3.781,0.811-5.102,1.95l-1.35-1.71c1.711-1.38,3.51-2.34,6.541-2.34
		c3.719,0,6.51,1.74,6.51,5.489c0,3.12-1.441,4.38-5.25,6.99c-4.26,2.91-5.281,4.38-5.67,6.63h11.129v2.22H18.24z"/>
	<path fill="#FFFFFF" d="M36.029,24.299v-1.83h3.629V1.83h-3.629V0h5.82v24.299H36.029z"/>
</g>
</svg>
