<?xml version="1.0" encoding="utf-8"?>
<!-- Generator: Adobe Illustrator 15.1.0, SVG Export Plug-In . SVG Version: 6.00 Build 0)  -->
<!DOCTYPE svg PUBLIC "-//W3C//DTD SVG 1.1//EN" "http://www.w3.org/Graphics/SVG/1.1/DTD/svg11.dtd">
<svg version="1.1" id="Layer_1" xmlns="http://www.w3.org/2000/svg" xmlns:xlink="http://www.w3.org/1999/xlink" x="0px" y="0px"
	 width="32.49px" height="24.299px" viewBox="0 0 32.49 24.299" enable-background="new 0 0 32.49 24.299" xml:space="preserve">
<g>
	<path fill="#FFFFFF" d="M0,24.299V0h5.82v1.83H2.191v20.639H5.82v1.83H0z"/>
	<path fill="#FFFFFF" d="M8.881,22.352c0.27-5.31,2.76-7.529,6.75-10.26c3.719-2.52,4.529-3.54,4.529-5.46
		c0-2.159-1.529-3.51-4.291-3.51c-2.398,0-3.779,0.811-5.1,1.95l-1.35-1.71c1.711-1.38,3.51-2.34,6.541-2.34
		c3.719,0,6.51,1.74,6.51,5.489c0,3.12-1.441,4.38-5.25,6.99c-4.26,2.91-5.281,4.38-5.67,6.63H22.68v2.22H8.881z"/>
	<path fill="#FFFFFF" d="M26.67,24.299v-1.83h3.629V1.83H26.67V0h5.82v24.299H26.67z"/>
</g>
</svg>
