<?xml version="1.0" encoding="utf-8"?>
<!-- Generator: Adobe Illustrator 15.1.0, SVG Export Plug-In . SVG Version: 6.00 Build 0)  -->
<!DOCTYPE svg PUBLIC "-//W3C//DTD SVG 1.1//EN" "http://www.w3.org/Graphics/SVG/1.1/DTD/svg11.dtd">
<svg version="1.1" id="Layer_1" xmlns="http://www.w3.org/2000/svg" xmlns:xlink="http://www.w3.org/1999/xlink" x="0px" y="0px"
	 width="33.57px" height="24.299px" viewBox="0 0 33.57 24.299" enable-background="new 0 0 33.57 24.299" xml:space="preserve">
<g>
	<path fill="#FFFFFF" d="M0,24.299V0h5.82v1.83H2.191v20.639H5.82v1.83H0z"/>
	<path fill="#FFFFFF" d="M16.08,22.682c-2.58,0-4.83-0.75-6.629-1.92l1.139-1.86c1.561,0.99,3.57,1.681,5.67,1.681
		c3.6,0,5.4-2.07,5.4-5.07c0-2.729-1.711-4.41-5.01-4.41c-1.951,0-3.211,0.54-4.381,1.351l-2.309-0.9L10.68,1.353h12.029v2.22
		h-10.02l-0.51,6.75c1.051-0.72,2.641-1.32,4.621-1.32c4.799,0,7.17,2.58,7.17,6.36C23.971,20.432,20.699,22.682,16.08,22.682z"/>
	<path fill="#FFFFFF" d="M27.75,24.299v-1.83h3.631V1.83H27.75V0h5.82v24.299H27.75z"/>
</g>
</svg>
