<?xml version="1.0" encoding="utf-8"?>
<!-- Generator: Adobe Illustrator 15.1.0, SVG Export Plug-In . SVG Version: 6.00 Build 0)  -->
<!DOCTYPE svg PUBLIC "-//W3C//DTD SVG 1.1//EN" "http://www.w3.org/Graphics/SVG/1.1/DTD/svg11.dtd">
<svg version="1.1" id="Layer_1" xmlns="http://www.w3.org/2000/svg" xmlns:xlink="http://www.w3.org/1999/xlink" x="0px" y="0px"
	 width="33.84px" height="24.299px" viewBox="0 0 33.84 24.299" enable-background="new 0 0 33.84 24.299" xml:space="preserve">
<g>
	<path fill="#FFFFFF" d="M0,24.299V0h5.82v1.83H2.191v20.639H5.82v1.83H0z"/>
	<path fill="#FFFFFF" d="M17.07,22.682c-4.17,0-7.529-2.28-7.529-8.279c0-5.46,2.939-12.84,12.148-13.38v2.07
		c-5.52,0.479-8.818,3.51-9.898,8.819c1.35-1.44,3.09-2.46,6.059-2.46c3.84,0,6.961,2.07,6.961,6.42
		C24.811,20.372,21.449,22.682,17.07,22.682z M17.25,11.552c-3.33,0-5.4,1.771-5.4,4.44c0,2.609,2.131,4.59,5.311,4.59
		c3.48,0,5.34-1.891,5.34-4.59C22.5,13.172,20.551,11.552,17.25,11.552z"/>
	<path fill="#FFFFFF" d="M28.02,24.299v-1.83h3.631V1.83H28.02V0h5.82v24.299H28.02z"/>
</g>
</svg>
