<?xml version="1.0" encoding="utf-8"?>
<!-- Generator: Adobe Illustrator 15.1.0, SVG Export Plug-In . SVG Version: 6.00 Build 0)  -->
<!DOCTYPE svg PUBLIC "-//W3C//DTD SVG 1.1//EN" "http://www.w3.org/Graphics/SVG/1.1/DTD/svg11.dtd">
<svg version="1.1" id="Layer_1" xmlns="http://www.w3.org/2000/svg" xmlns:xlink="http://www.w3.org/1999/xlink" x="0px" y="0px"
	 width="34.5px" height="24.299px" viewBox="0 0 34.5 24.299" enable-background="new 0 0 34.5 24.299" xml:space="preserve">
<g>
	<path fill="#FFFFFF" d="M0,24.299V0h5.82v1.83H2.191v20.639H5.82v1.83H0z"/>
	<path fill="#FFFFFF" d="M17.221,22.682c-4.77,0-7.77-2.07-7.77-6.149c0-2.761,1.529-4.561,4.17-5.431
		c-1.92-0.75-3.271-2.13-3.271-4.439c0-3.27,2.461-5.639,6.93-5.639c4.471,0,6.871,2.309,6.871,5.579c0,2.25-1.291,3.6-3.27,4.439
		c2.639,0.87,4.168,2.67,4.168,5.43C25.049,20.552,21.99,22.682,17.221,22.682z M17.221,12.271c-3.51,0-5.461,1.74-5.461,4.2
		s1.83,4.11,5.52,4.11c3.691,0,5.461-1.59,5.461-4.05S20.73,12.271,17.221,12.271z M17.221,3.122c-3.361,0-4.561,1.71-4.561,3.48
		c0,2.04,1.74,3.569,4.619,3.569c2.791,0,4.561-1.56,4.561-3.51C21.84,4.893,20.58,3.122,17.221,3.122z"/>
	<path fill="#FFFFFF" d="M28.68,24.299v-1.83h3.631V1.83H28.68V0h5.82v24.299H28.68z"/>
</g>
</svg>
