<?xml version="1.0" encoding="utf-8"?>
<!-- Generator: Adobe Illustrator 15.1.0, SVG Export Plug-In . SVG Version: 6.00 Build 0)  -->
<!DOCTYPE svg PUBLIC "-//W3C//DTD SVG 1.1//EN" "http://www.w3.org/Graphics/SVG/1.1/DTD/svg11.dtd">
<svg version="1.1" id="Layer_1" xmlns="http://www.w3.org/2000/svg" xmlns:xlink="http://www.w3.org/1999/xlink" x="0px" y="0px"
	 width="33.84px" height="24.299px" viewBox="0 0 33.84 24.299" enable-background="new 0 0 33.84 24.299" xml:space="preserve">
<g>
	<path fill="#FFFFFF" d="M0,24.299V0h5.82v1.83H2.191v20.639H5.82v1.83H0z"/>
	<path fill="#FFFFFF" d="M12.15,22.682v-2.07c5.52-0.479,8.82-3.51,9.9-8.819c-1.352,1.44-3.09,2.46-6.061,2.46
		c-3.84,0-6.959-2.07-6.959-6.42c0-4.5,3.359-6.81,7.738-6.81c4.17,0,7.529,2.28,7.529,8.279
		C24.299,14.762,21.359,22.142,12.15,22.682z M16.68,3.122c-3.479,0-5.34,1.891-5.34,4.59c0,2.82,1.951,4.44,5.25,4.44
		c3.33,0,5.4-1.771,5.4-4.44C21.99,5.103,19.859,3.122,16.68,3.122z"/>
	<path fill="#FFFFFF" d="M28.02,24.299v-1.83h3.631V1.83H28.02V0h5.82v24.299H28.02z"/>
</g>
</svg>
