<?xml version="1.0" encoding="utf-8"?>
<!-- Generator: Adobe Illustrator 15.1.0, SVG Export Plug-In . SVG Version: 6.00 Build 0)  -->
<!DOCTYPE svg PUBLIC "-//W3C//DTD SVG 1.1//EN" "http://www.w3.org/Graphics/SVG/1.1/DTD/svg11.dtd">
<svg version="1.1" id="Layer_1" xmlns="http://www.w3.org/2000/svg" xmlns:xlink="http://www.w3.org/1999/xlink" x="0px" y="0px"
	 width="237.636px" height="32.115px" viewBox="0 0 237.636 32.115" enable-background="new 0 0 237.636 32.115"
	 xml:space="preserve">
<g>
	<g enable-background="new    ">
		<path fill="#FFFFFF" d="M16.286,22.1l-1.249-3.514H9.111L7.884,22.1H5.577L10.91,7.285h2.349L18.656,22.1H16.286z M13.175,13.189
			c-0.36-1.058-0.953-2.772-1.122-3.407c-0.169,0.635-0.698,2.328-1.079,3.429l-1.185,3.386h4.571L13.175,13.189z"/>
		<path fill="#FFFFFF" d="M29.576,16.047l3.026,6.053h-2.561L27.1,16.237h-3.344V22.1h-2.18V7.285h6.498
			c2.582,0,4.762,1.375,4.762,4.423C32.835,14.078,31.587,15.539,29.576,16.047z M28.074,9.38h-4.317v4.762h4.317
			c1.481,0,2.519-0.762,2.519-2.37C30.592,10.227,29.576,9.38,28.074,9.38z"/>
		<path fill="#FFFFFF" d="M44.263,16.047L47.29,22.1h-2.561l-2.942-5.862h-3.344V22.1h-2.18V7.285h6.498
			c2.582,0,4.762,1.375,4.762,4.423C47.522,14.078,46.274,15.539,44.263,16.047z M42.761,9.38h-4.317v4.762h4.317
			c1.481,0,2.519-0.762,2.519-2.37C45.279,10.227,44.263,9.38,42.761,9.38z"/>
		<path fill="#FFFFFF" d="M60.728,22.1l-1.249-3.514h-5.926L52.326,22.1h-2.307l5.333-14.814h2.349L63.099,22.1H60.728z
			 M57.617,13.189c-0.36-1.058-0.953-2.772-1.122-3.407c-0.169,0.635-0.698,2.328-1.079,3.429l-1.185,3.386h4.571L57.617,13.189z"/>
		<path fill="#FFFFFF" d="M70.463,22.332c-2.159,0-4.021-0.931-5.27-2.392l1.587-1.545c0.995,1.08,2.455,1.757,3.852,1.757
			c2.074,0,3.069-0.72,3.069-2.158c0-1.144-0.868-1.715-3.344-2.455c-3.132-0.932-4.635-1.715-4.635-4.36
			c0-2.561,2.159-4.127,4.889-4.127c2.011,0,3.534,0.741,4.847,2.011l-1.566,1.588c-0.931-0.953-1.989-1.418-3.45-1.418
			c-1.735,0-2.476,0.846-2.476,1.841c0,1.037,0.677,1.545,3.238,2.307c2.921,0.889,4.741,1.82,4.741,4.466
			C75.945,20.513,74.251,22.332,70.463,22.332z"/>
		<path fill="#FFFFFF" d="M84.875,9.465V22.1h-2.222V9.465h-4.317v-2.18h10.857v2.18H84.875z"/>
		<path fill="#FFFFFF" d="M100.113,16.047l3.026,6.053h-2.561l-2.942-5.862h-3.344V22.1h-2.18V7.285h6.498
			c2.582,0,4.762,1.375,4.762,4.423C103.372,14.078,102.124,15.539,100.113,16.047z M98.61,9.38h-4.317v4.762h4.317
			c1.481,0,2.519-0.762,2.519-2.37C101.129,10.227,100.113,9.38,98.61,9.38z"/>
		<path fill="#FFFFFF" d="M116.578,22.1l-1.249-3.514h-5.926l-1.228,3.514h-2.307l5.333-14.814h2.349l5.397,14.814H116.578z
			 M113.467,13.189c-0.36-1.058-0.953-2.772-1.122-3.407c-0.169,0.635-0.698,2.328-1.079,3.429l-1.185,3.386h4.571L113.467,13.189z"
			/>
		<path fill="#FFFFFF" d="M133.635,16.576h-3.873V22.1h-2.181V7.285h6.201c2.73,0,4.762,1.565,4.762,4.635
			C138.544,14.968,136.513,16.576,133.635,16.576z M133.741,9.38h-3.979v5.101h3.979c1.693,0,2.54-0.974,2.54-2.561
			C136.281,10.29,135.286,9.38,133.741,9.38z"/>
		<path fill="#FFFFFF" d="M151.179,22.1l-1.248-3.514h-5.926l-1.228,3.514h-2.308l5.334-14.814h2.35L153.55,22.1H151.179z
			 M148.069,13.189c-0.36-1.058-0.952-2.772-1.122-3.407c-0.169,0.635-0.698,2.328-1.079,3.429l-1.185,3.386h4.57L148.069,13.189z"
			/>
		<path fill="#FFFFFF" d="M164.47,16.047l3.025,6.053h-2.561l-2.941-5.862h-3.344V22.1h-2.18V7.285h6.497
			c2.582,0,4.762,1.375,4.762,4.423C167.729,14.078,166.48,15.539,164.47,16.047z M162.967,9.38h-4.317v4.762h4.317
			c1.481,0,2.519-0.762,2.519-2.37C165.486,10.227,164.47,9.38,162.967,9.38z"/>
		<path fill="#FFFFFF" d="M180.935,22.1l-1.248-3.514h-5.926l-1.229,3.514h-2.307l5.334-14.814h2.349l5.397,14.814H180.935z
			 M177.824,13.189c-0.359-1.058-0.952-2.772-1.121-3.407c-0.17,0.635-0.699,2.328-1.08,3.429l-1.185,3.386h4.571L177.824,13.189z"
			/>
		<path fill="#FFFFFF" d="M198.5,22.1h-2.349l-5.144-14.814h2.413l3.091,9.438c0.274,0.868,0.697,2.181,0.824,2.709
			c0.127-0.528,0.551-1.862,0.826-2.729l3.047-9.418h2.371L198.5,22.1z"/>
		<path fill="#FFFFFF" d="M206.5,22.1V7.285h9.545v2.158h-7.322v3.661h4.254v2.159h-4.254v4.677h7.64V22.1H206.5z"/>
		<path fill="#FFFFFF" d="M227.515,16.047l3.025,6.053h-2.561l-2.941-5.862h-3.344V22.1h-2.18V7.285h6.497
			c2.582,0,4.762,1.375,4.762,4.423C230.774,14.078,229.525,15.539,227.515,16.047z M226.012,9.38h-4.317v4.762h4.317
			c1.481,0,2.519-0.762,2.519-2.37C228.531,10.227,227.515,9.38,226.012,9.38z"/>
	</g>
</g>
</svg>
