<?xml version="1.0" encoding="utf-8"?>
<!-- Generator: Adobe Illustrator 15.1.0, SVG Export Plug-In . SVG Version: 6.00 Build 0)  -->
<!DOCTYPE svg PUBLIC "-//W3C//DTD SVG 1.1//EN" "http://www.w3.org/Graphics/SVG/1.1/DTD/svg11.dtd">
<svg version="1.1" id="Layer_1" xmlns="http://www.w3.org/2000/svg" xmlns:xlink="http://www.w3.org/1999/xlink" x="0px" y="0px"
	 width="253.793px" height="67.29px" viewBox="0 0 253.793 67.29" enable-background="new 0 0 253.793 67.29" xml:space="preserve">
<g>
	<g>
		<path fill="#FFFFFF" d="M104.261,25.144l-1.8-5.34h-8.67l-1.829,5.34h-2.4l7.29-20.999h2.58l7.289,20.999H104.261z M99.432,10.775
			c-0.45-1.38-1.08-3.271-1.29-4.14c-0.21,0.84-0.811,2.729-1.32,4.199l-2.31,6.84h7.229L99.432,10.775z"/>
		<path fill="#FFFFFF" d="M120.341,25.144v-1.92c-1.109,1.2-2.609,2.25-4.739,2.25c-3.15,0-5.64-2.4-5.64-7.95
			c0-5.579,2.64-8.459,5.939-8.459c1.979,0,3.33,0.84,4.439,2.1v-6.63l2.25-1.26v21.869H120.341z M120.341,13.384
			c-0.87-1.319-2.399-2.37-4.26-2.37c-2.609,0-3.899,2.25-3.899,6.48c0,3.96,1.5,6.029,3.989,6.029c1.681,0,3.061-0.899,4.17-2.279
			V13.384z"/>
		<path fill="#FFFFFF" d="M137.352,25.144v-1.92c-0.9,1.32-2.371,2.25-4.351,2.25c-3.33,0-5.521-1.95-5.521-6.479v-9.6h2.25v9.209
			c0,3.391,1.199,4.92,3.721,4.92c2.189,0,3.898-1.47,3.898-4.92V9.395h2.25v15.749H137.352z"/>
		<path fill="#FFFFFF" d="M153.609,25.144v-1.92c-1.109,1.2-2.67,2.25-4.92,2.25c-2.459,0-5.039-1.23-5.039-5.04
			c0-3.54,2.91-5.04,6.029-5.04c1.59,0,3,0.391,3.93,0.9v-1.86c0-2.34-1.109-3.479-3.42-3.479c-1.648,0-3,0.45-4.289,1.2l-0.84-1.83
			c1.379-0.75,3.239-1.26,5.279-1.26c3.391,0,5.52,1.439,5.52,5.1v10.979H153.609z M153.609,18.094
			c-1.02-0.57-2.129-0.899-4.049-0.899c-2.311,0-3.689,1.109-3.689,3.09c0,2.34,1.289,3.359,3.209,3.359
			c2.04,0,3.57-1.05,4.529-2.37V18.094z"/>
		<path fill="#FFFFFF" d="M170.62,25.144v-9.21c0-3.39-1.2-4.92-3.72-4.92c-2.189,0-3.899,1.471-3.899,4.92v9.21h-2.25V9.395h2.25
			v1.92c0.899-1.32,2.369-2.25,4.351-2.25c3.33,0,5.52,1.949,5.52,6.479v9.6H170.62z"/>
		<path fill="#FFFFFF" d="M186.789,25.144v-1.92c-1.109,1.2-2.67,2.25-4.92,2.25c-2.46,0-5.04-1.23-5.04-5.04
			c0-3.54,2.91-5.04,6.03-5.04c1.59,0,3,0.391,3.93,0.9v-1.86c0-2.34-1.109-3.479-3.42-3.479c-1.649,0-3,0.45-4.29,1.2l-0.84-1.83
			c1.38-0.75,3.239-1.26,5.28-1.26c3.39,0,5.52,1.439,5.52,5.1v10.979H186.789z M186.789,18.094c-1.02-0.57-2.13-0.899-4.05-0.899
			c-2.31,0-3.689,1.109-3.689,3.09c0,2.34,1.289,3.359,3.209,3.359c2.04,0,3.57-1.05,4.53-2.37V18.094z"/>
		<path fill="#FFFFFF" d="M100.001,61.144v-1.92c-1.109,1.2-2.609,2.25-4.739,2.25c-3.15,0-5.64-2.399-5.64-7.95
			c0-5.579,2.64-8.459,5.939-8.459c1.979,0,3.33,0.84,4.439,2.1v-6.629l2.25-1.261v21.869H100.001z M100.001,49.383
			c-0.87-1.318-2.399-2.369-4.26-2.369c-2.609,0-3.899,2.25-3.899,6.48c0,3.959,1.5,6.028,3.989,6.028
			c1.681,0,3.061-0.899,4.17-2.278V49.383L100.001,49.383z"/>
		<path fill="#FFFFFF" d="M119.141,54.036h-10.5c0.21,3.358,1.801,5.488,4.38,5.488c1.83,0,2.91-0.54,4.351-1.5l1.05,1.62
			c-1.891,1.2-3.271,1.83-5.64,1.83c-2.88,0-6.39-2.101-6.39-8.279c0-5.01,2.76-8.13,6.509-8.13c4.11,0,6.33,3.239,6.33,7.739
			C119.23,53.344,119.2,53.674,119.141,54.036z M112.871,47.014c-2.34,0-3.96,1.681-4.23,5.189h8.49
			C116.951,49.144,115.631,47.014,112.871,47.014z"/>
		<path fill="#FFFFFF" d="M140.051,61.144h-2.58l-7.14-20.999h2.46l4.68,14.369c0.42,1.26,1.08,3.39,1.29,4.14
			c0.21-0.75,0.931-2.97,1.32-4.198l4.71-14.311h2.398L140.051,61.144z"/>
		<path fill="#FFFFFF" d="M163.182,54.036h-10.5c0.209,3.358,1.801,5.488,4.379,5.488c1.83,0,2.91-0.54,4.352-1.5l1.05,1.62
			c-1.892,1.2-3.271,1.83-5.64,1.83c-2.881,0-6.391-2.101-6.391-8.279c0-5.01,2.76-8.13,6.51-8.13c4.109,0,6.33,3.239,6.33,7.739
			C163.271,53.344,163.24,53.674,163.182,54.036z M156.911,47.014c-2.341,0-3.96,1.681-4.229,5.189h8.489
			C160.991,49.144,159.671,47.014,156.911,47.014z"/>
		<path fill="#FFFFFF" d="M175.51,47.735c-0.63-0.359-1.318-0.602-2.369-0.602c-2.189,0-3.42,1.771-3.42,4.771v9.239h-2.25V45.395
			h2.25v1.949c0.721-1.26,2.221-2.279,3.899-2.279c1.17,0,1.92,0.148,2.46,0.391L175.51,47.735z"/>
		<path fill="#FFFFFF" d="M188.71,61.144v-1.92c-1.11,1.2-2.67,2.25-4.92,2.25c-2.46,0-5.04-1.229-5.04-5.04
			c0-3.54,2.91-5.04,6.03-5.04c1.59,0,3,0.392,3.93,0.899v-1.859c0-2.34-1.11-3.479-3.42-3.479c-1.649,0-3,0.449-4.29,1.199
			l-0.84-1.83c1.38-0.75,3.24-1.26,5.279-1.26c3.391,0,5.521,1.439,5.521,5.1v10.979H188.71z M188.71,54.094
			c-1.021-0.57-2.13-0.899-4.05-0.899c-2.311,0-3.689,1.109-3.689,3.091c0,2.34,1.289,3.358,3.209,3.358c2.04,0,3.57-1.05,4.53-2.37
			V54.094z"/>
		<path fill="#FFFFFF" d="M205.42,48.605c-1.14-1.021-2.189-1.591-3.779-1.591c-2.461,0-4.351,2.221-4.351,6.15
			c0,3.869,1.649,6.358,4.44,6.358c1.528,0,2.55-0.63,3.629-1.681l1.351,1.439c-1.319,1.352-2.851,2.19-5.069,2.19
			c-3.449,0-6.63-2.64-6.63-8.13c0-5.819,3.479-8.279,6.779-8.279c2.13,0,3.75,0.779,4.979,1.859L205.42,48.605z"/>
		<path fill="#FFFFFF" d="M218.739,47.735c-0.63-0.359-1.319-0.602-2.37-0.602c-2.189,0-3.419,1.771-3.419,4.771v9.239h-2.25V45.395
			h2.25v1.949c0.72-1.26,2.22-2.279,3.899-2.279c1.17,0,1.92,0.148,2.459,0.391L218.739,47.735z"/>
		<path fill="#FFFFFF" d="M232.689,61.144v-1.92c-0.9,1.319-2.371,2.25-4.351,2.25c-3.33,0-5.521-1.95-5.521-6.479v-9.6h2.25v9.209
			c0,3.391,1.199,4.92,3.721,4.92c2.189,0,3.898-1.47,3.898-4.92v-9.209h2.25v15.749H232.689z"/>
		<path fill="#FFFFFF" d="M239.05,61.144v-1.649l8.609-12.209h-7.92v-1.891h10.47v1.648L241.6,59.254h8.609v1.89H239.05z"/>
	</g>
</g>
<g>
	<polygon stroke="#FFFFFF" stroke-width="2" stroke-linecap="round" stroke-linejoin="round" stroke-miterlimit="10" points="
		49.396,27.145 49.396,14.145 30.396,14.145 30.396,27.145 11.396,27.145 11.396,61.145 67.396,61.145 67.396,27.145 	"/>
	<g>
		<rect x="16.396" y="33.145" fill="#FFFFFF" width="5" height="8"/>
	</g>
	<g>
		<rect x="26.396" y="33.145" fill="#FFFFFF" width="5" height="8"/>
	</g>
	<g>
		<rect x="36.396" y="33.145" fill="#FFFFFF" width="6" height="8"/>
	</g>
	<g>
		<rect x="36.396" y="19.145" fill="#FFFFFF" width="6" height="8"/>
	</g>
	<g>
		<rect x="47.396" y="33.145" fill="#FFFFFF" width="5" height="8"/>
	</g>
	<g>
		<rect x="57.396" y="33.145" fill="#FFFFFF" width="5" height="8"/>
	</g>
	<g>
		<rect x="16.396" y="46.145" fill="#FFFFFF" width="5" height="7"/>
	</g>
	<g>
		<rect x="26.396" y="46.145" fill="#FFFFFF" width="5" height="7"/>
	</g>
	<g>
		<rect x="47.396" y="46.145" fill="#FFFFFF" width="5" height="7"/>
	</g>
	<g>
		<rect x="57.396" y="46.145" fill="#FFFFFF" width="5" height="7"/>
	</g>
	<rect x="35.396" y="45.145" fill="#FFFFFF" width="8" height="16"/>
	
		<line fill="none" stroke="#FFFFFF" stroke-width="2" stroke-linecap="round" stroke-linejoin="round" stroke-miterlimit="10" x1="-0.604" y1="61.145" x2="79.396" y2="61.145"/>
	
		<line fill="none" stroke="#FFFFFF" stroke-width="2" stroke-linecap="round" stroke-linejoin="round" stroke-miterlimit="10" x1="39.396" y1="14.145" x2="39.396" y2="5.145"/>
	
		<line fill="none" stroke="#FFFFFF" stroke-width="2" stroke-linecap="round" stroke-linejoin="round" stroke-miterlimit="10" x1="30.396" y1="59.145" x2="48.396" y2="59.145"/>
</g>
</svg>
