<?xml version="1.0" encoding="utf-8"?>
<!-- Generator: Adobe Illustrator 15.1.0, SVG Export Plug-In . SVG Version: 6.00 Build 0)  -->
<!DOCTYPE svg PUBLIC "-//W3C//DTD SVG 1.1//EN" "http://www.w3.org/Graphics/SVG/1.1/DTD/svg11.dtd">
<svg version="1.1" id="Layer_1" xmlns="http://www.w3.org/2000/svg" xmlns:xlink="http://www.w3.org/1999/xlink" x="0px" y="0px"
	 width="249.223px" height="67.29px" viewBox="0 0 249.223 67.29" enable-background="new 0 0 249.223 67.29" xml:space="preserve">
<g>
	<g>
		<g>
			<path fill="#FFFFFF" d="M106.976,25.144l-1.8-5.34h-8.67l-1.829,5.34h-2.4l7.29-20.999h2.58l7.289,20.999H106.976z
				 M102.147,10.775c-0.45-1.38-1.08-3.271-1.29-4.14c-0.21,0.84-0.811,2.729-1.32,4.199l-2.31,6.84h7.229L102.147,10.775z"/>
			<path fill="#FFFFFF" d="M121.556,11.735c-0.63-0.36-1.319-0.601-2.37-0.601c-2.189,0-3.419,1.771-3.419,4.771v9.239h-2.25V9.395
				h2.25v1.949c0.72-1.26,2.22-2.279,3.899-2.279c1.17,0,1.92,0.149,2.46,0.39L121.556,11.735z"/>
			<path fill="#FFFFFF" d="M135.296,12.605c-1.14-1.021-2.19-1.591-3.78-1.591c-2.46,0-4.35,2.221-4.35,6.15
				c0,3.87,1.65,6.359,4.44,6.359c1.529,0,2.55-0.63,3.63-1.68l1.35,1.439c-1.32,1.351-2.85,2.19-5.07,2.19
				c-3.449,0-6.629-2.64-6.629-8.13c0-5.819,3.479-8.279,6.779-8.279c2.13,0,3.75,0.779,4.979,1.859L135.296,12.605z"/>
			<path fill="#FFFFFF" d="M146.516,25.474c-3.84,0-6.779-2.85-6.779-8.189s3.06-8.22,6.899-8.22s6.779,2.76,6.779,8.1
				S150.356,25.474,146.516,25.474z M146.575,11.014c-2.729,0-4.56,2.07-4.56,6.21s1.83,6.3,4.56,6.3c2.73,0,4.59-2.16,4.59-6.3
				S149.306,11.014,146.575,11.014z"/>
			<path fill="#FFFFFF" d="M174.896,25.144v-1.92c-1.109,1.2-2.609,2.25-4.739,2.25c-3.15,0-5.64-2.4-5.64-7.95
				c0-5.579,2.64-8.459,5.939-8.459c1.979,0,3.33,0.84,4.439,2.1v-6.63l2.25-1.26v21.869H174.896z M174.896,13.384
				c-0.87-1.319-2.399-2.37-4.26-2.37c-2.609,0-3.899,2.25-3.899,6.48c0,3.96,1.5,6.029,3.989,6.029c1.681,0,3.061-0.899,4.17-2.279
				V13.384z"/>
			<path fill="#FFFFFF" d="M194.035,18.035h-10.5c0.21,3.359,1.801,5.489,4.38,5.489c1.83,0,2.91-0.54,4.351-1.5l1.05,1.62
				c-1.891,1.2-3.271,1.83-5.64,1.83c-2.88,0-6.39-2.1-6.39-8.279c0-5.01,2.76-8.13,6.509-8.13c4.11,0,6.33,3.239,6.33,7.739
				C194.125,17.344,194.095,17.674,194.035,18.035z M187.766,11.014c-2.34,0-3.96,1.681-4.23,5.19h8.49
				C191.846,13.144,190.526,11.014,187.766,11.014z"/>
			<path fill="#FFFFFF" d="M101.216,47.735c-0.63-0.36-1.319-0.601-2.37-0.601c-2.189,0-3.419,1.771-3.419,4.771v9.239h-2.25V45.395
				h2.25v1.949c0.72-1.26,2.22-2.279,3.899-2.279c1.17,0,1.92,0.149,2.46,0.39L101.216,47.735z"/>
			<path fill="#FFFFFF" d="M114.416,61.144v-1.92c-1.11,1.2-2.67,2.25-4.92,2.25c-2.46,0-5.04-1.23-5.04-5.04
				c0-3.54,2.91-5.04,6.03-5.04c1.59,0,3,0.391,3.93,0.9v-1.86c0-2.34-1.11-3.479-3.42-3.479c-1.649,0-3,0.45-4.29,1.2l-0.84-1.83
				c1.38-0.75,3.24-1.26,5.28-1.26c3.39,0,5.52,1.439,5.52,5.1v10.979H114.416z M114.416,54.094c-1.02-0.57-2.13-0.899-4.05-0.899
				c-2.31,0-3.689,1.109-3.689,3.09c0,2.34,1.289,3.359,3.209,3.359c2.04,0,3.57-1.05,4.53-2.37V54.094z"/>
			<path fill="#FFFFFF" d="M125.966,66.694h-2.25l2.16-5.729l-5.609-15.569h2.37l3.84,11.429l0.539,1.62l0.54-1.59l3.87-11.459h2.37
				L125.966,66.694z"/>
			<path fill="#FFFFFF" d="M143.426,61.474c-3.84,0-6.779-2.85-6.779-8.189s3.06-8.22,6.899-8.22s6.779,2.76,6.779,8.1
				S147.266,61.474,143.426,61.474z M143.486,47.014c-2.729,0-4.56,2.07-4.56,6.21s1.83,6.3,4.56,6.3c2.73,0,4.59-2.16,4.59-6.3
				S146.216,47.014,143.486,47.014z"/>
			<path fill="#FFFFFF" d="M158.816,61.474c-2.16,0-4.05-0.811-5.55-2.01l1.32-1.65c1.26,1.11,2.729,1.74,4.289,1.74
				c2.16,0,3.18-0.9,3.18-2.43c0-1.29-0.93-2.01-3.72-3.21c-3.149-1.351-4.47-2.311-4.47-4.83c0-2.399,2.07-4.02,4.92-4.02
				c2.16,0,3.84,0.689,5.04,1.68l-1.26,1.65c-1.23-0.96-2.25-1.41-3.93-1.41c-1.65,0-2.61,0.81-2.61,1.949
				c0,1.32,0.81,1.86,3.479,3.061c2.971,1.35,4.71,2.22,4.71,5.04C164.215,60.125,161.545,61.474,158.816,61.474z"/>
			<path fill="#FFFFFF" d="M180.085,66.934l-0.72-1.71c5.249-0.15,6.449-1.53,6.449-5.19v-0.81c-1.109,1.2-2.609,2.25-4.739,2.25
				c-3.15,0-5.64-2.4-5.64-7.95c0-5.579,2.64-8.459,5.939-8.459c1.979,0,3.33,0.84,4.439,2.1v-1.77h2.25v14.339
				C188.065,64.474,185.935,66.753,180.085,66.934z M185.815,49.384c-0.87-1.319-2.399-2.37-4.26-2.37
				c-2.609,0-3.899,2.25-3.899,6.48c0,3.96,1.5,6.029,3.989,6.029c1.681,0,3.061-0.899,4.17-2.279V49.384z"/>
			<path fill="#FFFFFF" d="M202.074,61.144v-1.92c-1.11,1.2-2.67,2.25-4.92,2.25c-2.46,0-5.04-1.23-5.04-5.04
				c0-3.54,2.91-5.04,6.03-5.04c1.59,0,3,0.391,3.93,0.9v-1.86c0-2.34-1.11-3.479-3.42-3.479c-1.649,0-3,0.45-4.29,1.2l-0.84-1.83
				c1.38-0.75,3.24-1.26,5.28-1.26c3.39,0,5.52,1.439,5.52,5.1v10.979H202.074z M202.074,54.094c-1.02-0.57-2.13-0.899-4.05-0.899
				c-2.31,0-3.689,1.109-3.689,3.09c0,2.34,1.289,3.359,3.209,3.359c2.04,0,3.57-1.05,4.53-2.37V54.094z"/>
			<path fill="#FFFFFF" d="M227.514,61.144v-9.21c0-3.6-1.109-4.92-3.39-4.92c-2.13,0-3.51,1.44-3.51,4.92v9.21h-2.25v-9.21
				c0-3.6-1.2-4.92-3.39-4.92c-2.16,0-3.51,1.44-3.51,4.92v9.21h-2.25V45.395h2.25v1.92c0.81-1.351,2.13-2.25,3.989-2.25
				c2.22,0,3.57,1.2,4.32,2.699c0.93-1.499,2.22-2.699,4.77-2.699c3.21,0,5.22,1.89,5.22,6.479v9.6H227.514z"/>
			<path fill="#FFFFFF" d="M243.684,61.144v-1.92c-1.11,1.2-2.67,2.25-4.92,2.25c-2.46,0-5.04-1.23-5.04-5.04
				c0-3.54,2.91-5.04,6.03-5.04c1.59,0,3,0.391,3.93,0.9v-1.86c0-2.34-1.11-3.479-3.42-3.479c-1.649,0-3,0.45-4.29,1.2l-0.84-1.83
				c1.38-0.75,3.24-1.26,5.28-1.26c3.39,0,5.52,1.439,5.52,5.1v10.979H243.684z M243.684,54.094c-1.02-0.57-2.13-0.899-4.05-0.899
				c-2.31,0-3.689,1.109-3.689,3.09c0,2.34,1.289,3.359,3.209,3.359c2.04,0,3.57-1.05,4.53-2.37V54.094z"/>
		</g>
	</g>
	<g>
		<g>
			
				<line fill="#004794" stroke="#FFFFFF" stroke-width="2" stroke-linecap="round" stroke-linejoin="round" stroke-miterlimit="10" x1="0.112" y1="59.145" x2="17.112" y2="59.145"/>
		</g>
		<g>
			
				<line fill="#004794" stroke="#FFFFFF" stroke-width="2" stroke-linecap="round" stroke-linejoin="round" stroke-miterlimit="10" x1="55.112" y1="59.145" x2="72.112" y2="59.145"/>
		</g>
		<path stroke="#FFFFFF" stroke-width="2" stroke-linecap="round" stroke-linejoin="round" stroke-miterlimit="10" d="M18.14,14.145
			h-1.646c-0.854,0-1.67,0.31-2.265,0.922l-7.832,7.645c-0.571,0.589-1.286,1.359-1.286,2.18v34.254h7V26.17l5.445-6.025H54.78
			l5.332,6.025v32.975h7V24.891c0-0.82-0.467-1.608-1.038-2.197l-7.511-7.627c-0.595-0.612-1.485-0.922-2.338-0.922h-2.028H18.14z"
			/>
		<rect x="50.112" y="16.145" fill="#FFFFFF" width="3" height="2"/>
		<rect x="44.112" y="16.145" fill="#FFFFFF" width="4" height="2"/>
	</g>
</g>
</svg>
