<?xml version="1.0" encoding="utf-8"?>
<!-- Generator: Adobe Illustrator 15.1.0, SVG Export Plug-In . SVG Version: 6.00 Build 0)  -->
<!DOCTYPE svg PUBLIC "-//W3C//DTD SVG 1.1//EN" "http://www.w3.org/Graphics/SVG/1.1/DTD/svg11.dtd">
<svg version="1.1" id="Layer_1" xmlns="http://www.w3.org/2000/svg" xmlns:xlink="http://www.w3.org/1999/xlink" x="0px" y="0px"
	 width="50px" height="50px" viewBox="0 0 50 50" enable-background="new 0 0 50 50" xml:space="preserve">
<g>
	<circle opacity="0.25" fill="#E1134F" cx="25" cy="25" r="25"/>
	<circle fill="#E1134F" cx="25" cy="25" r="17.919"/>
	<g>
		<path fill="#FFFFFF" d="M29.348,20.803c-0.7-1.344-1.819-2.128-3.584-2.128c-2.939,0-4.62,2.575-4.62,6.216
			c0,3.527,1.708,6.216,4.648,6.216c1.764,0,2.8-0.756,3.836-2.492l3.304,1.96c-1.344,2.772-3.695,4.424-7.252,4.424
			c-5.124,0-8.567-3.92-8.567-10.107c0-5.964,3.584-10.108,8.708-10.108c3.695,0,5.936,1.792,7.168,4.34L29.348,20.803z"/>
	</g>
</g>
</svg>
