<?xml version="1.0" encoding="utf-8"?>
<!-- Generator: Adobe Illustrator 15.1.0, SVG Export Plug-In . SVG Version: 6.00 Build 0)  -->
<!DOCTYPE svg PUBLIC "-//W3C//DTD SVG 1.1//EN" "http://www.w3.org/Graphics/SVG/1.1/DTD/svg11.dtd">
<svg version="1.1" id="Layer_1" xmlns="http://www.w3.org/2000/svg" xmlns:xlink="http://www.w3.org/1999/xlink" x="0px" y="0px"
	 width="50px" height="50px" viewBox="0 0 50 50" enable-background="new 0 0 50 50" xml:space="preserve">
<g>
	<circle opacity="0.25" fill="#E1134F" enable-background="new    " cx="25" cy="25" r="25"/>
	<circle fill="#E1134F" cx="25" cy="25" r="17.919"/>
	<g>
		<path fill="#FFFFFF" d="M26.492,34.689h-8.904v-19.6h8.988c3.809,0,6.216,1.819,6.216,5.18c0,1.68-0.784,3.024-2.071,3.808
			c1.567,0.7,2.743,2.128,2.743,4.283C33.464,32.479,30.691,34.689,26.492,34.689z M26.408,18.702h-4.983v3.725h5.181
			c1.623,0,2.211-0.756,2.211-1.849C28.816,19.347,28.116,18.702,26.408,18.702z M26.632,25.898h-5.207v5.067h5.207
			c1.904,0,2.802-1.009,2.802-2.549C29.434,26.738,28.536,25.898,26.632,25.898z"/>
	</g>
</g>
</svg>
