<?xml version="1.0" encoding="utf-8"?>
<!-- Generator: Adobe Illustrator 15.1.0, SVG Export Plug-In . SVG Version: 6.00 Build 0)  -->
<!DOCTYPE svg PUBLIC "-//W3C//DTD SVG 1.1//EN" "http://www.w3.org/Graphics/SVG/1.1/DTD/svg11.dtd">
<svg version="1.1" id="Layer_1" xmlns="http://www.w3.org/2000/svg" xmlns:xlink="http://www.w3.org/1999/xlink" x="0px" y="0px"
	 width="87.328px" height="85.722px" viewBox="2.258 -4.78 87.328 85.722" enable-background="new 2.258 -4.78 87.328 85.722"
	 xml:space="preserve">
<g>
	<polygon fill="#E1134F" points="89.586,-4.78 31.479,4.851 32.029,15.019 2.258,21.847 9.833,80.942 64.616,73.415 65.483,79.497 
		87.226,76.453 87.385,70.361 82.164,70.361 	"/>
	<g>
		<path fill="none" stroke="#FFFFFF" stroke-linecap="round" stroke-linejoin="round" stroke-miterlimit="10" d="M69.269,27.577
			c-0.242,0.04-0.471-0.122-0.513-0.364c-0.04-0.24,0.121-0.47,0.363-0.51c0.241-0.043,0.471,0.12,0.511,0.361
			C69.672,27.306,69.51,27.535,69.269,27.577z"/>
		<g>
			<polygon fill="#A90E3B" points="69.476,25.911 67.73,26.209 68.411,30.197 70.095,29.909 70.206,26.542 			"/>
			<path fill="#A90E3B" d="M45.465,15.117l-0.118-0.688c-0.152-0.896,0.45-1.746,1.347-1.9l5.856-0.998
				c0.786-0.135,1.532,0.394,1.667,1.18l0.185,1.086c0.135,0.787-0.394,1.531-1.181,1.666l-5.856,1
				C46.469,16.615,45.617,16.012,45.465,15.117z"/>
			<path fill="#A90E3B" d="M52.92,4.633l0.676,3.957c0,0,0.086,1.055-1.082,1.254l-7.226,1.232
				c-0.131,0.022-0.242,0.106-0.301,0.226l-1.433,2.928l0.318,1.869c0,0-0.116,0.861-0.98,1.009l-0.764-4.476
				c0,0-0.889,0.872-0.699,1.974l0.224,1.312c0.128,0.752-0.378,1.466-1.13,1.594l-0.584,0.101l-0.029,0.604
				c-0.01,0.188-0.181,0.323-0.364,0.29c-0.269-0.047-0.646-0.091-0.956-0.038c-0.545,0.093-1.486,0.683-1.486,0.683l-1.466,0.25
				l-0.751-4.399l0.947-0.162l-0.916-5.371l0.098-1.778L52.92,4.633z"/>
			
				<rect x="54.267" y="4.449" transform="matrix(-0.1683 -0.9857 0.9857 -0.1683 60.6786 68.1081)" fill="#A90E3B" width="9.609" height="8.013"/>
			<circle fill="#A90E3B" cx="60.909" cy="29.191" r="4.951"/>
			<circle fill="#A90E3B" cx="71.532" cy="4.882" r="2.952"/>
			<circle fill="#A90E3B" cx="63.407" cy="43.825" r="4.95"/>
			<circle fill="#A90E3B" cx="63.92" cy="56.537" r="3.612"/>
			<circle fill="#A90E3B" cx="52.871" cy="58.422" r="3.612"/>
			<circle fill="#A90E3B" cx="45.406" cy="31.837" r="4.95"/>
			<circle fill="#A90E3B" cx="47.904" cy="46.471" r="4.95"/>
			<circle fill="#A90E3B" cx="32.728" cy="45.492" r="4.95"/>
			<circle fill="#A90E3B" cx="35.27" cy="60.381" r="4.95"/>
			<circle fill="#A90E3B" cx="17.011" cy="48.175" r="4.95"/>
			<circle fill="#A90E3B" cx="12.545" cy="35.266" r="2.72"/>
			<circle fill="#A90E3B" cx="19.624" cy="34.058" r="2.72"/>
			<circle fill="#A90E3B" cx="19.551" cy="63.064" r="4.95"/>
			<circle fill="#A90E3B" cx="65.003" cy="17.765" r="0.323"/>
		</g>
	</g>
</g>
</svg>
