<?xml version="1.0" encoding="utf-8"?>
<!-- Generator: Adobe Illustrator 15.1.0, SVG Export Plug-In . SVG Version: 6.00 Build 0)  -->
<!DOCTYPE svg PUBLIC "-//W3C//DTD SVG 1.1//EN" "http://www.w3.org/Graphics/SVG/1.1/DTD/svg11.dtd">
<svg version="1.1" id="Layer_1" xmlns="http://www.w3.org/2000/svg" xmlns:xlink="http://www.w3.org/1999/xlink" x="0px" y="0px"
	 width="422.43px" height="39.275px" viewBox="0 0 422.43 39.275" enable-background="new 0 0 422.43 39.275" xml:space="preserve">
<g>
	<rect y="2.783" fill="none" width="422.43" height="36.492"/>
	<path fill="#99B5D4" d="M68.915,22.08V3.453h4.461v1.403h-2.782v15.821h2.782v1.402H68.915z"/>
	<path fill="#99B5D4" d="M82.645,13.226h-3.909v6.324h-1.793V3.453h6.024c2.92,0,5.128,1.541,5.128,4.806
		C88.094,11.456,85.864,13.226,82.645,13.226z M82.897,5.086h-4.162v6.508h3.932c2.46,0,3.633-1.127,3.633-3.266
		C86.301,6.259,85.105,5.086,82.897,5.086z"/>
	<path fill="#99B5D4" d="M96.858,19.802c-3.84,0-5.818-2.322-5.818-6.783V3.453h1.793v9.52c0,3.472,1.334,5.197,4.116,5.197
		c2.783,0,3.886-1.678,3.886-5.151V3.453h1.793v9.52C102.63,17.434,100.722,19.802,96.858,19.802z"/>
	<path fill="#99B5D4" d="M106.75,19.55V3.453h1.793v14.464h7.956v1.633H106.75z"/>
	<path fill="#99B5D4" d="M124.527,19.802c-2.185,0-4.139-0.942-5.404-2.23l1.196-1.334c1.219,1.173,2.622,1.932,4.277,1.932
		c2.139,0,3.473-1.058,3.473-2.759c0-1.495-0.897-2.345-3.84-3.403c-3.472-1.242-4.645-2.368-4.645-4.691
		c0-2.575,2.023-4.116,5.036-4.116c2.161,0,3.541,0.644,4.898,1.725l-1.15,1.403c-1.173-0.966-2.253-1.495-3.863-1.495
		c-2.208,0-3.127,1.104-3.127,2.369c0,1.333,0.598,2.092,3.817,3.242c3.564,1.288,4.668,2.483,4.668,4.875
		C129.862,17.848,127.885,19.802,124.527,19.802z"/>
	<path fill="#99B5D4" d="M143.961,19.55l-1.38-4.094h-6.646l-1.403,4.094h-1.839l5.588-16.097h1.978l5.588,16.097H143.961z
		 M140.259,8.535c-0.345-1.058-0.828-2.506-0.989-3.173c-0.161,0.644-0.621,2.093-1.012,3.219l-1.771,5.243h5.542L140.259,8.535z"/>
	<path fill="#99B5D4" d="M160.867,13.226h-3.909v6.324h-1.793V3.453h6.024c2.92,0,5.128,1.541,5.128,4.806
		C166.316,11.456,164.086,13.226,160.867,13.226z M161.12,5.086h-4.162v6.508h3.932c2.46,0,3.633-1.127,3.633-3.266
		C164.523,6.259,163.327,5.086,161.12,5.086z"/>
	<path fill="#99B5D4" d="M179.749,19.55l-1.38-4.094h-6.646l-1.403,4.094h-1.839l5.588-16.097h1.978l5.588,16.097H179.749z
		 M176.046,8.535c-0.345-1.058-0.828-2.506-0.989-3.173c-0.161,0.644-0.621,2.093-1.012,3.219l-1.771,5.243h5.542L176.046,8.535z"/>
	<path fill="#99B5D4" d="M192.56,12.56l3.541,6.991h-2.069l-3.449-6.853h-3.817v6.853h-1.793V3.453h6.37
		c2.828,0,5.013,1.449,5.013,4.553C196.354,10.513,194.859,12.077,192.56,12.56z M191.272,5.086h-4.507v6.002h4.277
		c2.392,0,3.519-0.989,3.519-3.013C194.561,6.098,193.411,5.086,191.272,5.086z"/>
	<path fill="#99B5D4" d="M210.292,19.55l-1.38-4.094h-6.646l-1.403,4.094h-1.839l5.588-16.097h1.978l5.588,16.097H210.292z
		 M206.59,8.535c-0.345-1.058-0.828-2.506-0.989-3.173c-0.161,0.644-0.621,2.093-1.012,3.219l-1.771,5.243h5.542L206.59,8.535z"/>
	<path fill="#99B5D4" d="M227.312,19.802c-3.933,0-6.507-3.564-6.507-8.278c0-4.783,2.689-8.324,6.576-8.324
		c2.207,0,3.863,0.828,5.128,2.576l-1.426,1.081c-1.034-1.402-2.001-2.023-3.749-2.023c-2.759,0-4.736,2.736-4.736,6.646
		c0,3.932,2.047,6.691,4.76,6.691c1.748,0,2.943-0.782,3.979-2.115l1.242,1.081C231.405,18.722,229.658,19.802,227.312,19.802z"/>
	<path fill="#99B5D4" d="M241.895,19.802c-4.001,0-6.646-3.426-6.646-8.278c0-4.852,2.69-8.324,6.691-8.324s6.668,3.426,6.668,8.278
		S245.896,19.802,241.895,19.802z M241.872,4.833c-2.783,0-4.83,2.599-4.83,6.646c0,4.047,2.116,6.691,4.922,6.691
		c2.782,0,4.852-2.598,4.852-6.646C246.815,7.478,244.677,4.833,241.872,4.833z"/>
	<path fill="#99B5D4" d="M262.064,19.55l-7.036-11.015c-0.346-0.552-0.943-1.609-1.15-2.023v1.104V19.55h-1.725V3.453h1.748
		l6.967,11.222c0.346,0.552,0.943,1.61,1.15,2.023v-1.104V3.453h1.725V19.55H262.064z"/>
	<path fill="#99B5D4" d="M273.519,5.086V19.55h-1.793V5.086h-4.736V3.453h11.268v1.633H273.519z"/>
	<path fill="#99B5D4" d="M281.616,19.55V3.453h1.793V19.55H281.616z"/>
	<path fill="#99B5D4" d="M297.668,19.55l-7.036-11.015c-0.346-0.552-0.943-1.609-1.15-2.023v1.104V19.55h-1.725V3.453h1.748
		l6.967,11.222c0.346,0.552,0.943,1.61,1.15,2.023v-1.104V3.453h1.725V19.55H297.668z"/>
	<path fill="#99B5D4" d="M309.284,19.802c-3.841,0-5.818-2.322-5.818-6.783V3.453h1.793v9.52c0,3.472,1.334,5.197,4.117,5.197
		c2.782,0,3.886-1.678,3.886-5.151V3.453h1.794v9.52C315.056,17.434,313.147,19.802,309.284,19.802z"/>
	<path fill="#99B5D4" d="M329.546,19.55l-1.381-4.094h-6.645l-1.403,4.094h-1.839l5.588-16.097h1.977l5.588,16.097H329.546z
		 M325.843,8.535c-0.345-1.058-0.828-2.506-0.988-3.173c-0.161,0.644-0.621,2.093-1.012,3.219l-1.771,5.243h5.543L325.843,8.535z"/>
	<path fill="#99B5D4" d="M342.356,12.56l3.541,6.991h-2.068l-3.449-6.853h-3.818v6.853h-1.793V3.453h6.369
		c2.828,0,5.014,1.449,5.014,4.553C346.151,10.513,344.656,12.077,342.356,12.56z M341.069,5.086h-4.508v6.002h4.277
		c2.392,0,3.519-0.989,3.519-3.013C344.357,6.098,343.208,5.086,341.069,5.086z"/>
	<path fill="#99B5D4" d="M349.052,22.08v-1.402h2.781V4.856h-2.781V3.453h4.461V22.08H349.052z"/>
</g>
</svg>
