<?xml version="1.0" encoding="utf-8"?>
<!-- Generator: Adobe Illustrator 15.1.0, SVG Export Plug-In . SVG Version: 6.00 Build 0)  -->
<!DOCTYPE svg PUBLIC "-//W3C//DTD SVG 1.1//EN" "http://www.w3.org/Graphics/SVG/1.1/DTD/svg11.dtd">
<svg version="1.1" id="Layer_1" xmlns="http://www.w3.org/2000/svg" xmlns:xlink="http://www.w3.org/1999/xlink" x="0px" y="0px"
	 width="669.109px" height="134.579px" viewBox="0 0 669.109 134.579" enable-background="new 0 0 669.109 134.579"
	 xml:space="preserve">
<g>
	<path fill="#FFFFFF" d="M20.399,15.157H9.539v-7.68h31.079v7.68h-11.04v32.759h-9.179V15.157z"/>
	<path fill="#FFFFFF" d="M47.338,36.156c0.3,3.78,4.02,5.58,8.279,5.58c3.12,0,5.64-0.42,8.1-1.2l1.2,6.18
		c-3,1.2-6.66,1.8-10.62,1.8c-9.959,0-15.659-5.76-15.659-14.939c0-7.44,4.62-15.659,14.819-15.659
		c9.479,0,13.08,7.379,13.08,14.639c0,1.56-0.18,2.94-0.3,3.6H47.338z M58.078,29.916c0-2.22-0.96-5.939-5.16-5.939
		c-3.84,0-5.4,3.48-5.64,5.939H58.078z"/>
	<path fill="#FFFFFF" d="M71.999,28.236c0-4.32-0.12-7.14-0.24-9.66h7.86l0.3,5.4h0.24c1.5-4.26,5.1-6.06,7.92-6.06
		c0.84,0,1.26,0,1.92,0.12v8.58c-0.66-0.12-1.44-0.24-2.46-0.24c-3.36,0-5.64,1.8-6.24,4.62c-0.12,0.6-0.18,1.32-0.18,2.04v14.879
		h-9.12V28.236z"/>
	<path fill="#FFFFFF" d="M94.798,27.937c0-3.66-0.12-6.78-0.24-9.36h7.68l0.42,3.96h0.18c1.26-1.86,3.84-4.62,8.879-4.62
		c3.78,0,6.78,1.92,8.04,4.979h0.12c1.08-1.5,2.4-2.7,3.78-3.54c1.62-0.96,3.42-1.439,5.58-1.439c5.64,0,9.899,3.959,9.899,12.719
		v17.279h-8.88V31.956c0-4.26-1.38-6.72-4.319-6.72c-2.1,0-3.6,1.44-4.2,3.18c-0.24,0.66-0.36,1.62-0.36,2.34v17.159h-8.879V31.476
		c0-3.72-1.32-6.24-4.2-6.24c-2.34,0-3.72,1.8-4.26,3.3c-0.3,0.72-0.36,1.56-0.36,2.28v17.099h-8.88V27.937z"/>
	<path fill="#FFFFFF" d="M155.817,10.417c0,2.52-1.92,4.56-4.92,4.56c-2.88,0-4.8-2.04-4.74-4.56c-0.06-2.64,1.86-4.62,4.8-4.62
		S155.757,7.777,155.817,10.417z M146.397,47.916V18.577h9.12v29.339H146.397z"/>
	<path fill="#FFFFFF" d="M162.836,27.937c0-3.66-0.12-6.78-0.24-9.36h7.919l0.42,4.02h0.18c1.2-1.86,4.2-4.68,9.06-4.68
		c6,0,10.5,3.959,10.5,12.599v17.399h-9.12V31.656c0-3.78-1.32-6.36-4.62-6.36c-2.52,0-4.02,1.74-4.62,3.42
		c-0.24,0.54-0.36,1.44-0.36,2.28v16.919h-9.12V27.937z"/>
	<path fill="#FFFFFF" d="M214.676,47.916l-0.54-2.94h-0.18c-1.92,2.34-4.92,3.6-8.399,3.6c-5.94,0-9.48-4.32-9.48-9
		c0-7.62,6.84-11.279,17.219-11.219v-0.42c0-1.56-0.84-3.78-5.339-3.78c-3,0-6.18,1.02-8.1,2.22l-1.68-5.88
		c2.04-1.14,6.06-2.58,11.399-2.58c9.78,0,12.899,5.76,12.899,12.659v10.2c0,2.82,0.12,5.52,0.42,7.14H214.676z M213.596,34.056
		c-4.8-0.06-8.52,1.08-8.52,4.62c0,2.34,1.56,3.48,3.6,3.48c2.28,0,4.14-1.5,4.74-3.36c0.12-0.48,0.18-1.02,0.18-1.56V34.056z"/>
	<path fill="#FFFFFF" d="M229.676,5.317h9.12v42.598h-9.12V5.317z"/>
	<path fill="#FFFFFF" d="M286.734,5.317v33.838c0,3.3,0.12,6.78,0.24,8.76h-8.1l-0.42-4.32h-0.12c-1.86,3.3-5.4,4.98-9.18,4.98
		c-6.96,0-12.54-5.94-12.54-15.06c-0.06-9.899,6.12-15.599,13.14-15.599c3.6,0,6.419,1.26,7.739,3.3h0.12V5.317H286.734z
		 M277.615,30.996c0-0.48-0.06-1.14-0.12-1.62c-0.54-2.46-2.52-4.5-5.34-4.5c-4.14,0-6.299,3.72-6.299,8.34
		c0,4.979,2.459,8.1,6.24,8.1c2.64,0,4.74-1.8,5.28-4.38c0.18-0.66,0.24-1.32,0.24-2.1V30.996z"/>
	<path fill="#FFFFFF" d="M301.075,36.156c0.3,3.78,4.02,5.58,8.28,5.58c3.12,0,5.64-0.42,8.1-1.2l1.2,6.18
		c-3,1.2-6.66,1.8-10.62,1.8c-9.959,0-15.659-5.76-15.659-14.939c0-7.44,4.62-15.659,14.819-15.659
		c9.479,0,13.08,7.379,13.08,14.639c0,1.56-0.18,2.94-0.3,3.6H301.075z M311.814,29.916c0-2.22-0.96-5.939-5.16-5.939
		c-3.84,0-5.4,3.48-5.64,5.939H311.814z"/>
	<path fill="#FFFFFF" d="M337.855,28.417c0-3.84-0.12-7.14-0.24-9.84h7.92l0.42,4.08h0.119c2.16-3.12,5.521-4.74,9.78-4.74
		c6.419,0,12.179,5.58,12.179,14.939c0,10.68-6.779,15.72-13.318,15.72c-3.54,0-6.301-1.44-7.62-3.36h-0.12v14.579h-9.119V28.417z
		 M346.975,35.316c0,0.72,0.061,1.38,0.18,1.92c0.601,2.46,2.7,4.32,5.34,4.32c3.961,0,6.301-3.3,6.301-8.279
		c0-4.68-2.101-8.22-6.18-8.22c-2.58,0-4.86,1.92-5.461,4.62c-0.119,0.48-0.18,1.08-0.18,1.62V35.316z"/>
	<path fill="#FFFFFF" d="M380.934,36.156c0.301,3.78,4.02,5.58,8.279,5.58c3.121,0,5.641-0.42,8.101-1.2l1.2,6.18
		c-3,1.2-6.66,1.8-10.62,1.8c-9.96,0-15.659-5.76-15.659-14.939c0-7.44,4.619-15.659,14.819-15.659
		c9.479,0,13.079,7.379,13.079,14.639c0,1.56-0.18,2.94-0.3,3.6H380.934z M391.674,29.916c0-2.22-0.961-5.939-5.16-5.939
		c-3.84,0-5.4,3.48-5.64,5.939H391.674z"/>
	<path fill="#FFFFFF" d="M415.793,10.177v8.399h6.541v6.72h-6.541v10.62c0,3.54,0.84,5.16,3.601,5.16c1.14,0,2.04-0.12,2.7-0.24
		l0.06,6.899c-1.2,0.48-3.36,0.78-5.94,0.78c-2.939,0-5.398-1.02-6.84-2.52c-1.68-1.74-2.52-4.56-2.52-8.7v-12h-3.899v-6.72h3.899
		v-6.36L415.793,10.177z"/>
	<path fill="#FFFFFF" d="M427.613,28.236c0-4.32-0.119-7.14-0.24-9.66h7.859l0.301,5.4h0.24c1.5-4.26,5.1-6.06,7.92-6.06
		c0.84,0,1.26,0,1.92,0.12v8.58c-0.66-0.12-1.44-0.24-2.461-0.24c-3.359,0-5.639,1.8-6.239,4.62c-0.12,0.6-0.181,1.32-0.181,2.04
		v14.879h-9.119V28.236z"/>
	<path fill="#FFFFFF" d="M478.912,32.916c0,10.74-7.62,15.66-15.48,15.66c-8.579,0-15.179-5.64-15.179-15.12
		s6.239-15.539,15.659-15.539C472.912,17.917,478.912,24.097,478.912,32.916z M457.672,33.216c0,5.04,2.101,8.819,6,8.819
		c3.54,0,5.82-3.54,5.82-8.819c0-4.38-1.68-8.82-5.82-8.82C459.293,24.396,457.672,28.896,457.672,33.216z"/>
	<path fill="#FFFFFF" d="M484.553,5.317h9.119v42.598h-9.119V5.317z"/>
	<path fill="#FFFFFF" d="M501.053,47.916V18.577h9.119v29.339H501.053z M515.332,5.797l-7.32,9.12h-6.299l5.159-9.12H515.332z"/>
	<path fill="#FFFFFF" d="M518.512,47.916V25.296h-3.84v-6.72h3.84v-1.14c0-3.54,1.08-7.439,3.719-9.839
		c2.281-2.16,5.461-2.94,8.101-2.94c2.04,0,3.6,0.24,4.86,0.6l-0.361,7.02c-0.779-0.24-1.739-0.42-2.939-0.42
		c-3,0-4.26,2.34-4.26,5.22v1.5h5.88v6.72h-5.819v22.619H518.512z"/>
	<path fill="#FFFFFF" d="M544.371,36.156c0.3,3.78,4.02,5.58,8.279,5.58c3.12,0,5.641-0.42,8.1-1.2l1.2,6.18
		c-3,1.2-6.659,1.8-10.62,1.8c-9.959,0-15.658-5.76-15.658-14.939c0-7.44,4.619-15.659,14.818-15.659
		c9.48,0,13.08,7.379,13.08,14.639c0,1.56-0.18,2.94-0.301,3.6H544.371z M555.11,29.916c0-2.22-0.96-5.939-5.159-5.939
		c-3.84,0-5.4,3.48-5.641,5.939H555.11z"/>
	<path fill="#FFFFFF" d="M569.031,28.236c0-4.32-0.119-7.14-0.24-9.66h7.859l0.301,5.4h0.24c1.5-4.26,5.1-6.06,7.92-6.06
		c0.84,0,1.26,0,1.92,0.12v8.58c-0.66-0.12-1.44-0.24-2.461-0.24c-3.359,0-5.639,1.8-6.239,4.62c-0.12,0.6-0.181,1.32-0.181,2.04
		v14.879h-9.119V28.236z"/>
	<path fill="#FFFFFF" d="M620.33,32.916c0,10.74-7.62,15.66-15.48,15.66c-8.579,0-15.179-5.64-15.179-15.12
		s6.239-15.539,15.659-15.539C614.33,17.917,620.33,24.097,620.33,32.916z M599.09,33.216c0,5.04,2.101,8.819,6,8.819
		c3.54,0,5.82-3.54,5.82-8.819c0-4.38-1.68-8.82-5.82-8.82C600.711,24.396,599.09,28.896,599.09,33.216z"/>
	<path fill="#FFFFFF" d="M625.91,39.936c1.68,1.02,5.16,2.22,7.859,2.22c2.76,0,3.9-0.96,3.9-2.46s-0.9-2.22-4.32-3.36
		c-6.059-2.04-8.398-5.34-8.34-8.819c0-5.46,4.681-9.6,11.939-9.6c3.42,0,6.48,0.78,8.28,1.68l-1.62,6.3
		c-1.32-0.72-3.84-1.68-6.359-1.68c-2.221,0-3.48,0.9-3.48,2.4c0,1.38,1.141,2.1,4.74,3.36c5.58,1.92,7.92,4.74,7.98,9.06
		c0,5.459-4.32,9.479-12.721,9.479c-3.84,0-7.26-0.84-9.479-2.04L625.91,39.936z"/>
	<path fill="#FFFFFF" d="M211.014,77.317v33.839c0,3.3,0.12,6.78,0.24,8.76h-8.1l-0.42-4.319h-0.12
		c-1.86,3.299-5.4,4.979-9.18,4.979c-6.96,0-12.54-5.94-12.54-15.06c-0.06-9.899,6.12-15.6,13.139-15.6c3.6,0,6.42,1.26,7.74,3.301
		h0.12v-15.9H211.014z M201.895,102.997c0-0.48-0.06-1.141-0.12-1.62c-0.54-2.46-2.52-4.5-5.339-4.5c-4.14,0-6.3,3.72-6.3,8.34
		c0,4.979,2.46,8.1,6.24,8.1c2.64,0,4.74-1.8,5.28-4.38c0.18-0.66,0.24-1.32,0.24-2.1V102.997z"/>
	<path fill="#FFFFFF" d="M225.355,108.157c0.3,3.779,4.02,5.579,8.279,5.579c3.12,0,5.64-0.42,8.1-1.2l1.2,6.18
		c-3,1.2-6.66,1.801-10.62,1.801c-9.959,0-15.659-5.76-15.659-14.939c0-7.44,4.62-15.66,14.819-15.66
		c9.479,0,13.08,7.38,13.08,14.64c0,1.56-0.18,2.94-0.3,3.601H225.355z M236.094,101.917c0-2.221-0.96-5.939-5.16-5.939
		c-3.84,0-5.4,3.479-5.64,5.939H236.094z"/>
	<path fill="#FFFFFF" d="M269.755,119.916l-12.959-40.438h10.02l4.92,17.1c1.38,4.8,2.64,9.42,3.6,14.459h0.18
		c1.02-4.859,2.28-9.659,3.66-14.279l5.16-17.279h9.719l-13.619,40.438H269.755z"/>
	<path fill="#FFFFFF" d="M302.575,108.157c0.3,3.779,4.02,5.579,8.279,5.579c3.12,0,5.64-0.42,8.1-1.2l1.2,6.18
		c-3,1.2-6.66,1.801-10.62,1.801c-9.959,0-15.659-5.76-15.659-14.939c0-7.44,4.62-15.66,14.819-15.66
		c9.479,0,13.08,7.38,13.08,14.64c0,1.56-0.18,2.94-0.3,3.601H302.575z M313.314,101.917c0-2.221-0.96-5.939-5.16-5.939
		c-3.84,0-5.4,3.479-5.64,5.939H313.314z"/>
	<path fill="#FFFFFF" d="M327.235,100.237c0-4.32-0.12-7.141-0.24-9.66h7.86l0.299,5.4h0.24c1.5-4.26,5.1-6.061,7.92-6.061
		c0.84,0,1.26,0,1.92,0.12v8.579c-0.66-0.119-1.439-0.239-2.46-0.239c-3.36,0-5.64,1.8-6.239,4.62
		c-0.121,0.6-0.181,1.32-0.181,2.039v14.88h-9.12V100.237z"/>
	<path fill="#FFFFFF" d="M366.055,119.916l-0.54-2.94h-0.181c-1.92,2.34-4.92,3.601-8.398,3.601c-5.94,0-9.48-4.319-9.48-9
		c0-7.62,6.84-11.279,17.219-11.22v-0.42c0-1.56-0.84-3.779-5.339-3.779c-3,0-6.181,1.02-8.101,2.22l-1.68-5.88
		c2.041-1.141,6.061-2.58,11.4-2.58c9.779,0,12.898,5.76,12.898,12.66v10.199c0,2.82,0.121,5.52,0.42,7.14H366.055z
		 M364.975,106.056c-4.8-0.06-8.52,1.08-8.52,4.62c0,2.34,1.56,3.479,3.6,3.479c2.279,0,4.141-1.5,4.74-3.36
		c0.119-0.479,0.18-1.02,0.18-1.56V106.056z"/>
	<path fill="#FFFFFF" d="M403.074,119.196c-1.619,0.72-4.68,1.32-8.16,1.32c-9.479,0-15.539-5.76-15.539-15
		c0-8.58,5.881-15.6,16.8-15.6c2.399,0,5.04,0.42,6.96,1.141l-1.44,6.779c-1.079-0.48-2.7-0.9-5.1-0.9c-4.8,0-7.919,3.42-7.86,8.221
		c0,5.398,3.601,8.219,8.041,8.219c2.159,0,3.84-0.359,5.219-0.9L403.074,119.196z"/>
	<path fill="#FFFFFF" d="M408.114,100.237c0-4.32-0.12-7.141-0.239-9.66h7.859l0.3,5.4h0.239c1.5-4.26,5.101-6.061,7.92-6.061
		c0.84,0,1.26,0,1.92,0.12v8.579c-0.66-0.119-1.439-0.239-2.459-0.239c-3.36,0-5.641,1.8-6.24,4.62c-0.12,0.6-0.18,1.32-0.18,2.039
		v14.88h-9.12V100.237z"/>
	<path fill="#FFFFFF" d="M458.394,110.497c0,3.84,0.12,6.959,0.239,9.419h-7.919l-0.42-4.14h-0.181c-1.14,1.8-3.899,4.8-9.18,4.8
		c-5.939,0-10.318-3.72-10.318-12.78V90.577h9.18v15.779c0,4.26,1.379,6.84,4.559,6.84c2.521,0,3.961-1.74,4.561-3.18
		c0.24-0.54,0.3-1.26,0.3-1.98V90.577h9.18V110.497z"/>
	<path fill="#FFFFFF" d="M463.374,114.696l9.239-11.58c1.68-1.979,3-3.42,4.68-5.219v-0.121h-12.898v-7.199h23.998v5.46l-8.818,11.1
		c-1.621,1.92-3.121,3.78-4.801,5.399v0.12h14.1v7.26h-25.499V114.696z"/>
</g>
</svg>
