<?xml version="1.0" encoding="utf-8"?>
<!-- Generator: Adobe Illustrator 15.1.0, SVG Export Plug-In . SVG Version: 6.00 Build 0)  -->
<!DOCTYPE svg PUBLIC "-//W3C//DTD SVG 1.1//EN" "http://www.w3.org/Graphics/SVG/1.1/DTD/svg11.dtd">
<svg version="1.1" id="Layer_1" xmlns="http://www.w3.org/2000/svg" xmlns:xlink="http://www.w3.org/1999/xlink" x="0px" y="0px"
	 width="429.441px" height="152.574px" viewBox="0 0 429.441 152.574" enable-background="new 0 0 429.441 152.574"
	 xml:space="preserve">
<rect x="3.32" y="2.389" fill="none" width="422.43" height="149.185"/>
<g enable-background="new    ">
	<path fill="#FFFFFF" d="M58.115,5.188v17.612h-2.184V5.188h-5.768V3.201h13.72v1.987H58.115z"/>
	<path fill="#FFFFFF" d="M78.695,16.165h-9.8c0.196,3.136,1.68,5.124,4.088,5.124c1.708,0,2.716-0.504,4.06-1.4l0.98,1.512
		c-1.764,1.12-3.052,1.708-5.264,1.708c-2.688,0-5.964-1.96-5.964-7.728c0-4.676,2.576-7.588,6.076-7.588
		c3.836,0,5.908,3.023,5.908,7.224C78.779,15.521,78.751,15.829,78.695,16.165z M72.843,9.613c-2.184,0-3.696,1.567-3.948,4.844
		h7.924C76.651,11.601,75.419,9.613,72.843,9.613z"/>
	<path fill="#FFFFFF" d="M90.203,10.285c-0.588-0.336-1.232-0.561-2.212-0.561c-2.044,0-3.192,1.652-3.192,4.452v8.624h-2.1v-14.7
		h2.1v1.82c0.672-1.176,2.072-2.128,3.64-2.128c1.092,0,1.792,0.14,2.296,0.364L90.203,10.285z"/>
	<path fill="#FFFFFF" d="M111.175,22.801v-8.596c0-3.36-1.036-4.592-3.164-4.592c-1.988,0-3.276,1.344-3.276,4.592v8.596h-2.1
		v-8.596c0-3.36-1.12-4.592-3.164-4.592c-2.016,0-3.276,1.344-3.276,4.592v8.596h-2.1v-14.7h2.1v1.792
		c0.756-1.26,1.988-2.1,3.724-2.1c2.072,0,3.332,1.12,4.032,2.52c0.868-1.399,2.072-2.52,4.452-2.52
		c2.996,0,4.872,1.764,4.872,6.048v8.96H111.175z"/>
	<path fill="#FFFFFF" d="M119.071,5.469c-0.868,0-1.54-0.672-1.54-1.484c0-0.84,0.672-1.512,1.54-1.512
		c0.784,0,1.456,0.672,1.456,1.512C120.527,4.797,119.855,5.469,119.071,5.469z M117.979,22.801v-14.7h2.1v14.7H117.979z"/>
	<path fill="#FFFFFF" d="M134.078,22.801v-8.596c0-3.164-1.12-4.592-3.472-4.592c-2.044,0-3.64,1.371-3.64,4.592v8.596h-2.1v-14.7
		h2.1v1.792c0.84-1.231,2.212-2.1,4.06-2.1c3.108,0,5.152,1.82,5.152,6.048v8.96H134.078z"/>
	<path fill="#FFFFFF" d="M149.17,22.801v-1.792c-1.036,1.12-2.492,2.1-4.592,2.1c-2.296,0-4.704-1.147-4.704-4.703
		c0-3.305,2.716-4.704,5.628-4.704c1.484,0,2.8,0.363,3.668,0.84v-1.736c0-2.184-1.036-3.248-3.192-3.248
		c-1.54,0-2.8,0.42-4.004,1.12l-0.784-1.708c1.288-0.7,3.024-1.176,4.928-1.176c3.164,0,5.152,1.344,5.152,4.76v10.248H149.17z
		 M149.17,16.221c-0.952-0.532-1.988-0.84-3.78-0.84c-2.156,0-3.444,1.036-3.444,2.884c0,2.185,1.204,3.136,2.996,3.136
		c1.904,0,3.332-0.979,4.228-2.212V16.221z"/>
	<path fill="#FFFFFF" d="M155.973,22.801V3.564l2.1-1.176v20.412H155.973z"/>
	<path fill="#FFFFFF" d="M187.221,22.801v-8.596c0-3.36-1.036-4.592-3.164-4.592c-1.988,0-3.276,1.344-3.276,4.592v8.596h-2.1
		v-8.596c0-3.36-1.12-4.592-3.164-4.592c-2.016,0-3.276,1.344-3.276,4.592v8.596h-2.1v-14.7h2.1v1.792
		c0.756-1.26,1.988-2.1,3.724-2.1c2.072,0,3.332,1.12,4.032,2.52c0.868-1.399,2.072-2.52,4.452-2.52
		c2.996,0,4.872,1.764,4.872,6.048v8.96H187.221z"/>
	<path fill="#FFFFFF" d="M202.313,22.801v-1.792c-1.036,1.12-2.492,2.1-4.592,2.1c-2.296,0-4.704-1.147-4.704-4.703
		c0-3.305,2.716-4.704,5.628-4.704c1.484,0,2.8,0.363,3.668,0.84v-1.736c0-2.184-1.036-3.248-3.192-3.248
		c-1.54,0-2.8,0.42-4.004,1.12l-0.784-1.708c1.288-0.7,3.024-1.176,4.928-1.176c3.164,0,5.152,1.344,5.152,4.76v10.248H202.313z
		 M202.313,16.221c-0.952-0.532-1.988-0.84-3.78-0.84c-2.156,0-3.444,1.036-3.444,2.884c0,2.185,1.204,3.136,2.996,3.136
		c1.904,0,3.332-0.979,4.228-2.212V16.221z"/>
	<path fill="#FFFFFF" d="M216.48,10.285c-0.588-0.336-1.231-0.561-2.211-0.561c-2.044,0-3.192,1.652-3.192,4.452v8.624h-2.1v-14.7
		h2.1v1.82c0.672-1.176,2.072-2.128,3.64-2.128c1.092,0,1.792,0.14,2.296,0.364L216.48,10.285z"/>
	<path fill="#FFFFFF" d="M221.605,5.469c-0.869,0-1.541-0.672-1.541-1.484c0-0.84,0.672-1.512,1.541-1.512
		c0.783,0,1.455,0.672,1.455,1.512C223.06,4.797,222.388,5.469,221.605,5.469z M220.512,22.801v-14.7h2.101v14.7H220.512z"/>
	<path fill="#FFFFFF" d="M236.613,22.801v-8.596c0-3.164-1.121-4.592-3.473-4.592c-2.044,0-3.641,1.371-3.641,4.592v8.596h-2.1
		v-14.7h2.1v1.792c0.841-1.231,2.213-2.1,4.061-2.1c3.107,0,5.152,1.82,5.152,6.048v8.96H236.613z"/>
	<path fill="#FFFFFF" d="M251.704,22.801v-1.792c-1.036,1.12-2.492,2.1-4.592,2.1c-2.296,0-4.704-1.147-4.704-4.703
		c0-3.305,2.716-4.704,5.628-4.704c1.483,0,2.8,0.363,3.668,0.84v-1.736c0-2.184-1.036-3.248-3.192-3.248
		c-1.539,0-2.8,0.42-4.004,1.12l-0.783-1.708c1.287-0.7,3.023-1.176,4.928-1.176c3.164,0,5.152,1.344,5.152,4.76v10.248H251.704z
		 M251.704,16.221c-0.952-0.532-1.987-0.84-3.78-0.84c-2.156,0-3.443,1.036-3.443,2.884c0,2.185,1.203,3.136,2.996,3.136
		c1.903,0,3.332-0.979,4.228-2.212V16.221z"/>
	<path fill="#FFFFFF" d="M274.552,22.801v-1.792c-1.036,1.12-2.437,2.1-4.424,2.1c-2.94,0-5.265-2.239-5.265-7.42
		c0-5.208,2.465-7.896,5.545-7.896c1.848,0,3.107,0.784,4.144,1.96V3.564l2.101-1.176v20.412H274.552z M274.552,11.825
		c-0.812-1.232-2.24-2.212-3.976-2.212c-2.437,0-3.641,2.1-3.641,6.048c0,3.695,1.4,5.628,3.725,5.628
		c1.567,0,2.855-0.84,3.892-2.128V11.825z"/>
	<path fill="#FFFFFF" d="M292.416,16.165h-9.801c0.196,3.136,1.68,5.124,4.088,5.124c1.709,0,2.717-0.504,4.061-1.4l0.98,1.512
		c-1.765,1.12-3.053,1.708-5.265,1.708c-2.688,0-5.964-1.96-5.964-7.728c0-4.676,2.576-7.588,6.076-7.588
		c3.836,0,5.908,3.023,5.908,7.224C292.5,15.521,292.471,15.829,292.416,16.165z M286.563,9.613c-2.185,0-3.696,1.567-3.948,4.844
		h7.924C290.371,11.601,289.139,9.613,286.563,9.613z"/>
	<path fill="#FFFFFF" d="M311.203,10.285c-0.588-0.336-1.232-0.561-2.213-0.561c-2.043,0-3.191,1.652-3.191,4.452v8.624h-2.1v-14.7
		h2.1v1.82c0.672-1.176,2.072-2.128,3.641-2.128c1.092,0,1.791,0.14,2.295,0.364L311.203,10.285z"/>
	<path fill="#FFFFFF" d="M326.211,16.165h-9.8c0.196,3.136,1.68,5.124,4.088,5.124c1.708,0,2.716-0.504,4.06-1.4l0.98,1.512
		c-1.764,1.12-3.053,1.708-5.264,1.708c-2.688,0-5.965-1.96-5.965-7.728c0-4.676,2.576-7.588,6.076-7.588
		c3.836,0,5.908,3.023,5.908,7.224C326.295,15.521,326.267,15.829,326.211,16.165z M320.359,9.613c-2.185,0-3.696,1.567-3.948,4.844
		h7.924C324.167,11.601,322.935,9.613,320.359,9.613z"/>
	<path fill="#FFFFFF" d="M339.146,11.097c-1.063-0.952-2.043-1.483-3.527-1.483c-2.296,0-4.061,2.071-4.061,5.739
		c0,3.612,1.541,5.937,4.145,5.937c1.428,0,2.38-0.588,3.389-1.568l1.26,1.344c-1.232,1.261-2.66,2.044-4.732,2.044
		c-3.221,0-6.188-2.464-6.188-7.588c0-5.432,3.248-7.728,6.328-7.728c1.987,0,3.5,0.728,4.647,1.736L339.146,11.097z"/>
	<path fill="#FFFFFF" d="M345.306,5.469c-0.868,0-1.54-0.672-1.54-1.484c0-0.84,0.672-1.512,1.54-1.512
		c0.783,0,1.456,0.672,1.456,1.512C346.762,4.797,346.09,5.469,345.306,5.469z M344.215,22.801v-14.7h2.1v14.7H344.215z"/>
	<path fill="#FFFFFF" d="M357.345,23.108c-1.848,0-3.107-0.783-4.144-1.96v1.652h-2.1V3.564l2.1-1.176v7.504
		c1.036-1.12,2.437-2.1,4.425-2.1c2.939,0,5.264,2.24,5.264,7.42C362.89,20.421,360.426,23.108,357.345,23.108z M357.094,9.613
		c-1.567,0-2.855,0.84-3.892,2.128v7.336c0.812,1.231,2.24,2.212,3.976,2.212c2.437,0,3.641-2.101,3.641-6.048
		C360.818,11.545,359.418,9.613,357.094,9.613z"/>
	<path fill="#FFFFFF" d="M372.299,23.108c-3.584,0-6.328-2.659-6.328-7.644s2.855-7.672,6.439-7.672s6.328,2.576,6.328,7.56
		C378.738,20.337,375.883,23.108,372.299,23.108z M372.353,9.613c-2.547,0-4.256,1.932-4.256,5.796c0,3.863,1.709,5.88,4.256,5.88
		c2.549,0,4.285-2.017,4.285-5.88C376.638,11.545,374.902,9.613,372.353,9.613z"/>
</g>
<g enable-background="new    ">
	<path fill="#FFFFFF" d="M29.765,61.58h-2.1l2.016-5.348L24.446,41.7h2.212l3.584,10.668l0.504,1.513l0.504-1.484L34.862,41.7h2.212
		L29.765,61.58z"/>
	<path fill="#FFFFFF" d="M58.913,49.765h-9.8c0.196,3.136,1.68,5.124,4.088,5.124c1.708,0,2.716-0.504,4.06-1.4L58.241,55
		c-1.764,1.12-3.052,1.708-5.264,1.708c-2.688,0-5.964-1.96-5.964-7.728c0-4.676,2.576-7.588,6.076-7.588
		c3.836,0,5.908,3.023,5.908,7.224C58.997,49.12,58.969,49.429,58.913,49.765z M53.061,43.213c-2.184,0-3.696,1.567-3.948,4.844
		h7.924C56.869,45.2,55.637,43.213,53.061,43.213z"/>
	<path fill="#FFFFFF" d="M72.129,56.4v-8.596c0-3.164-1.12-4.592-3.472-4.592c-2.044,0-3.64,1.371-3.64,4.592V56.4h-2.1V41.7h2.1
		v1.792c0.84-1.231,2.212-2.1,4.06-2.1c3.108,0,5.152,1.82,5.152,6.048v8.96H72.129z"/>
	<path fill="#FFFFFF" d="M81.481,43.465v9.575c0,1.316,0.364,1.765,1.484,1.765c0.84,0,1.4-0.141,2.072-0.42l-0.14,1.819
		c-0.812,0.336-1.596,0.504-2.716,0.504c-1.82,0-2.8-0.896-2.8-3.332v-9.911h-1.82V41.7h1.82v-4.536l2.1-1.176V41.7h3.64v1.765
		H81.481z"/>
	<path fill="#FFFFFF" d="M96.712,43.885c-0.588-0.336-1.232-0.561-2.212-0.561c-2.044,0-3.192,1.652-3.192,4.452V56.4h-2.1V41.7h2.1
		v1.82c0.672-1.176,2.072-2.128,3.64-2.128c1.092,0,1.792,0.14,2.296,0.364L96.712,43.885z"/>
	<path fill="#FFFFFF" d="M111.72,49.765h-9.8c0.196,3.136,1.68,5.124,4.088,5.124c1.708,0,2.716-0.504,4.06-1.4l0.98,1.512
		c-1.764,1.12-3.052,1.708-5.264,1.708c-2.688,0-5.964-1.96-5.964-7.728c0-4.676,2.576-7.588,6.076-7.588
		c3.836,0,5.908,3.023,5.908,7.224C111.804,49.12,111.776,49.429,111.72,49.765z M105.868,43.213c-2.184,0-3.696,1.567-3.948,4.844
		h7.924C109.676,45.2,108.444,43.213,105.868,43.213z"/>
	<path fill="#FFFFFF" d="M119.28,61.805l-0.672-1.597c4.9-0.14,6.02-1.428,6.02-4.844v-0.756c-1.036,1.12-2.436,2.1-4.424,2.1
		c-2.94,0-5.264-2.239-5.264-7.42c0-5.208,2.464-7.896,5.544-7.896c1.848,0,3.108,0.784,4.144,1.96V41.7h2.1v13.384
		C126.728,59.509,124.74,61.637,119.28,61.805z M124.628,45.425c-0.812-1.232-2.24-2.212-3.976-2.212c-2.436,0-3.64,2.1-3.64,6.048
		c0,3.695,1.4,5.628,3.724,5.628c1.568,0,2.856-0.84,3.892-2.128V45.425z"/>
	<path fill="#FFFFFF" d="M139.804,56.4v-1.792c-1.036,1.12-2.492,2.1-4.592,2.1c-2.296,0-4.704-1.147-4.704-4.703
		c0-3.305,2.716-4.704,5.628-4.704c1.484,0,2.8,0.363,3.668,0.84v-1.736c0-2.184-1.036-3.248-3.192-3.248
		c-1.54,0-2.8,0.42-4.004,1.12l-0.784-1.708c1.288-0.7,3.024-1.176,4.928-1.176c3.164,0,5.152,1.344,5.152,4.76V56.4H139.804z
		 M139.804,49.82c-0.952-0.532-1.988-0.84-3.78-0.84c-2.156,0-3.444,1.036-3.444,2.884c0,2.185,1.204,3.136,2.996,3.136
		c1.904,0,3.332-0.979,4.228-2.212V49.82z"/>
	<path fill="#FFFFFF" d="M162.651,56.4v-1.792c-1.036,1.12-2.436,2.1-4.424,2.1c-2.94,0-5.264-2.239-5.264-7.42
		c0-5.208,2.464-7.896,5.544-7.896c1.848,0,3.108,0.784,4.144,1.96v-6.188l2.1-1.176V56.4H162.651z M162.651,45.425
		c-0.812-1.232-2.24-2.212-3.976-2.212c-2.436,0-3.64,2.1-3.64,6.048c0,3.695,1.4,5.628,3.724,5.628c1.568,0,2.856-0.84,3.892-2.128
		V45.425z"/>
	<path fill="#FFFFFF" d="M180.515,49.765h-9.8c0.196,3.136,1.68,5.124,4.088,5.124c1.708,0,2.716-0.504,4.06-1.4l0.98,1.512
		c-1.764,1.12-3.052,1.708-5.264,1.708c-2.688,0-5.964-1.96-5.964-7.728c0-4.676,2.576-7.588,6.076-7.588
		c3.836,0,5.908,3.023,5.908,7.224C180.599,49.12,180.571,49.429,180.515,49.765z M174.663,43.213c-2.184,0-3.696,1.567-3.948,4.844
		h7.924C178.471,45.2,177.239,43.213,174.663,43.213z"/>
	<path fill="#FFFFFF" d="M201.011,56.4v-8.596c0-3.164-1.12-4.592-3.472-4.592c-2.044,0-3.64,1.371-3.64,4.592V56.4h-2.1V37.164
		l2.1-1.176v7.504c0.84-1.231,2.212-2.1,4.06-2.1c3.108,0,5.152,1.82,5.152,6.048v8.96H201.011z"/>
	<path fill="#FFFFFF" d="M208.906,39.068c-0.868,0-1.54-0.672-1.54-1.484c0-0.84,0.672-1.512,1.54-1.512
		c0.784,0,1.456,0.672,1.456,1.512C210.363,38.396,209.69,39.068,208.906,39.068z M207.814,56.4V41.7h2.1v14.7H207.814z"/>
	<path fill="#FFFFFF" d="M223.606,56.4v-1.792c-1.036,1.12-2.437,2.1-4.424,2.1c-2.94,0-5.264-2.239-5.264-7.42
		c0-5.208,2.464-7.896,5.544-7.896c1.848,0,3.107,0.784,4.144,1.96v-6.188l2.101-1.176V56.4H223.606z M223.606,45.425
		c-0.812-1.232-2.24-2.212-3.976-2.212c-2.437,0-3.641,2.1-3.641,6.048c0,3.695,1.4,5.628,3.725,5.628
		c1.567,0,2.855-0.84,3.892-2.128V45.425z"/>
	<path fill="#FFFFFF" d="M237.857,43.885c-0.588-0.336-1.231-0.561-2.211-0.561c-2.045,0-3.193,1.652-3.193,4.452V56.4h-2.1V41.7
		h2.1v1.82c0.673-1.176,2.072-2.128,3.641-2.128c1.092,0,1.792,0.14,2.296,0.364L237.857,43.885z"/>
	<path fill="#FFFFFF" d="M247.294,56.708c-3.584,0-6.328-2.659-6.328-7.644s2.856-7.672,6.44-7.672s6.328,2.576,6.328,7.56
		C253.734,53.937,250.878,56.708,247.294,56.708z M247.349,43.213c-2.548,0-4.256,1.932-4.256,5.796c0,3.863,1.708,5.88,4.256,5.88
		c2.549,0,4.284-2.017,4.284-5.88C251.634,45.145,249.898,43.213,247.349,43.213z"/>
	<path fill="#FFFFFF" d="M266.529,44.696c-1.063-0.952-2.043-1.483-3.527-1.483c-2.296,0-4.061,2.071-4.061,5.739
		c0,3.612,1.541,5.937,4.145,5.937c1.428,0,2.38-0.588,3.389-1.568l1.26,1.344c-1.232,1.261-2.66,2.044-4.732,2.044
		c-3.221,0-6.188-2.464-6.188-7.588c0-5.432,3.248-7.728,6.328-7.728c1.987,0,3.5,0.728,4.647,1.736L266.529,44.696z"/>
	<path fill="#FFFFFF" d="M279.885,56.4v-1.792c-1.036,1.12-2.492,2.1-4.592,2.1c-2.296,0-4.704-1.147-4.704-4.703
		c0-3.305,2.716-4.704,5.628-4.704c1.483,0,2.8,0.363,3.668,0.84v-1.736c0-2.184-1.036-3.248-3.192-3.248
		c-1.539,0-2.8,0.42-4.004,1.12l-0.783-1.708c1.287-0.7,3.023-1.176,4.928-1.176c3.164,0,5.152,1.344,5.152,4.76V56.4H279.885z
		 M279.885,49.82c-0.952-0.532-1.987-0.84-3.78-0.84c-2.156,0-3.443,1.036-3.443,2.884c0,2.185,1.203,3.136,2.996,3.136
		c1.903,0,3.332-0.979,4.228-2.212V49.82z"/>
	<path fill="#FFFFFF" d="M294.052,43.885c-0.588-0.336-1.231-0.561-2.211-0.561c-2.045,0-3.193,1.652-3.193,4.452V56.4h-2.1V41.7
		h2.1v1.82c0.673-1.176,2.072-2.128,3.641-2.128c1.092,0,1.792,0.14,2.296,0.364L294.052,43.885z"/>
	<path fill="#FFFFFF" d="M304.189,56.708c-1.848,0-3.108-0.783-4.145-1.96V56.4h-2.1V37.164l2.1-1.176v7.504
		c1.036-1.12,2.436-2.1,4.424-2.1c2.94,0,5.264,2.24,5.264,7.42C309.732,54.021,307.269,56.708,304.189,56.708z M303.937,43.213
		c-1.568,0-2.856,0.84-3.893,2.128v7.336c0.812,1.231,2.24,2.212,3.977,2.212c2.436,0,3.64-2.101,3.64-6.048
		C307.661,45.145,306.261,43.213,303.937,43.213z"/>
	<path fill="#FFFFFF" d="M322.724,56.4v-1.792c-0.84,1.232-2.212,2.1-4.06,2.1c-3.108,0-5.151-1.819-5.151-6.048V41.7h2.1v8.597
		c0,3.163,1.119,4.592,3.472,4.592c2.044,0,3.64-1.372,3.64-4.592V41.7h2.1v14.7H322.724z"/>
	<path fill="#FFFFFF" d="M336.976,43.885c-0.588-0.336-1.232-0.561-2.213-0.561c-2.043,0-3.191,1.652-3.191,4.452V56.4h-2.1V41.7
		h2.1v1.82c0.672-1.176,2.072-2.128,3.641-2.128c1.092,0,1.791,0.14,2.295,0.364L336.976,43.885z"/>
	<path fill="#FFFFFF" d="M346.412,56.708c-3.584,0-6.328-2.659-6.328-7.644s2.856-7.672,6.44-7.672s6.328,2.576,6.328,7.56
		C352.852,53.937,349.996,56.708,346.412,56.708z M346.469,43.213c-2.549,0-4.256,1.932-4.256,5.796c0,3.863,1.707,5.88,4.256,5.88
		c2.548,0,4.283-2.017,4.283-5.88C350.752,45.145,349.016,43.213,346.469,43.213z"/>
	<path fill="#FFFFFF" d="M360.775,56.708c-2.016,0-3.779-0.756-5.18-1.876l1.232-1.54c1.176,1.036,2.548,1.624,4.004,1.624
		c2.016,0,2.969-0.84,2.969-2.268c0-1.204-0.869-1.876-3.473-2.996c-2.939-1.26-4.172-2.156-4.172-4.508
		c0-2.24,1.932-3.752,4.592-3.752c2.016,0,3.584,0.644,4.704,1.568l-1.177,1.539c-1.147-0.896-2.1-1.315-3.668-1.315
		c-1.539,0-2.436,0.756-2.436,1.82c0,1.231,0.756,1.735,3.248,2.855c2.771,1.26,4.396,2.072,4.396,4.704
		C365.816,55.448,363.324,56.708,360.775,56.708z"/>
	<path fill="#FFFFFF" d="M388.187,49.765h-9.799c0.195,3.136,1.68,5.124,4.088,5.124c1.707,0,2.715-0.504,4.06-1.4L387.515,55
		c-1.764,1.12-3.052,1.708-5.264,1.708c-2.688,0-5.964-1.96-5.964-7.728c0-4.676,2.576-7.588,6.075-7.588
		c3.837,0,5.908,3.023,5.908,7.224C388.271,49.12,388.244,49.429,388.187,49.765z M382.336,43.213c-2.184,0-3.695,1.567-3.947,4.844
		h7.924C386.144,45.2,384.912,43.213,382.336,43.213z"/>
	<path fill="#FFFFFF" d="M401.404,56.4v-8.596c0-3.164-1.121-4.592-3.473-4.592c-2.044,0-3.641,1.371-3.641,4.592V56.4h-2.1V41.7
		h2.1v1.792c0.841-1.231,2.213-2.1,4.061-2.1c3.107,0,5.152,1.82,5.152,6.048v8.96H401.404z"/>
</g>
<g enable-background="new    ">
	<path fill="#FFFFFF" d="M48.526,83.363h-9.8c0.196,3.136,1.68,5.124,4.088,5.124c1.708,0,2.716-0.504,4.06-1.4l0.98,1.512
		c-1.764,1.12-3.052,1.708-5.264,1.708c-2.688,0-5.964-1.96-5.964-7.728c0-4.676,2.576-7.588,6.076-7.588
		c3.836,0,5.908,3.023,5.908,7.224C48.61,82.719,48.582,83.027,48.526,83.363z M42.674,76.812c-2.184,0-3.696,1.567-3.948,4.844
		h7.924C46.482,78.799,45.25,76.812,42.674,76.812z"/>
	<path fill="#FFFFFF" d="M52.669,89.999V70.763l2.1-1.176v20.412H52.669z"/>
	<path fill="#FFFFFF" d="M76.049,89.999v-8.596c0-3.164-1.12-4.592-3.472-4.592c-2.044,0-3.64,1.371-3.64,4.592v8.596h-2.1v-14.7
		h2.1v1.792c0.84-1.231,2.212-2.1,4.06-2.1c3.108,0,5.152,1.82,5.152,6.048v8.96H76.049z"/>
	<path fill="#FFFFFF" d="M91.841,89.999v-1.792c-0.84,1.232-2.212,2.1-4.06,2.1c-3.108,0-5.152-1.819-5.152-6.048v-8.96h2.1v8.597
		c0,3.163,1.12,4.592,3.472,4.592c2.044,0,3.64-1.372,3.64-4.592v-8.597h2.1v14.7H91.841z"/>
	<path fill="#FFFFFF" d="M109.704,83.363h-9.8c0.196,3.136,1.68,5.124,4.088,5.124c1.708,0,2.716-0.504,4.06-1.4l0.98,1.512
		c-1.764,1.12-3.052,1.708-5.264,1.708c-2.688,0-5.964-1.96-5.964-7.728c0-4.676,2.576-7.588,6.076-7.588
		c3.836,0,5.908,3.023,5.908,7.224C109.788,82.719,109.76,83.027,109.704,83.363z M103.852,76.812c-2.184,0-3.696,1.567-3.948,4.844
		h7.924C107.66,78.799,106.428,76.812,103.852,76.812z"/>
	<path fill="#FFFFFF" d="M119.616,89.999h-1.848l-5.264-14.7h2.24l3.752,11.564l0.224,0.7l0.224-0.7l3.752-11.564h2.184
		L119.616,89.999z"/>
	<path fill="#FFFFFF" d="M133.868,90.307c-3.584,0-6.328-2.659-6.328-7.644s2.856-7.672,6.44-7.672s6.328,2.576,6.328,7.56
		C140.308,87.535,137.452,90.307,133.868,90.307z M133.924,76.812c-2.548,0-4.256,1.932-4.256,5.796c0,3.863,1.708,5.88,4.256,5.88
		c2.548,0,4.284-2.017,4.284-5.88C138.208,78.743,136.472,76.812,133.924,76.812z"/>
	<path fill="#FFFFFF" d="M157.696,90.307c-1.848,0-3.108-0.783-4.144-1.96v5.88l-2.1,1.177V75.299h2.1v1.792
		c1.036-1.12,2.436-2.1,4.424-2.1c2.94,0,5.264,2.24,5.264,7.42C163.24,87.619,160.776,90.307,157.696,90.307z M157.444,76.812
		c-1.568,0-2.856,0.84-3.892,2.128v7.336c0.812,1.231,2.24,2.212,3.976,2.212c2.436,0,3.64-2.101,3.64-6.048
		C161.168,78.743,159.768,76.812,157.444,76.812z"/>
	<path fill="#FFFFFF" d="M176.231,89.999v-1.792c-0.84,1.232-2.212,2.1-4.06,2.1c-3.108,0-5.152-1.819-5.152-6.048v-8.96h2.1v8.597
		c0,3.163,1.12,4.592,3.472,4.592c2.044,0,3.64-1.372,3.64-4.592v-8.597h2.1v14.7H176.231z"/>
	<path fill="#FFFFFF" d="M194.095,83.363h-9.8c0.196,3.136,1.68,5.124,4.088,5.124c1.708,0,2.716-0.504,4.06-1.4l0.98,1.512
		c-1.764,1.12-3.052,1.708-5.264,1.708c-2.688,0-5.964-1.96-5.964-7.728c0-4.676,2.576-7.588,6.076-7.588
		c3.836,0,5.908,3.023,5.908,7.224C194.179,82.719,194.151,83.027,194.095,83.363z M188.243,76.812
		c-2.184,0-3.696,1.567-3.948,4.844h7.924C192.051,78.799,190.819,76.812,188.243,76.812z"/>
	<path fill="#FFFFFF" d="M205.603,77.483c-0.588-0.336-1.232-0.561-2.212-0.561c-2.044,0-3.192,1.652-3.192,4.452v8.624h-2.1v-14.7
		h2.1v1.82c0.672-1.176,2.072-2.128,3.64-2.128c1.092,0,1.792,0.14,2.296,0.364L205.603,77.483z"/>
	<path fill="#FFFFFF" d="M212.183,77.063v9.575c0,1.316,0.364,1.765,1.484,1.765c0.84,0,1.4-0.141,2.071-0.42l-0.14,1.819
		c-0.812,0.336-1.596,0.504-2.716,0.504c-1.82,0-2.8-0.896-2.8-3.332v-9.911h-1.82v-1.765h1.82v-4.536l2.1-1.176v5.712h3.639v1.765
		H212.183z"/>
	<path fill="#FFFFFF" d="M225.455,90.307c-3.584,0-6.328-2.659-6.328-7.644s2.855-7.672,6.439-7.672s6.328,2.576,6.328,7.56
		C231.894,87.535,229.039,90.307,225.455,90.307z M225.51,76.812c-2.548,0-4.256,1.932-4.256,5.796c0,3.863,1.708,5.88,4.256,5.88
		s4.284-2.017,4.284-5.88C229.795,78.743,228.058,76.812,225.51,76.812z"/>
	<path fill="#FFFFFF" d="M251.942,89.999v-1.792c-1.036,1.12-2.437,2.1-4.424,2.1c-2.94,0-5.265-2.239-5.265-7.42
		c0-5.208,2.465-7.896,5.545-7.896c1.848,0,3.107,0.784,4.144,1.96v-6.188l2.101-1.176v20.412H251.942z M251.942,79.023
		c-0.812-1.232-2.24-2.212-3.976-2.212c-2.437,0-3.641,2.1-3.641,6.048c0,3.695,1.4,5.628,3.725,5.628
		c1.567,0,2.855-0.84,3.892-2.128V79.023z"/>
	<path fill="#FFFFFF" d="M269.806,83.363h-9.801c0.196,3.136,1.68,5.124,4.088,5.124c1.709,0,2.717-0.504,4.061-1.4l0.98,1.512
		c-1.765,1.12-3.053,1.708-5.265,1.708c-2.688,0-5.964-1.96-5.964-7.728c0-4.676,2.576-7.588,6.076-7.588
		c3.836,0,5.908,3.023,5.908,7.224C269.89,82.719,269.862,83.027,269.806,83.363z M263.954,76.812c-2.185,0-3.696,1.567-3.948,4.844
		h7.924C267.761,78.799,266.53,76.812,263.954,76.812z"/>
	<path fill="#FFFFFF" d="M289.322,89.999h-2.408l-6.664-19.6h2.295l4.369,13.412c0.392,1.176,1.008,3.163,1.203,3.863
		c0.196-0.7,0.868-2.771,1.232-3.92l4.396-13.355h2.239L289.322,89.999z"/>
	<path fill="#FFFFFF" d="M310.91,83.363h-9.801c0.196,3.136,1.68,5.124,4.088,5.124c1.709,0,2.717-0.504,4.061-1.4l0.98,1.512
		c-1.765,1.12-3.053,1.708-5.265,1.708c-2.688,0-5.964-1.96-5.964-7.728c0-4.676,2.576-7.588,6.076-7.588
		c3.836,0,5.908,3.023,5.908,7.224C310.994,82.719,310.966,83.027,310.91,83.363z M305.057,76.812c-2.185,0-3.696,1.567-3.948,4.844
		h7.924C308.865,78.799,307.634,76.812,305.057,76.812z"/>
	<path fill="#FFFFFF" d="M322.418,77.483c-0.589-0.336-1.232-0.561-2.213-0.561c-2.044,0-3.191,1.652-3.191,4.452v8.624h-2.1v-14.7
		h2.1v1.82c0.672-1.176,2.072-2.128,3.64-2.128c1.092,0,1.792,0.14,2.296,0.364L322.418,77.483z"/>
	<path fill="#FFFFFF" d="M334.737,89.999v-1.792c-1.036,1.12-2.492,2.1-4.592,2.1c-2.296,0-4.704-1.147-4.704-4.703
		c0-3.305,2.716-4.704,5.628-4.704c1.483,0,2.8,0.363,3.668,0.84v-1.736c0-2.184-1.036-3.248-3.192-3.248
		c-1.539,0-2.8,0.42-4.004,1.12l-0.783-1.708c1.287-0.7,3.023-1.176,4.928-1.176c3.164,0,5.152,1.344,5.152,4.76v10.248H334.737z
		 M334.737,83.419c-0.952-0.532-1.987-0.84-3.78-0.84c-2.156,0-3.443,1.036-3.443,2.884c0,2.185,1.203,3.136,2.996,3.136
		c1.903,0,3.332-0.979,4.228-2.212V83.419z"/>
	<path fill="#FFFFFF" d="M350.333,78.295c-1.063-0.952-2.044-1.483-3.528-1.483c-2.295,0-4.06,2.071-4.06,5.739
		c0,3.612,1.54,5.937,4.144,5.937c1.428,0,2.381-0.588,3.389-1.568l1.26,1.344c-1.232,1.261-2.66,2.044-4.732,2.044
		c-3.22,0-6.188-2.464-6.188-7.588c0-5.432,3.248-7.728,6.328-7.728c1.988,0,3.5,0.728,4.648,1.736L350.333,78.295z"/>
	<path fill="#FFFFFF" d="M362.765,77.483c-0.589-0.336-1.232-0.561-2.213-0.561c-2.044,0-3.191,1.652-3.191,4.452v8.624h-2.1v-14.7
		h2.1v1.82c0.672-1.176,2.072-2.128,3.64-2.128c1.092,0,1.792,0.14,2.296,0.364L362.765,77.483z"/>
	<path fill="#FFFFFF" d="M375.785,89.999v-1.792c-0.84,1.232-2.213,2.1-4.061,2.1c-3.107,0-5.151-1.819-5.151-6.048v-8.96h2.1v8.597
		c0,3.163,1.12,4.592,3.472,4.592c2.045,0,3.641-1.372,3.641-4.592v-8.597h2.1v14.7H375.785z"/>
	<path fill="#FFFFFF" d="M381.72,89.999v-1.54l8.035-11.396h-7.392v-1.765h9.772v1.54L384.1,88.235h8.036v1.764H381.72z"/>
</g>
</svg>
