<?xml version="1.0" encoding="utf-8"?>
<!-- Generator: Adobe Illustrator 15.1.0, SVG Export Plug-In . SVG Version: 6.00 Build 0)  -->
<!DOCTYPE svg PUBLIC "-//W3C//DTD SVG 1.1//EN" "http://www.w3.org/Graphics/SVG/1.1/DTD/svg11.dtd">
<svg version="1.1" id="Layer_1" xmlns="http://www.w3.org/2000/svg" xmlns:xlink="http://www.w3.org/1999/xlink" x="0px" y="0px"
	 width="455px" height="228px" viewBox="0 0 455 228" enable-background="new 0 0 455 228" xml:space="preserve">
<g>
	<rect x="31.928" y="72.25" fill="none" width="401.072" height="118.75"/>
	<path fill="#E1134F" d="M39.178,109.249v-6.8c8.101,0,13.251-2.85,15.251-8.2c-2.25,1.5-4.45,2.2-8,2.2
		c-6.951,0-12.351-3.55-12.351-11.3c0-7.801,6.5-12.001,14.751-12.001c7.801,0,13.901,4.351,13.901,14.151
		C62.729,96.499,57.329,109.249,39.178,109.249z M48.529,79.647c-4.65,0-7.351,2-7.351,5.25c0,3.55,2.6,5.2,7,5.2
		c4.75,0,7.3-1.6,7.3-5.25C55.479,81.598,53.079,79.647,48.529,79.647z"/>
	<path fill="#E1134F" d="M95.378,109.249c-2.3,0-4.3-0.9-5.55-2.05v1.5h-6.9V75.697l6.9-3.45v11.851c1.3-1.15,3.05-2.2,5.55-2.2
		c5.601,0,10.201,4.2,10.201,14.001C105.579,103.749,101.878,109.249,95.378,109.249z M94.078,88.398c-2.15,0-3.25,0.9-4.25,2.2v9.9
		c1.05,1.45,2.65,2.25,4.65,2.25c2.65,0,4.1-2.3,4.1-6.701C98.578,90.648,96.778,88.398,94.078,88.398z"/>
	<path fill="#E1134F" d="M125.478,108.699v-1.75c-1.25,1.3-3.45,2.3-5.9,2.3c-4.9,0-9.801-3-9.801-9.35
		c0-5.801,4.7-8.701,10.651-8.701c2.4,0,3.95,0.5,5.05,1.05v-1.3c0-1.85-1.25-3.35-3.75-3.35c-3.15,0-4.8,0.45-7.2,1.75l-2.65-4.8
		c3.05-1.75,5.601-2.65,9.851-2.65c6.351,0,10.651,3.3,10.651,9.201V108.7L125.478,108.699L125.478,108.699z M125.478,97.699
		c-1.2-0.75-2.35-1.1-4.8-1.1c-2.601,0-4,1.2-4,3.3c0,1.85,1.05,3.5,4,3.5c2.25,0,4.05-1.15,4.8-2.4V97.699z"/>
	<path fill="#E1134F" d="M154.178,90.498c-1.1-1-2.45-1.7-4-1.7c-2.7,0-4.45,1.15-4.45,5.701V108.7h-6.9V82.448h6.9v1.75
		c1.2-1.25,2.95-2.3,5.4-2.3c2.25,0,3.95,0.9,4.851,1.85L154.178,90.498z"/>
	<path fill="#E1134F" d="M171.177,109.249c-6.85,0-12.301-5.6-12.301-13.65c0-8.051,5.3-13.701,12.601-13.701c5,0,8.2,2.45,10.4,5.8
		l-4.55,4.601c-1.55-2.2-3.2-3.75-6-3.75c-3.3,0-5.45,2.75-5.45,7.051c0,4.2,2.15,7,5.45,7c2.7,0,4.4-1.2,6.201-3.35l4.4,4.15
		C179.378,106.799,176.377,109.249,171.177,109.249z"/>
	<path fill="#E1134F" d="M197.577,109.249c-6.851,0-11.851-5.6-11.851-13.65c0-8.051,5-13.701,11.851-13.701
		c6.85,0,11.9,5.65,11.9,13.701C209.477,103.649,204.427,109.249,197.577,109.249z M197.577,88.548c-3.3,0-4.851,3-4.851,7.051
		c0,4.05,1.55,7,4.851,7c3.3,0,4.9-3.35,4.9-7C202.477,91.598,200.876,88.548,197.577,88.548z"/>
	<path fill="#E1134F" d="M224.876,109.249c-4.15,0-8.201-1.2-11.001-3.05l2.3-5.25c2.8,1.55,5.75,2.4,9.101,2.4
		c2.7,0,3.5-0.65,3.5-2c0-1.2-0.948-1.8-3.851-2.65c-6.3-1.9-10.351-3.45-10.351-9c0-5.451,4.351-7.801,10.501-7.801
		c3.3,0,6.899,1,9.7,2.55l-2.2,5.45c-2.601-1.4-5.45-2.1-7.65-2.1c-2.8,0-3.55,0.55-3.55,1.7c0,1.1,0.8,1.55,5.451,3.05
		c4.699,1.55,8.75,3.25,8.75,8.5C235.576,107.099,230.775,109.249,224.876,109.249z"/>
	<path fill="#FFFFFF" d="M38.312,142.607c-2.016,0-3.78-0.756-5.18-1.877l1.232-1.539c1.176,1.035,2.548,1.623,4.004,1.623
		c2.016,0,2.968-0.84,2.968-2.27c0-1.203-0.868-1.875-3.472-2.996c-2.94-1.26-4.172-2.154-4.172-4.508
		c0-2.24,1.932-3.752,4.592-3.752c2.016,0,3.584,0.646,4.704,1.566l-1.176,1.541c-1.148-0.896-2.1-1.314-3.668-1.314
		c-1.54,0-2.436,0.756-2.436,1.818c0,1.23,0.756,1.734,3.248,2.855c2.772,1.26,4.396,2.072,4.396,4.703
		C43.352,141.348,40.86,142.607,38.312,142.607z"/>
	<path fill="#FFFFFF" d="M58.443,135.664h-9.8c0.196,3.135,1.68,5.123,4.088,5.123c1.708,0,2.716-0.504,4.06-1.4l0.98,1.514
		c-1.764,1.119-3.052,1.707-5.264,1.707c-2.688,0-5.964-1.959-5.964-7.729c0-4.676,2.576-7.588,6.076-7.588
		c3.836,0,5.908,3.023,5.908,7.225C58.527,135.02,58.5,135.327,58.443,135.664z M52.591,129.111c-2.184,0-3.696,1.566-3.948,4.844
		h7.924C56.399,131.1,55.167,129.111,52.591,129.111z"/>
	<path fill="#FFFFFF" d="M77.231,129.783c-0.588-0.336-1.232-0.561-2.212-0.561c-2.044,0-3.192,1.65-3.192,4.451v8.623h-2.1V127.6
		h2.1v1.82c0.672-1.177,2.072-2.129,3.64-2.129c1.092,0,1.792,0.141,2.296,0.364L77.231,129.783z"/>
	<path fill="#FFFFFF" d="M92.239,135.664h-9.8c0.196,3.135,1.68,5.123,4.088,5.123c1.708,0,2.716-0.504,4.06-1.4l0.98,1.514
		c-1.764,1.119-3.052,1.707-5.264,1.707c-2.688,0-5.964-1.959-5.964-7.729c0-4.676,2.576-7.588,6.076-7.588
		c3.836,0,5.908,3.023,5.908,7.225C92.323,135.02,92.295,135.327,92.239,135.664z M86.387,129.111c-2.184,0-3.696,1.566-3.948,4.844
		h7.924C90.195,131.1,88.963,129.111,86.387,129.111z"/>
	<path fill="#FFFFFF" d="M105.174,130.596c-1.064-0.951-2.044-1.484-3.528-1.484c-2.296,0-4.06,2.072-4.06,5.74
		c0,3.611,1.54,5.938,4.144,5.938c1.428,0,2.38-0.588,3.388-1.566l1.26,1.344c-1.232,1.261-2.66,2.045-4.732,2.045
		c-3.22,0-6.188-2.465-6.188-7.588c0-5.434,3.248-7.729,6.328-7.729c1.988,0,3.5,0.729,4.648,1.735L105.174,130.596z"/>
	<path fill="#FFFFFF" d="M111.334,124.967c-0.868,0-1.54-0.672-1.54-1.482c0-0.84,0.672-1.514,1.54-1.514
		c0.784,0,1.456,0.674,1.456,1.514C112.791,124.295,112.118,124.967,111.334,124.967z M110.242,142.299V127.6h2.1v14.699H110.242z"
		/>
	<path fill="#FFFFFF" d="M123.374,142.607c-1.848,0-3.108-0.784-4.144-1.961v1.65h-2.1v-19.234l2.1-1.178v7.506
		c1.036-1.119,2.436-2.102,4.424-2.102c2.94,0,5.264,2.24,5.264,7.42C128.918,139.92,126.454,142.607,123.374,142.607z
		 M123.122,129.111c-1.568,0-2.856,0.84-3.892,2.128v7.336c0.812,1.231,2.24,2.212,3.976,2.212c2.436,0,3.64-2.1,3.64-6.048
		C126.846,131.043,125.446,129.111,123.122,129.111z"/>
	<path fill="#FFFFFF" d="M134.014,124.967c-0.868,0-1.54-0.672-1.54-1.482c0-0.84,0.672-1.514,1.54-1.514
		c0.784,0,1.456,0.674,1.456,1.514C135.47,124.295,134.798,124.967,134.014,124.967z M132.922,142.299V127.6h2.1v14.699H132.922z"/>
	<path fill="#FFFFFF" d="M147.314,129.783c-0.588-0.336-1.232-0.561-2.212-0.561c-2.044,0-3.192,1.65-3.192,4.451v8.623h-2.1V127.6
		h2.1v1.82c0.672-1.177,2.072-2.129,3.64-2.129c1.092,0,1.792,0.141,2.296,0.364L147.314,129.783z"/>
	<path fill="#FFFFFF" d="M159.634,142.299v-1.791c-1.036,1.119-2.492,2.1-4.592,2.1c-2.296,0-4.704-1.146-4.704-4.702
		c0-3.306,2.716-4.704,5.628-4.704c1.484,0,2.8,0.363,3.668,0.84v-1.734c0-2.186-1.036-3.248-3.192-3.248
		c-1.54,0-2.8,0.42-4.004,1.119l-0.784-1.709c1.288-0.697,3.024-1.176,4.928-1.176c3.164,0,5.152,1.344,5.152,4.76V142.3
		L159.634,142.299L159.634,142.299z M159.634,135.719c-0.952-0.531-1.988-0.84-3.78-0.84c-2.156,0-3.444,1.037-3.444,2.885
		c0,2.186,1.204,3.137,2.996,3.137c1.904,0,3.332-0.979,4.228-2.213V135.719z M156.89,125.639h-1.652l2.884-4.479h2.996
		L156.89,125.639z"/>
	<path fill="#FFFFFF" d="M175.51,142.299v-8.596c0-3.164-1.12-4.592-3.472-4.592c-2.044,0-3.64,1.371-3.64,4.592v8.596h-2.1V127.6
		h2.1v1.793c0.84-1.231,2.212-2.102,4.06-2.102c3.108,0,5.152,1.82,5.152,6.049v8.959H175.51z"/>
	<path fill="#FFFFFF" d="M197.881,142.299v-1.791c-1.036,1.119-2.492,2.1-4.592,2.1c-2.296,0-4.704-1.146-4.704-4.702
		c0-3.306,2.716-4.704,5.628-4.704c1.484,0,2.8,0.363,3.668,0.84v-1.734c0-2.186-1.036-3.248-3.192-3.248
		c-1.54,0-2.8,0.42-4.004,1.119l-0.784-1.709c1.288-0.697,3.024-1.176,4.928-1.176c3.164,0,5.152,1.344,5.152,4.76V142.3
		L197.881,142.299L197.881,142.299z M197.881,135.719c-0.952-0.531-1.988-0.84-3.78-0.84c-2.156,0-3.444,1.037-3.444,2.885
		c0,2.186,1.204,3.137,2.996,3.137c1.904,0,3.332-0.979,4.228-2.213V135.719z"/>
	<path fill="#FFFFFF" d="M210.789,142.607c-1.848,0-3.108-0.784-4.144-1.961v5.881l-2.1,1.176V127.6h2.1v1.793
		c1.036-1.121,2.436-2.102,4.424-2.102c2.94,0,5.264,2.24,5.264,7.42C216.333,139.92,213.869,142.607,210.789,142.607z
		 M210.537,129.111c-1.568,0-2.856,0.84-3.892,2.128v7.336c0.812,1.231,2.24,2.212,3.976,2.212c2.436,0,3.64-2.1,3.64-6.048
		C214.261,131.043,212.861,129.111,210.537,129.111z"/>
	<path fill="#FFFFFF" d="M227.701,129.783c-0.588-0.336-1.232-0.561-2.212-0.561c-2.044,0-3.192,1.65-3.192,4.451v8.623h-2.1V127.6
		h2.1v1.82c0.672-1.177,2.072-2.129,3.64-2.129c1.092,0,1.792,0.141,2.295,0.364L227.701,129.783z"/>
	<path fill="#FFFFFF" d="M237.137,142.607c-3.584,0-6.328-2.66-6.328-7.646c0-4.982,2.855-7.672,6.439-7.672
		s6.328,2.576,6.328,7.562C243.576,139.836,240.721,142.607,237.137,142.607z M237.191,129.111c-2.547,0-4.256,1.932-4.256,5.796
		s1.709,5.88,4.256,5.88c2.549,0,4.285-2.016,4.285-5.88S239.74,129.111,237.191,129.111z"/>
	<path fill="#FFFFFF" d="M255.477,142.299l-2.912-5.096l-0.446-0.812l-0.448,0.812l-2.938,5.096h-2.186l4.535-7.588l-4.229-7.111
		h2.323l2.604,4.564l0.447,0.812l0.446-0.812l2.634-4.564h2.185l-4.229,7.058l4.536,7.644L255.477,142.299L255.477,142.299z"/>
	<path fill="#FFFFFF" d="M262.784,124.967c-0.868,0-1.54-0.672-1.54-1.482c0-0.84,0.672-1.514,1.54-1.514
		c0.784,0,1.456,0.674,1.456,1.514C264.24,124.295,263.568,124.967,262.784,124.967z M261.691,142.299V127.6h2.101v14.699H261.691z"
		/>
	<path fill="#FFFFFF" d="M285.66,142.299v-8.596c0-3.359-1.036-4.592-3.164-4.592c-1.988,0-3.276,1.344-3.276,4.592v8.596h-2.101
		v-8.596c0-3.359-1.119-4.592-3.163-4.592c-2.017,0-3.276,1.344-3.276,4.592v8.596h-2.1V127.6h2.1v1.793
		c0.756-1.262,1.988-2.102,3.727-2.102c2.07,0,3.33,1.121,4.029,2.521c0.869-1.399,2.072-2.521,4.453-2.521
		c2.995,0,4.871,1.764,4.871,6.049v8.959H285.66z"/>
	<path fill="#FFFFFF" d="M300.752,142.299v-1.791c-1.037,1.119-2.492,2.1-4.592,2.1c-2.297,0-4.705-1.146-4.705-4.702
		c0-3.306,2.717-4.704,5.629-4.704c1.482,0,2.799,0.363,3.668,0.84v-1.734c0-2.186-1.037-3.248-3.191-3.248
		c-1.541,0-2.801,0.42-4.004,1.119l-0.785-1.709c1.289-0.697,3.023-1.176,4.93-1.176c3.164,0,5.15,1.344,5.15,4.76V142.3
		L300.752,142.299L300.752,142.299z M300.752,135.719c-0.953-0.531-1.988-0.84-3.779-0.84c-2.156,0-3.445,1.037-3.445,2.885
		c0,2.186,1.205,3.137,2.996,3.137c1.904,0,3.332-0.979,4.229-2.213L300.752,135.719L300.752,135.719z"/>
	<path fill="#FFFFFF" d="M316.318,142.299v-1.791c-1.035,1.119-2.438,2.1-4.424,2.1c-2.939,0-5.266-2.238-5.266-7.42
		c0-5.207,2.465-7.896,5.545-7.896c1.85,0,3.107,0.784,4.145,1.961v-6.188l2.102-1.176V142.3L316.318,142.299L316.318,142.299z
		 M316.318,131.323c-0.812-1.231-2.239-2.212-3.977-2.212c-2.438,0-3.641,2.1-3.641,6.048c0,3.696,1.398,5.628,3.725,5.628
		c1.567,0,2.855-0.84,3.893-2.128V131.323z"/>
	<path fill="#FFFFFF" d="M331.495,142.299v-1.791c-1.036,1.119-2.492,2.1-4.593,2.1c-2.295,0-4.703-1.146-4.703-4.702
		c0-3.306,2.716-4.704,5.628-4.704c1.483,0,2.8,0.363,3.668,0.84v-1.734c0-2.186-1.036-3.248-3.192-3.248
		c-1.539,0-2.8,0.42-4.004,1.119l-0.783-1.709c1.287-0.697,3.023-1.176,4.928-1.176c3.164,0,5.152,1.344,5.152,4.76V142.3
		L331.495,142.299L331.495,142.299z M331.495,135.719c-0.952-0.531-1.987-0.84-3.78-0.84c-2.156,0-3.443,1.037-3.443,2.885
		c0,2.186,1.203,3.137,2.996,3.137c1.903,0,3.332-0.979,4.229-2.213L331.495,135.719L331.495,135.719z"/>
	<path fill="#FFFFFF" d="M355.238,142.299v-8.596c0-3.359-1.035-4.592-3.164-4.592c-1.987,0-3.275,1.344-3.275,4.592v8.596h-2.1
		v-8.596c0-3.359-1.12-4.592-3.164-4.592c-2.016,0-3.276,1.344-3.276,4.592v8.596h-2.1V127.6h2.1v1.793
		c0.757-1.262,1.988-2.102,3.724-2.102c2.072,0,3.332,1.121,4.033,2.521c0.867-1.399,2.071-2.521,4.451-2.521
		c2.996,0,4.872,1.764,4.872,6.049v8.959H355.238z"/>
	<path fill="#FFFFFF" d="M373.02,135.664h-9.801c0.195,3.135,1.68,5.123,4.088,5.123c1.709,0,2.717-0.504,4.062-1.4l0.979,1.514
		c-1.766,1.119-3.053,1.707-5.266,1.707c-2.688,0-5.963-1.959-5.963-7.729c0-4.676,2.576-7.588,6.074-7.588
		c3.838,0,5.908,3.023,5.908,7.225C373.104,135.02,373.074,135.327,373.02,135.664z M367.166,129.111
		c-2.184,0-3.695,1.566-3.947,4.844h7.924C370.975,131.1,369.742,129.111,367.166,129.111z"/>
	<path fill="#FFFFFF" d="M386.234,142.299v-8.596c0-3.164-1.12-4.592-3.475-4.592c-2.043,0-3.64,1.371-3.64,4.592v8.596h-2.101
		V127.6h2.101v1.793c0.841-1.231,2.212-2.102,4.062-2.102c3.106,0,5.15,1.82,5.15,6.049v8.959H386.234z"/>
	<path fill="#FFFFFF" d="M395.586,129.363v9.576c0,1.314,0.363,1.764,1.484,1.764c0.84,0,1.397-0.141,2.07-0.42l-0.141,1.82
		c-0.812,0.336-1.596,0.504-2.717,0.504c-1.819,0-2.801-0.896-2.801-3.332v-9.912h-1.818V127.6h1.818v-4.535l2.102-1.178v5.713
		h3.641v1.766L395.586,129.363L395.586,129.363z"/>
	<path fill="#FFFFFF" d="M414.43,135.664h-9.8c0.196,3.135,1.681,5.123,4.088,5.123c1.708,0,2.716-0.504,4.06-1.4l0.98,1.514
		c-1.764,1.119-3.053,1.707-5.264,1.707c-2.688,0-5.965-1.959-5.965-7.729c0-4.676,2.576-7.588,6.076-7.588
		c3.836,0,5.908,3.023,5.908,7.225C414.514,135.02,414.486,135.327,414.43,135.664z M408.578,129.111
		c-2.186,0-3.696,1.566-3.948,4.844h7.925C412.386,131.1,411.154,129.111,408.578,129.111z"/>
	<path fill="#FFFFFF" d="M40.496,176.207c-1.848,0-3.108-0.783-4.144-1.959v5.879l-2.1,1.178V161.2h2.1v1.793
		c1.036-1.121,2.436-2.101,4.424-2.101c2.94,0,5.264,2.239,5.264,7.42C46.04,173.52,43.576,176.207,40.496,176.207z M40.244,162.713
		c-1.568,0-2.856,0.84-3.892,2.127v7.336c0.812,1.232,2.24,2.213,3.976,2.213c2.436,0,3.64-2.102,3.64-6.049
		C43.968,164.645,42.568,162.713,40.244,162.713z"/>
	<path fill="#FFFFFF" d="M55.448,176.207c-3.584,0-6.328-2.658-6.328-7.643c0-4.985,2.856-7.672,6.44-7.672s6.328,2.574,6.328,7.559
		S59.032,176.207,55.448,176.207z M55.503,162.713c-2.548,0-4.256,1.932-4.256,5.795s1.708,5.881,4.256,5.881
		s4.284-2.018,4.284-5.881S58.052,162.713,55.503,162.713z"/>
	<path fill="#FFFFFF" d="M73.255,163.385c-0.588-0.336-1.232-0.561-2.212-0.561c-2.044,0-3.192,1.652-3.192,4.451v8.625h-2.1
		v-14.701h2.1v1.82c0.672-1.178,2.072-2.127,3.64-2.127c1.092,0,1.792,0.139,2.296,0.361L73.255,163.385z"/>
	<path fill="#FFFFFF" d="M101.507,175.9v-8.596c0-3.361-1.036-4.594-3.164-4.594c-1.988,0-3.276,1.346-3.276,4.594v8.596h-2.1
		v-8.596c0-3.361-1.12-4.594-3.164-4.594c-2.016,0-3.276,1.346-3.276,4.594v8.596h-2.1v-14.701h2.1v1.793
		c0.756-1.26,1.988-2.1,3.724-2.1c2.072,0,3.332,1.117,4.032,2.52c0.868-1.4,2.072-2.52,4.452-2.52c2.996,0,4.872,1.764,4.872,6.047
		v8.961H101.507L101.507,175.9z"/>
	<path fill="#FFFFFF" d="M119.287,169.264h-9.8c0.196,3.137,1.68,5.125,4.088,5.125c1.708,0,2.716-0.504,4.06-1.398l0.98,1.512
		c-1.764,1.119-3.052,1.707-5.264,1.707c-2.688,0-5.964-1.959-5.964-7.729c0-4.676,2.576-7.588,6.076-7.588
		c3.836,0,5.908,3.023,5.908,7.225C119.371,168.619,119.343,168.928,119.287,169.264z M113.435,162.713
		c-2.184,0-3.696,1.566-3.948,4.844h7.924C117.243,164.699,116.011,162.713,113.435,162.713z"/>
	<path fill="#FFFFFF" d="M127.35,176.207c-2.016,0-3.78-0.756-5.18-1.875l1.232-1.541c1.176,1.037,2.548,1.625,4.004,1.625
		c2.016,0,2.968-0.84,2.968-2.268c0-1.205-0.868-1.877-3.472-2.996c-2.94-1.26-4.172-2.156-4.172-4.508
		c0-2.24,1.932-3.752,4.592-3.752c2.016,0,3.584,0.643,4.704,1.564L130.85,164c-1.148-0.896-2.1-1.316-3.668-1.316
		c-1.54,0-2.436,0.756-2.436,1.82c0,1.232,0.756,1.736,3.248,2.855c2.772,1.26,4.396,2.072,4.396,4.705
		C132.39,174.947,129.898,176.207,127.35,176.207z"/>
	<path fill="#FFFFFF" d="M137.402,176.207c-0.98,0-1.792-0.811-1.792-1.791s0.812-1.848,1.792-1.848
		c0.952,0,1.792,0.867,1.792,1.848S138.354,176.207,137.402,176.207z"/>
</g>
</svg>
