<?xml version="1.0" encoding="utf-8"?>
<!-- Generator: Adobe Illustrator 15.1.0, SVG Export Plug-In . SVG Version: 6.00 Build 0)  -->
<!DOCTYPE svg PUBLIC "-//W3C//DTD SVG 1.1//EN" "http://www.w3.org/Graphics/SVG/1.1/DTD/svg11.dtd">
<svg version="1.1" id="Layer_1" xmlns="http://www.w3.org/2000/svg" xmlns:xlink="http://www.w3.org/1999/xlink" x="0px" y="0px"
	 width="442.712px" height="322.038px" viewBox="0 0 442.712 322.038" enable-background="new 0 0 442.712 322.038"
	 xml:space="preserve">
<g>
	<rect y="4.84" fill="none" width="442.712" height="317.198"/>
	<path fill="#FFFFFF" d="M105.416,34h-3.439L92.458,6.004h3.279l6.239,19.157c0.56,1.68,1.439,4.519,1.72,5.519
		c0.28-1,1.24-3.959,1.76-5.599l6.279-19.077h3.199L105.416,34z"/>
	<path fill="#FFFFFF" d="M136.255,24.521h-13.998c0.28,4.479,2.399,7.319,5.839,7.319c2.439,0,3.879-0.72,5.799-2l1.399,2.16
		c-2.52,1.6-4.359,2.439-7.519,2.439c-3.839,0-8.519-2.799-8.519-11.038c0-6.679,3.679-10.838,8.678-10.838
		c5.479,0,8.439,4.319,8.439,10.318C136.375,23.601,136.335,24.041,136.255,24.521z M127.897,15.163c-3.12,0-5.279,2.24-5.639,6.919
		h11.318C133.336,18.002,131.576,15.163,127.897,15.163z"/>
	<path fill="#FFFFFF" d="M166.374,34V21.722c0-4.799-1.48-6.559-4.519-6.559c-2.84,0-4.679,1.92-4.679,6.559V34h-3V21.722
		c0-4.799-1.6-6.559-4.52-6.559c-2.879,0-4.679,1.92-4.679,6.559V34h-3V13.003h3v2.56c1.08-1.8,2.84-3,5.319-3
		c2.959,0,4.759,1.6,5.759,3.6c1.24-2,2.959-3.6,6.359-3.6c4.279,0,6.959,2.52,6.959,8.639V34H166.374z"/>
	<path fill="#FFFFFF" d="M183.816,34.439c-5.119,0-9.039-3.799-9.039-10.918c0-7.119,4.079-10.958,9.198-10.958
		s9.039,3.68,9.039,10.798S188.936,34.439,183.816,34.439z M183.896,15.163c-3.639,0-6.079,2.76-6.079,8.279
		s2.439,8.398,6.079,8.398c3.64,0,6.119-2.879,6.119-8.398S187.536,15.163,183.896,15.163z"/>
	<path fill="#FFFFFF" d="M204.336,34.439c-2.88,0-5.399-1.08-7.399-2.68l1.76-2.2c1.68,1.48,3.639,2.32,5.719,2.32
		c2.88,0,4.239-1.2,4.239-3.239c0-1.72-1.24-2.68-4.959-4.279c-4.199-1.8-5.959-3.08-5.959-6.439c0-3.2,2.76-5.359,6.559-5.359
		c2.879,0,5.119,0.92,6.719,2.24l-1.68,2.2c-1.64-1.28-3-1.88-5.239-1.88c-2.2,0-3.479,1.08-3.479,2.6c0,1.76,1.08,2.479,4.639,4.08
		c3.959,1.799,6.279,2.959,6.279,6.719C211.535,32.64,207.976,34.439,204.336,34.439z"/>
	<path fill="#FFFFFF" d="M240.774,34V21.722c0-4.52-1.6-6.559-4.959-6.559c-2.92,0-5.199,1.96-5.199,6.559V34h-3V13.003h3v2.56
		c1.199-1.76,3.16-3,5.799-3c4.439,0,7.359,2.6,7.359,8.639V34H240.774z"/>
	<path fill="#FFFFFF" d="M263.334,34v-2.56c-1.2,1.76-3.159,3-5.8,3c-4.438,0-7.358-2.6-7.358-8.639V13.003h2.999v12.278
		c0,4.52,1.601,6.559,4.96,6.559c2.919,0,5.199-1.959,5.199-6.559V13.003h2.999V34H263.334z"/>
	<path fill="#FFFFFF" d="M288.853,24.521h-13.997c0.28,4.479,2.399,7.319,5.839,7.319c2.439,0,3.879-0.72,5.799-2l1.4,2.16
		c-2.52,1.6-4.359,2.439-7.52,2.439c-3.839,0-8.518-2.799-8.518-11.038c0-6.679,3.679-10.838,8.678-10.838
		c5.479,0,8.439,4.319,8.439,10.318C288.974,23.601,288.933,24.041,288.853,24.521z M280.495,15.163c-3.12,0-5.279,2.24-5.64,6.919
		h11.317C285.934,18.002,284.174,15.163,280.495,15.163z"/>
	<path fill="#FFFFFF" d="M303.014,34h-2.64l-7.519-20.997h3.2l5.358,16.517l0.319,1l0.32-1l5.359-16.517h3.119L303.014,34z"/>
	<path fill="#FFFFFF" d="M327.493,34v-2.56c-1.48,1.6-3.561,3-6.56,3c-3.279,0-6.719-1.64-6.719-6.719
		c0-4.719,3.88-6.719,8.038-6.719c2.12,0,4,0.52,5.24,1.2v-2.48c0-3.119-1.48-4.639-4.56-4.639c-2.2,0-3.999,0.6-5.72,1.6
		l-1.119-2.44c1.84-1,4.319-1.68,7.039-1.68c4.52,0,7.358,1.92,7.358,6.799V34H327.493z M327.493,24.601
		c-1.36-0.76-2.84-1.2-5.399-1.2c-3.079,0-4.919,1.479-4.919,4.119c0,3.12,1.719,4.479,4.279,4.479c2.719,0,4.759-1.4,6.039-3.16
		V24.601z"/>
	<path fill="#FFFFFF" d="M342.813,34.439c-2.88,0-5.399-1.08-7.398-2.68l1.76-2.2c1.68,1.48,3.639,2.32,5.719,2.32
		c2.879,0,4.239-1.2,4.239-3.239c0-1.72-1.24-2.68-4.96-4.279c-4.199-1.8-5.959-3.08-5.959-6.439c0-3.2,2.76-5.359,6.56-5.359
		c2.88,0,5.119,0.92,6.719,2.24l-1.68,2.2c-1.64-1.28-2.999-1.88-5.239-1.88c-2.199,0-3.479,1.08-3.479,2.6
		c0,1.76,1.08,2.479,4.64,4.08c3.959,1.799,6.279,2.959,6.279,6.719C350.013,32.64,346.452,34.439,342.813,34.439z"/>
	<path fill="#FFFFFF" d="M74.877,82.439c-5.119,0-9.039-3.799-9.039-10.918c0-7.119,4.079-10.958,9.198-10.958
		s9.039,3.68,9.039,10.798S79.997,82.439,74.877,82.439z M74.957,63.163c-3.639,0-6.079,2.76-6.079,8.279s2.439,8.398,6.079,8.398
		c3.64,0,6.119-2.879,6.119-8.398S78.597,63.163,74.957,63.163z"/>
	<path fill="#FFFFFF" d="M98.517,82.439c-2.64,0-4.439-1.12-5.919-2.799v8.398l-3,1.68V61.003h3v2.56c1.48-1.6,3.479-3,6.319-3
		c4.2,0,7.519,3.2,7.519,10.598C106.436,78.6,102.916,82.439,98.517,82.439z M98.157,63.163c-2.24,0-4.079,1.2-5.559,3.04V76.68
		c1.16,1.76,3.2,3.16,5.679,3.16c3.479,0,5.199-3,5.199-8.639C103.476,65.922,101.476,63.163,98.157,63.163z"/>
	<path fill="#FFFFFF" d="M119.877,82.439c-5.119,0-9.039-3.799-9.039-10.918c0-7.119,4.079-10.958,9.198-10.958
		s9.039,3.68,9.039,10.798S124.996,82.439,119.877,82.439z M119.957,63.163c-3.639,0-6.079,2.76-6.079,8.279
		s2.439,8.398,6.079,8.398c3.64,0,6.119-2.879,6.119-8.398S123.596,63.163,119.957,63.163z"/>
	<path fill="#FFFFFF" d="M145.316,64.123c-0.84-0.48-1.76-0.8-3.16-0.8c-2.919,0-4.559,2.359-4.559,6.359V82h-3V61.003h3v2.6
		c0.96-1.68,2.959-3.04,5.199-3.04c1.56,0,2.56,0.2,3.279,0.52L145.316,64.123z"/>
	<path fill="#FFFFFF" d="M154.717,63.522V77.2c0,1.88,0.52,2.52,2.12,2.52c1.2,0,2-0.2,2.959-0.6l-0.2,2.6
		c-1.16,0.48-2.28,0.72-3.879,0.72c-2.6,0-4-1.28-4-4.759V63.522h-2.6v-2.52h2.6v-6.479l3-1.68v8.159h5.199v2.52H154.717z"/>
	<path fill="#FFFFFF" d="M178.795,82v-2.56c-1.2,1.76-3.16,3-5.799,3c-4.439,0-7.358-2.6-7.358-8.639V61.003h2.999v12.278
		c0,4.52,1.6,6.559,4.959,6.559c2.919,0,5.199-1.959,5.199-6.559V61.003h3V82H178.795z"/>
	<path fill="#FFFFFF" d="M201.594,82V69.722c0-4.52-1.6-6.559-4.959-6.559c-2.919,0-5.199,1.96-5.199,6.559V82h-3V61.003h3v2.56
		c1.2-1.76,3.16-3,5.799-3c4.439,0,7.358,2.6,7.358,8.639V82H201.594z"/>
	<path fill="#FFFFFF" d="M212.876,57.244c-1.24,0-2.2-0.96-2.2-2.12c0-1.2,0.96-2.16,2.2-2.16c1.12,0,2.08,0.96,2.08,2.16
		C214.956,56.284,213.996,57.244,212.876,57.244z M211.316,82V61.003h3V82H211.316z"/>
	<path fill="#FFFFFF" d="M233.874,82v-2.56c-1.48,1.6-3.479,3-6.319,3c-4.199,0-7.519-3.2-7.519-10.598
		c0-7.439,3.52-11.278,7.918-11.278c2.641,0,4.439,1.12,5.92,2.8v-8.839l2.999-1.68V82H233.874z M233.874,66.322
		c-1.16-1.76-3.199-3.16-5.68-3.16c-3.479,0-5.199,3-5.199,8.639c0,5.279,2,8.039,5.319,8.039c2.239,0,4.079-1.2,5.56-3.04V66.322z"
		/>
	<path fill="#FFFFFF" d="M255.554,82v-2.56c-1.48,1.6-3.56,3-6.559,3c-3.279,0-6.719-1.64-6.719-6.719
		c0-4.719,3.879-6.719,8.038-6.719c2.12,0,3.999,0.52,5.239,1.2v-2.48c0-3.119-1.48-4.639-4.559-4.639c-2.2,0-4,0.6-5.72,1.6
		l-1.12-2.44c1.84-1,4.32-1.68,7.039-1.68c4.52,0,7.359,1.92,7.359,6.799V82H255.554z M255.554,72.601
		c-1.359-0.76-2.84-1.2-5.398-1.2c-3.08,0-4.92,1.479-4.92,4.119c0,3.12,1.72,4.479,4.279,4.479c2.72,0,4.76-1.4,6.039-3.16V72.601z
		"/>
	<path fill="#FFFFFF" d="M277.793,82v-2.56c-1.479,1.6-3.479,3-6.319,3c-4.199,0-7.518-3.2-7.518-10.598
		c0-7.439,3.52-11.278,7.918-11.278c2.64,0,4.439,1.12,5.919,2.8v-8.839l2.999-1.68V82H277.793z M277.793,66.322
		c-1.159-1.76-3.199-3.16-5.679-3.16c-3.479,0-5.199,3-5.199,8.639c0,5.279,2,8.039,5.318,8.039c2.24,0,4.08-1.2,5.56-3.04V66.322z"
		/>
	<path fill="#FFFFFF" d="M303.312,72.521h-13.997c0.28,4.479,2.399,7.319,5.839,7.319c2.439,0,3.879-0.72,5.799-2l1.4,2.16
		c-2.52,1.6-4.359,2.439-7.52,2.439c-3.839,0-8.518-2.799-8.518-11.038c0-6.679,3.679-10.838,8.678-10.838
		c5.479,0,8.439,4.319,8.439,10.318C303.433,71.601,303.392,72.041,303.312,72.521z M294.954,63.163c-3.12,0-5.279,2.24-5.64,6.919
		h11.317C300.393,66.002,298.633,63.163,294.954,63.163z"/>
	<path fill="#FFFFFF" d="M314.833,82.439c-2.879,0-5.398-1.08-7.398-2.68l1.76-2.2c1.68,1.48,3.639,2.32,5.719,2.32
		c2.88,0,4.239-1.2,4.239-3.239c0-1.72-1.239-2.68-4.959-4.279c-4.199-1.8-5.959-3.08-5.959-6.439c0-3.2,2.76-5.359,6.56-5.359
		c2.879,0,5.119,0.92,6.719,2.24l-1.68,2.2c-1.641-1.28-3-1.88-5.24-1.88c-2.199,0-3.479,1.08-3.479,2.6
		c0,1.76,1.08,2.479,4.639,4.08c3.959,1.799,6.279,2.959,6.279,6.719C322.032,80.64,318.473,82.439,314.833,82.439z"/>
	<path fill="#FFFFFF" d="M353.991,72.521h-13.998c0.28,4.479,2.4,7.319,5.84,7.319c2.439,0,3.879-0.72,5.799-2l1.399,2.16
		c-2.52,1.6-4.359,2.439-7.519,2.439c-3.84,0-8.519-2.799-8.519-11.038c0-6.679,3.679-10.838,8.679-10.838
		c5.479,0,8.438,4.319,8.438,10.318C354.111,71.601,354.071,72.041,353.991,72.521z M345.633,63.163c-3.12,0-5.279,2.24-5.64,6.919
		h11.318C351.071,66.002,349.312,63.163,345.633,63.163z"/>
	<path fill="#FFFFFF" d="M372.871,82V69.722c0-4.52-1.6-6.559-4.959-6.559c-2.919,0-5.199,1.96-5.199,6.559V82h-2.999V61.003h2.999
		v2.56c1.2-1.76,3.159-3,5.8-3c4.438,0,7.357,2.6,7.357,8.639V82H372.871z"/>
	<path fill="#FFFFFF" d="M66.396,120.521H52.398c0.28,4.479,2.399,7.319,5.839,7.319c2.439,0,3.879-0.72,5.799-2l1.399,2.16
		c-2.52,1.6-4.359,2.439-7.519,2.439c-3.839,0-8.519-2.799-8.519-11.038c0-6.679,3.679-10.838,8.678-10.838
		c5.479,0,8.439,4.319,8.439,10.318C66.516,119.601,66.476,120.041,66.396,120.521z M58.038,111.163c-3.12,0-5.279,2.24-5.639,6.919
		h11.318C63.477,114.002,61.717,111.163,58.038,111.163z"/>
	<path fill="#FFFFFF" d="M72.318,130v-27.476l3-1.68V130H72.318z"/>
	<path fill="#FFFFFF" d="M98.357,130.439c-2.88,0-5.399-1.08-7.399-2.68l1.76-2.2c1.68,1.48,3.639,2.32,5.719,2.32
		c2.88,0,4.239-1.2,4.239-3.239c0-1.72-1.24-2.68-4.959-4.279c-4.199-1.8-5.959-3.08-5.959-6.439c0-3.2,2.76-5.359,6.559-5.359
		c2.879,0,5.119,0.92,6.719,2.24l-1.68,2.2c-1.64-1.28-3-1.88-5.239-1.88c-2.2,0-3.479,1.08-3.479,2.6c0,1.76,1.08,2.479,4.639,4.08
		c3.959,1.799,6.279,2.959,6.279,6.719C105.556,128.64,101.996,130.439,98.357,130.439z"/>
	<path fill="#FFFFFF" d="M127.115,120.521h-13.998c0.28,4.479,2.399,7.319,5.839,7.319c2.439,0,3.879-0.72,5.799-2l1.399,2.16
		c-2.52,1.6-4.359,2.439-7.519,2.439c-3.839,0-8.519-2.799-8.519-11.038c0-6.679,3.679-10.838,8.678-10.838
		c5.479,0,8.439,4.319,8.439,10.318C127.235,119.601,127.195,120.041,127.115,120.521z M118.756,111.163
		c-3.12,0-5.279,2.24-5.639,6.919h11.318C124.195,114.002,122.436,111.163,118.756,111.163z"/>
	<path fill="#FFFFFF" d="M145.595,113.282c-1.52-1.36-2.919-2.12-5.039-2.12c-3.279,0-5.799,2.959-5.799,8.199
		c0,5.159,2.2,8.479,5.919,8.479c2.04,0,3.399-0.84,4.839-2.24l1.8,1.92c-1.76,1.8-3.799,2.919-6.759,2.919
		c-4.599,0-8.838-3.52-8.838-10.838c0-7.758,4.639-11.038,9.039-11.038c2.839,0,4.999,1.04,6.639,2.479L145.595,113.282z"/>
	<path fill="#FFFFFF" d="M156.476,111.522V125.2c0,1.88,0.52,2.52,2.12,2.52c1.2,0,2-0.2,2.959-0.6l-0.2,2.6
		c-1.16,0.48-2.28,0.72-3.879,0.72c-2.6,0-4-1.28-4-4.759v-14.158h-2.6v-2.52h2.6v-6.479l3-1.68v8.159h5.199v2.52H156.476z"/>
	<path fill="#FFFFFF" d="M175.436,130.439c-5.119,0-9.039-3.799-9.039-10.918c0-7.119,4.079-10.958,9.198-10.958
		s9.039,3.68,9.039,10.798S180.555,130.439,175.436,130.439z M175.515,111.163c-3.639,0-6.079,2.76-6.079,8.279
		s2.439,8.398,6.079,8.398c3.64,0,6.119-2.879,6.119-8.398S179.155,111.163,175.515,111.163z"/>
	<path fill="#FFFFFF" d="M200.875,112.123c-0.84-0.48-1.76-0.8-3.16-0.8c-2.919,0-4.559,2.359-4.559,6.359V130h-3v-20.997h3v2.6
		c0.96-1.68,2.959-3.04,5.199-3.04c1.56,0,2.56,0.2,3.279,0.52L200.875,112.123z"/>
	<path fill="#FFFFFF" d="M232.714,120.521h-13.998c0.28,4.479,2.399,7.319,5.839,7.319c2.439,0,3.88-0.72,5.8-2l1.398,2.16
		c-2.52,1.6-4.359,2.439-7.518,2.439c-3.84,0-8.519-2.799-8.519-11.038c0-6.679,3.679-10.838,8.678-10.838
		c5.479,0,8.438,4.319,8.438,10.318C232.833,119.601,232.794,120.041,232.714,120.521z M224.354,111.163
		c-3.119,0-5.279,2.24-5.639,6.919h11.318C229.794,114.002,228.034,111.163,224.354,111.163z"/>
	<path fill="#FFFFFF" d="M251.593,130v-12.278c0-4.52-1.6-6.559-4.959-6.559c-2.919,0-5.199,1.96-5.199,6.559V130h-2.999v-20.997
		h2.999v2.56c1.2-1.76,3.16-3,5.8-3c4.438,0,7.358,2.6,7.358,8.639V130H251.593z"/>
	<path fill="#FFFFFF" d="M271.716,130v-27.476l2.999-1.68V130H271.716z"/>
	<path fill="#FFFFFF" d="M293.593,130v-2.56c-1.48,1.6-3.56,3-6.559,3c-3.279,0-6.719-1.64-6.719-6.719
		c0-4.719,3.879-6.719,8.038-6.719c2.12,0,3.999,0.52,5.239,1.2v-2.48c0-3.119-1.48-4.639-4.559-4.639c-2.2,0-4,0.6-5.72,1.6
		l-1.12-2.44c1.84-1,4.32-1.68,7.039-1.68c4.52,0,7.359,1.92,7.359,6.799V130H293.593z M293.593,120.601
		c-1.359-0.76-2.84-1.2-5.398-1.2c-3.08,0-4.92,1.479-4.92,4.119c0,3.12,1.72,4.479,4.279,4.479c2.72,0,4.76-1.4,6.039-3.16V120.601
		z"/>
	<path fill="#FFFFFF" d="M308.913,130.439c-2.879,0-5.398-1.08-7.398-2.68l1.76-2.2c1.68,1.48,3.639,2.32,5.719,2.32
		c2.88,0,4.239-1.2,4.239-3.239c0-1.72-1.239-2.68-4.959-4.279c-4.199-1.8-5.959-3.08-5.959-6.439c0-3.2,2.76-5.359,6.56-5.359
		c2.879,0,5.119,0.92,6.719,2.24l-1.68,2.2c-1.641-1.28-3-1.88-5.24-1.88c-2.199,0-3.479,1.08-3.479,2.6
		c0,1.76,1.08,2.479,4.639,4.08c3.959,1.799,6.279,2.959,6.279,6.719C316.112,128.64,312.553,130.439,308.913,130.439z"/>
	<path fill="#FFFFFF" d="M344.911,137.718V127.44c-1.479,1.6-3.479,3-6.318,3c-4.199,0-7.519-3.2-7.519-10.598
		c0-7.439,3.52-11.278,7.919-11.278c2.639,0,4.439,1.12,5.918,2.8v-2.36h3v27.036L344.911,137.718z M344.911,114.322
		c-1.159-1.76-3.199-3.16-5.678-3.16c-3.48,0-5.199,3-5.199,8.639c0,5.279,1.999,8.039,5.318,8.039c2.24,0,4.08-1.2,5.559-3.04
		V114.322z"/>
	<path fill="#FFFFFF" d="M367.592,130v-2.56c-1.2,1.76-3.159,3-5.8,3c-4.438,0-7.358-2.6-7.358-8.639v-12.798h2.999v12.278
		c0,4.52,1.601,6.559,4.96,6.559c2.919,0,5.199-1.959,5.199-6.559v-12.278h2.999V130H367.592z"/>
	<path fill="#FFFFFF" d="M393.11,120.521h-13.997c0.28,4.479,2.399,7.319,5.839,7.319c2.439,0,3.879-0.72,5.799-2l1.4,2.16
		c-2.52,1.6-4.359,2.439-7.52,2.439c-3.839,0-8.518-2.799-8.518-11.038c0-6.679,3.679-10.838,8.678-10.838
		c5.479,0,8.439,4.319,8.439,10.318C393.231,119.601,393.19,120.041,393.11,120.521z M384.753,111.163
		c-3.12,0-5.279,2.24-5.64,6.919h11.317C390.191,114.002,388.432,111.163,384.753,111.163z"/>
	<path fill="#FFFFFF" d="M71.497,177.999v-2.559c-1.48,1.6-3.56,2.999-6.559,2.999c-3.279,0-6.719-1.64-6.719-6.719
		c0-4.72,3.879-6.72,8.039-6.72c2.12,0,4,0.521,5.239,1.201v-2.48c0-3.119-1.48-4.639-4.559-4.639c-2.2,0-4,0.6-5.719,1.6
		l-1.12-2.44c1.839-1,4.319-1.68,7.039-1.68c4.52,0,7.359,1.92,7.359,6.799v14.637H71.497z M71.497,168.601
		c-1.36-0.76-2.839-1.199-5.399-1.199c-3.08,0-4.919,1.479-4.919,4.119c0,3.119,1.72,4.479,4.279,4.479
		c2.72,0,4.759-1.399,6.039-3.159V168.601z"/>
	<path fill="#FFFFFF" d="M89.937,178.439c-2.64,0-4.439-1.12-5.919-2.8v8.398l-3,1.68v-28.715h3v2.56c1.48-1.6,3.479-3,6.319-3
		c4.2,0,7.519,3.2,7.519,10.598C97.855,174.601,94.336,178.439,89.937,178.439z M89.577,159.163c-2.24,0-4.079,1.2-5.559,3.04
		v10.479c1.16,1.76,3.2,3.159,5.679,3.159c3.479,0,5.199-2.999,5.199-8.639C94.896,161.923,92.896,159.163,89.577,159.163z"/>
	<path fill="#FFFFFF" d="M103.578,177.999v-27.475l3-1.68v29.155H103.578z"/>
	<path fill="#FFFFFF" d="M115.177,153.244c-1.24,0-2.2-0.96-2.2-2.12c0-1.2,0.96-2.16,2.2-2.16c1.12,0,2.08,0.96,2.08,2.16
		C117.257,152.284,116.297,153.244,115.177,153.244z M113.618,177.999v-20.996h3v20.996H113.618z"/>
	<path fill="#FFFFFF" d="M136.215,161.282c-1.52-1.36-2.919-2.12-5.039-2.12c-3.279,0-5.799,2.959-5.799,8.199
		c0,5.159,2.2,8.479,5.919,8.479c2.04,0,3.399-0.84,4.839-2.239l1.8,1.92c-1.76,1.799-3.799,2.919-6.759,2.919
		c-4.599,0-8.838-3.52-8.838-10.839c0-7.758,4.639-11.038,9.039-11.038c2.839,0,4.999,1.04,6.639,2.479L136.215,161.282z"/>
	<path fill="#FFFFFF" d="M155.295,177.999v-2.559c-1.48,1.6-3.56,2.999-6.559,2.999c-3.279,0-6.719-1.64-6.719-6.719
		c0-4.72,3.879-6.72,8.039-6.72c2.12,0,4,0.521,5.239,1.201v-2.48c0-3.119-1.48-4.639-4.559-4.639c-2.2,0-4,0.6-5.719,1.6
		l-1.12-2.44c1.839-1,4.319-1.68,7.039-1.68c4.52,0,7.359,1.92,7.359,6.799v14.637H155.295z M155.295,168.601
		c-1.36-0.76-2.839-1.199-5.399-1.199c-3.08,0-4.919,1.479-4.919,4.119c0,3.119,1.72,4.479,4.279,4.479
		c2.72,0,4.759-1.399,6.039-3.159V168.601z"/>
	<path fill="#FFFFFF" d="M189.212,177.999v-12.277c0-4.799-1.48-6.559-4.519-6.559c-2.84,0-4.679,1.92-4.679,6.559v12.277h-3
		v-12.277c0-4.799-1.6-6.559-4.52-6.559c-2.879,0-4.679,1.92-4.679,6.559v12.277h-3v-20.996h3v2.56c1.08-1.8,2.84-3,5.319-3
		c2.959,0,4.759,1.6,5.759,3.6c1.24-2,2.959-3.6,6.359-3.6c4.279,0,6.959,2.52,6.959,8.639v12.797H189.212z"/>
	<path fill="#FFFFFF" d="M206.655,178.439c-5.119,0-9.039-3.8-9.039-10.918c0-7.119,4.079-10.958,9.198-10.958
		s9.039,3.68,9.039,10.798C215.854,174.479,211.774,178.439,206.655,178.439z M206.735,159.163c-3.639,0-6.079,2.76-6.079,8.279
		s2.439,8.398,6.079,8.398c3.64,0,6.119-2.88,6.119-8.398S210.375,159.163,206.735,159.163z"/>
	<path fill="#FFFFFF" d="M227.175,178.439c-2.879,0-5.399-1.079-7.398-2.68l1.76-2.2c1.68,1.48,3.639,2.32,5.719,2.32
		c2.88,0,4.239-1.199,4.239-3.239c0-1.72-1.239-2.68-4.959-4.279c-4.199-1.8-5.959-3.079-5.959-6.438c0-3.2,2.76-5.36,6.56-5.36
		c2.879,0,5.119,0.92,6.719,2.24l-1.68,2.2c-1.641-1.28-3-1.88-5.24-1.88c-2.199,0-3.479,1.08-3.479,2.599
		c0,1.76,1.08,2.48,4.639,4.08c3.959,1.799,6.279,2.959,6.279,6.719C234.374,176.64,230.814,178.439,227.175,178.439z"/>
	<path fill="#FFFFFF" d="M263.613,177.999v-12.277c0-4.52-1.6-6.559-4.959-6.559c-2.919,0-5.199,1.959-5.199,6.559v12.277h-2.999
		v-20.996h2.999v2.56c1.2-1.76,3.159-3,5.8-3c4.438,0,7.357,2.6,7.357,8.639v12.797H263.613z"/>
	<path fill="#FFFFFF" d="M286.173,177.999v-2.559c-1.2,1.76-3.16,2.999-5.799,2.999c-4.439,0-7.359-2.6-7.359-8.639v-12.798h3
		v12.277c0,4.52,1.6,6.56,4.959,6.56c2.92,0,5.199-1.96,5.199-6.56v-12.277h3v20.996H286.173z"/>
	<path fill="#FFFFFF" d="M311.692,168.521h-13.998c0.279,4.48,2.399,7.319,5.839,7.319c2.439,0,3.88-0.72,5.8-1.999l1.398,2.159
		c-2.52,1.6-4.359,2.439-7.518,2.439c-3.84,0-8.52-2.8-8.52-11.038c0-6.68,3.68-10.838,8.679-10.838
		c5.479,0,8.438,4.319,8.438,10.319C311.812,167.601,311.772,168.041,311.692,168.521z M303.333,159.163
		c-3.119,0-5.279,2.24-5.639,6.918h11.318C308.772,162.003,307.013,159.163,303.333,159.163z"/>
	<path fill="#FFFFFF" d="M323.214,178.439c-2.881,0-5.4-1.079-7.399-2.68l1.76-2.2c1.68,1.48,3.64,2.32,5.719,2.32
		c2.88,0,4.239-1.199,4.239-3.239c0-1.72-1.24-2.68-4.959-4.279c-4.199-1.8-5.959-3.079-5.959-6.438c0-3.2,2.76-5.36,6.559-5.36
		c2.88,0,5.119,0.92,6.719,2.24l-1.68,2.2c-1.639-1.28-2.999-1.88-5.238-1.88c-2.2,0-3.48,1.08-3.48,2.599
		c0,1.76,1.08,2.48,4.64,4.08c3.96,1.799,6.279,2.959,6.279,6.719C330.412,176.64,326.853,178.439,323.214,178.439z"/>
	<path fill="#FFFFFF" d="M339.933,159.522V173.2c0,1.88,0.521,2.52,2.12,2.52c1.2,0,2-0.199,2.96-0.6l-0.2,2.6
		c-1.16,0.48-2.28,0.72-3.88,0.72c-2.6,0-3.999-1.28-3.999-4.759v-14.158h-2.6v-2.52h2.6v-6.479l2.999-1.68v8.159h5.199v2.52
		H339.933z"/>
	<path fill="#FFFFFF" d="M361.692,160.123c-0.84-0.48-1.76-0.8-3.16-0.8c-2.92,0-4.559,2.36-4.559,6.359v12.317h-3v-20.996h3v2.6
		c0.959-1.68,2.959-3.04,5.199-3.04c1.559,0,2.559,0.2,3.279,0.52L361.692,160.123z"/>
	<path fill="#FFFFFF" d="M375.173,178.439c-5.119,0-9.039-3.8-9.039-10.918c0-7.119,4.079-10.958,9.198-10.958
		s9.038,3.68,9.038,10.798C384.37,174.479,380.292,178.439,375.173,178.439z M375.252,159.163c-3.64,0-6.079,2.76-6.079,8.279
		s2.439,8.398,6.079,8.398s6.119-2.88,6.119-8.398S378.892,159.163,375.252,159.163z"/>
	<path fill="#FFFFFF" d="M76.255,216.521H62.258c0.28,4.48,2.399,7.319,5.839,7.319c2.439,0,3.879-0.72,5.799-1.999L75.295,224
		c-2.52,1.6-4.359,2.439-7.519,2.439c-3.839,0-8.519-2.8-8.519-11.038c0-6.68,3.679-10.838,8.678-10.838
		c5.479,0,8.439,4.318,8.439,10.318C76.375,215.601,76.335,216.041,76.255,216.521z M67.897,207.163
		c-3.12,0-5.279,2.239-5.639,6.918h11.318C73.336,210.003,71.576,207.163,67.897,207.163z"/>
	<path fill="#FFFFFF" d="M93.456,225.999l-4.159-7.278l-0.64-1.159l-0.64,1.159l-4.199,7.278h-3.12l6.479-10.838l-6.039-10.158
		h3.319l3.72,6.52l0.64,1.159l0.64-1.159l3.759-6.52h3.12l-6.039,10.078l6.479,10.918H93.456z"/>
	<path fill="#FFFFFF" d="M103.897,201.243c-1.24,0-2.2-0.959-2.2-2.119c0-1.199,0.96-2.16,2.2-2.16c1.12,0,2.08,0.961,2.08,2.16
		C105.977,200.284,105.017,201.243,103.897,201.243z M102.338,225.999v-20.996h3v20.996H102.338z"/>
	<path fill="#FFFFFF" d="M116.017,207.522V221.2c0,1.88,0.52,2.52,2.12,2.52c1.2,0,2-0.199,2.959-0.6l-0.2,2.6
		c-1.16,0.48-2.28,0.72-3.879,0.72c-2.6,0-4-1.28-4-4.759v-14.158h-2.6v-2.52h2.6v-6.479l3-1.68v8.158h5.199v2.52H116.017z"/>
	<path fill="#FFFFFF" d="M134.976,226.439c-5.119,0-9.039-3.8-9.039-10.918c0-7.119,4.079-10.958,9.198-10.958
		s9.039,3.68,9.039,10.798S140.095,226.439,134.976,226.439z M135.056,207.163c-3.639,0-6.079,2.76-6.079,8.278
		s2.439,8.398,6.079,8.398c3.64,0,6.119-2.88,6.119-8.398S138.695,207.163,135.056,207.163z"/>
	<path fill="#FFFFFF" d="M155.496,226.439c-2.88,0-5.399-1.079-7.399-2.68l1.76-2.2c1.68,1.48,3.639,2.32,5.719,2.32
		c2.88,0,4.24-1.199,4.24-3.239c0-1.72-1.24-2.68-4.959-4.279c-4.199-1.8-5.959-3.079-5.959-6.438c0-3.2,2.76-5.359,6.559-5.359
		c2.879,0,5.119,0.92,6.719,2.239l-1.68,2.2c-1.64-1.28-3-1.881-5.239-1.881c-2.2,0-3.479,1.08-3.479,2.6
		c0,1.76,1.08,2.48,4.639,4.08c3.959,1.799,6.279,2.959,6.279,6.719C162.695,224.64,159.135,226.439,155.496,226.439z"/>
	<path fill="#FFFFFF" d="M176.295,226.439c-5.119,0-9.039-3.8-9.039-10.918c0-7.119,4.079-10.958,9.198-10.958
		s9.039,3.68,9.039,10.798S181.415,226.439,176.295,226.439z M176.375,207.163c-3.639,0-6.079,2.76-6.079,8.278
		s2.439,8.398,6.079,8.398c3.64,0,6.119-2.88,6.119-8.398S180.015,207.163,176.375,207.163z"/>
	<path fill="#FFFFFF" d="M225.812,225.999v-12.277c0-4.799-1.479-6.559-4.519-6.559c-2.84,0-4.679,1.92-4.679,6.559v12.277h-3
		v-12.277c0-4.799-1.6-6.559-4.52-6.559c-2.879,0-4.679,1.92-4.679,6.559v12.277h-3v-20.996h3v2.56c1.08-1.8,2.84-2.999,5.319-2.999
		c2.959,0,4.759,1.6,5.759,3.6c1.24-2,2.959-3.6,6.359-3.6c4.279,0,6.959,2.52,6.959,8.639v12.797H225.812z"/>
	<path fill="#FFFFFF" d="M243.255,226.439c-5.119,0-9.039-3.8-9.039-10.918c0-7.119,4.08-10.958,9.199-10.958
		s9.038,3.68,9.038,10.798S248.374,226.439,243.255,226.439z M243.335,207.163c-3.64,0-6.079,2.76-6.079,8.278
		s2.439,8.398,6.079,8.398c3.639,0,6.119-2.88,6.119-8.398S246.974,207.163,243.335,207.163z"/>
	<path fill="#FFFFFF" d="M270.693,225.999v-2.559c-1.479,1.6-3.479,2.999-6.319,2.999c-4.199,0-7.518-3.2-7.518-10.599
		c0-7.438,3.52-11.277,7.918-11.277c2.64,0,4.439,1.119,5.919,2.799v-8.838l2.999-1.68v29.154H270.693z M270.693,210.322
		c-1.159-1.76-3.199-3.159-5.679-3.159c-3.479,0-5.199,2.999-5.199,8.639c0,5.279,2,8.038,5.318,8.038c2.24,0,4.08-1.2,5.56-3.04
		V210.322z"/>
	<path fill="#FFFFFF" d="M296.212,216.521h-13.997c0.28,4.48,2.399,7.319,5.839,7.319c2.439,0,3.879-0.72,5.799-1.999l1.4,2.159
		c-2.52,1.6-4.359,2.439-7.52,2.439c-3.839,0-8.518-2.8-8.518-11.038c0-6.68,3.679-10.838,8.678-10.838
		c5.479,0,8.439,4.318,8.439,10.318C296.333,215.601,296.292,216.041,296.212,216.521z M287.854,207.163
		c-3.12,0-5.279,2.239-5.64,6.918h11.317C293.293,210.003,291.533,207.163,287.854,207.163z"/>
	<path fill="#FFFFFF" d="M302.135,225.999v-27.475l2.999-1.68v29.154H302.135z"/>
	<path fill="#FFFFFF" d="M319.894,226.439c-5.119,0-9.039-3.8-9.039-10.918c0-7.119,4.079-10.958,9.198-10.958
		s9.038,3.68,9.038,10.798S325.013,226.439,319.894,226.439z M319.973,207.163c-3.64,0-6.079,2.76-6.079,8.278
		s2.439,8.398,6.079,8.398s6.119-2.88,6.119-8.398S323.612,207.163,319.973,207.163z"/>
	<path fill="#FFFFFF" d="M357.731,225.999v-2.559c-1.479,1.6-3.479,2.999-6.318,2.999c-4.199,0-7.52-3.2-7.52-10.599
		c0-7.438,3.52-11.277,7.919-11.277c2.64,0,4.439,1.119,5.919,2.799v-8.838l3-1.68v29.154H357.731z M357.731,210.322
		c-1.16-1.76-3.199-3.159-5.679-3.159c-3.479,0-5.199,2.999-5.199,8.639c0,5.279,1.999,8.038,5.319,8.038
		c2.239,0,4.079-1.2,5.559-3.04V210.322z"/>
	<path fill="#FFFFFF" d="M383.251,216.521h-13.998c0.279,4.48,2.399,7.319,5.839,7.319c2.439,0,3.88-0.72,5.8-1.999L382.29,224
		c-2.52,1.6-4.359,2.439-7.518,2.439c-3.84,0-8.52-2.8-8.52-11.038c0-6.68,3.68-10.838,8.679-10.838
		c5.479,0,8.438,4.318,8.438,10.318C383.37,215.601,383.331,216.041,383.251,216.521z M374.892,207.163
		c-3.119,0-5.279,2.239-5.639,6.918h11.318C380.331,210.003,378.571,207.163,374.892,207.163z"/>
	<path fill="#FFFFFF" d="M162.155,273.999v-12.277c0-4.52-1.6-6.559-4.959-6.559c-2.919,0-5.199,1.959-5.199,6.559v12.277h-3
		v-20.996h3v2.56c1.2-1.76,3.16-2.999,5.799-2.999c4.439,0,7.358,2.6,7.358,8.639v12.797H162.155z"/>
	<path fill="#FFFFFF" d="M187.554,264.521h-13.998c0.28,4.48,2.399,7.319,5.839,7.319c2.439,0,3.879-0.72,5.799-1.999l1.399,2.159
		c-2.52,1.6-4.359,2.439-7.519,2.439c-3.839,0-8.519-2.8-8.519-11.038c0-6.68,3.679-10.838,8.678-10.838
		c5.479,0,8.439,4.318,8.439,10.318C187.674,263.601,187.634,264.041,187.554,264.521z M179.196,255.163
		c-3.12,0-5.279,2.239-5.639,6.918h11.318C184.635,258.003,182.875,255.163,179.196,255.163z"/>
	<path fill="#FFFFFF" d="M198.355,281.718l-0.959-2.279c6.999-0.199,8.598-2.039,8.598-6.919v-1.079
		c-1.479,1.6-3.479,2.999-6.319,2.999c-4.199,0-7.519-3.2-7.519-10.599c0-7.438,3.52-11.277,7.918-11.277
		c2.64,0,4.439,1.119,5.919,2.799v-2.359h3v19.117C208.994,278.438,206.154,281.478,198.355,281.718z M205.994,258.322
		c-1.16-1.76-3.199-3.159-5.679-3.159c-3.479,0-5.199,2.999-5.199,8.639c0,5.279,2,8.038,5.319,8.038c2.24,0,4.08-1.2,5.559-3.04
		V258.322z"/>
	<path fill="#FFFFFF" d="M223.555,274.439c-5.119,0-9.039-3.8-9.039-10.918c0-7.119,4.079-10.958,9.198-10.958
		c5.119,0,9.039,3.68,9.039,10.798S228.674,274.439,223.555,274.439z M223.634,255.163c-3.639,0-6.078,2.76-6.078,8.278
		s2.439,8.398,6.078,8.398c3.641,0,6.119-2.88,6.119-8.398S227.274,255.163,223.634,255.163z"/>
	<path fill="#FFFFFF" d="M251.033,257.282c-1.52-1.359-2.919-2.119-5.039-2.119c-3.279,0-5.799,2.959-5.799,8.198
		c0,5.159,2.2,8.479,5.919,8.479c2.039,0,3.399-0.84,4.839-2.239l1.8,1.92c-1.76,1.799-3.799,2.919-6.759,2.919
		c-4.599,0-8.839-3.52-8.839-10.839c0-7.758,4.64-11.037,9.039-11.037c2.84,0,4.999,1.039,6.639,2.479L251.033,257.282z"/>
	<path fill="#FFFFFF" d="M259.835,249.243c-1.24,0-2.199-0.959-2.199-2.119c0-1.199,0.959-2.16,2.199-2.16
		c1.119,0,2.08,0.961,2.08,2.16C261.915,248.284,260.954,249.243,259.835,249.243z M258.275,273.999v-20.996h2.999v20.996H258.275z"
		/>
	<path fill="#FFFFFF" d="M276.034,274.439c-5.119,0-9.039-3.8-9.039-10.918c0-7.119,4.079-10.958,9.198-10.958
		s9.038,3.68,9.038,10.798S281.153,274.439,276.034,274.439z M276.113,255.163c-3.64,0-6.079,2.76-6.079,8.278
		s2.439,8.398,6.079,8.398s6.119-2.88,6.119-8.398S279.753,255.163,276.113,255.163z"/>
	<path fill="#FFFFFF" d="M292.234,274.439c-1.399,0-2.56-1.159-2.56-2.56s1.16-2.64,2.56-2.64c1.36,0,2.56,1.239,2.56,2.64
		S293.595,274.439,292.234,274.439z"/>
</g>
</svg>
