<?xml version="1.0" encoding="utf-8"?>
<!-- Generator: Adobe Illustrator 15.1.0, SVG Export Plug-In . SVG Version: 6.00 Build 0)  -->
<!DOCTYPE svg PUBLIC "-//W3C//DTD SVG 1.1//EN" "http://www.w3.org/Graphics/SVG/1.1/DTD/svg11.dtd">
<svg version="1.1" id="Layer_1" xmlns="http://www.w3.org/2000/svg" xmlns:xlink="http://www.w3.org/1999/xlink" x="0px" y="0px"
	 width="401.072px" height="124.8px" viewBox="0 0 401.072 124.8" enable-background="new 0 0 401.072 124.8" xml:space="preserve">
<rect x="1" y="1" fill="none" width="401.072" height="118.75"/>
<g enable-background="new    ">
	<path fill="#E1134F" d="M17.851,37.449h-7.15c0-11.351,3.8-20.901,10.3-28.352H3.2v-6.65h26.251v6.75
		C22.351,16.147,17.851,25.348,17.851,37.449z"/>
	<path fill="#E1134F" d="M50.101,37.999c-9.051,0-14.651-4.15-14.651-11.051c0-4.85,2.9-7.351,5.55-8.5
		c-2.5-1.351-4.05-3.551-4.05-6.15c0-6.9,5.8-10.4,13.151-10.4c6.9,0,13.15,3.25,13.15,10.101c0,2.5-1.35,4.95-4.05,6.45
		c2.7,1.25,5.55,3.7,5.55,8.15C64.752,33.649,59.151,37.999,50.101,37.999z M50.101,21.848c-5.25,0-7.651,1.95-7.651,4.95
		c0,3.2,3.2,5.05,7.651,5.05c4.8,0,7.65-1.8,7.65-5S55.401,21.848,50.101,21.848z M50.101,7.947c-4.351,0-6.15,1.9-6.15,4.15
		s2.1,4,6.15,4c4.3,0,6.15-1.649,6.15-3.95C56.251,9.897,54.701,7.947,50.101,7.947z"/>
	<path fill="#E1134F" d="M96.45,37.999c-6.85,0-12.301-5.601-12.301-13.65c0-8.051,5.3-13.701,12.601-13.701
		c5,0,8.2,2.45,10.4,5.801l-4.55,4.6c-1.55-2.2-3.2-3.75-6-3.75c-3.3,0-5.45,2.75-5.45,7.051c0,4.2,2.15,7,5.45,7
		c2.7,0,4.4-1.2,6.201-3.35l4.4,4.149C104.651,35.548,101.65,37.999,96.45,37.999z"/>
	<path fill="#E1134F" d="M126.8,37.449v-1.75c-1.25,1.3-3.45,2.3-5.9,2.3c-4.9,0-9.801-3-9.801-9.351c0-5.8,4.7-8.7,10.651-8.7
		c2.4,0,3.95,0.5,5.05,1.05v-1.3c0-1.851-1.25-3.351-3.75-3.351c-3.15,0-4.8,0.45-7.2,1.75l-2.65-4.8
		c3.05-1.75,5.601-2.65,9.851-2.65c6.351,0,10.651,3.301,10.651,9.2v17.602H126.8z M126.8,26.448c-1.2-0.75-2.35-1.1-4.8-1.1
		c-2.6,0-4,1.2-4,3.3c0,1.851,1.05,3.5,4,3.5c2.25,0,4.05-1.149,4.8-2.399V26.448z"/>
	<path fill="#E1134F" d="M155.5,19.248c-1.1-1-2.45-1.7-4-1.7c-2.7,0-4.45,1.15-4.45,5.7v14.201h-6.9V11.197h6.9v1.75
		c1.2-1.25,2.95-2.3,5.4-2.3c2.25,0,3.95,0.9,4.851,1.851L155.5,19.248z"/>
	<path fill="#E1134F" d="M176.899,19.248c-1.1-1-2.45-1.7-4-1.7c-2.7,0-4.45,1.15-4.45,5.7v14.201h-6.9V11.197h6.9v1.75
		c1.2-1.25,2.95-2.3,5.4-2.3c2.25,0,3.95,0.9,4.851,1.851L176.899,19.248z"/>
	<path fill="#E1134F" d="M193.449,37.999c-6.851,0-11.851-5.601-11.851-13.65c0-8.051,5-13.701,11.851-13.701
		c6.85,0,11.9,5.65,11.9,13.701C205.35,32.398,200.299,37.999,193.449,37.999z M193.449,17.297c-3.3,0-4.851,3-4.851,7.051
		c0,4.05,1.55,7,4.851,7c3.3,0,4.9-3.35,4.9-7C198.349,20.348,196.749,17.297,193.449,17.297z"/>
	<path fill="#E1134F" d="M225.349,36.399c-1.15,0.899-3.2,1.6-5.35,1.6c-4.251,0-7.001-3.3-7.001-7.9v-12.4h-4.4v-6.501h4.4v-6.75
		l6.9-3.45v10.2h6.3v6.501h-6.3v10.551c0,2.5,0.899,3.149,2.55,3.149c1.25,0,2.201-0.55,3.9-2L225.349,36.399z"/>
	<path fill="#E1134F" d="M247.248,37.449v-1.75c-1.251,1.3-3.45,2.3-5.9,2.3c-4.9,0-9.801-3-9.801-9.351c0-5.8,4.7-8.7,10.651-8.7
		c2.399,0,3.949,0.5,5.05,1.05v-1.3c0-1.851-1.251-3.351-3.751-3.351c-3.149,0-4.8,0.45-7.199,1.75l-2.65-4.8
		c3.05-1.75,5.6-2.65,9.85-2.65c6.352,0,10.651,3.301,10.651,9.2v17.602H247.248z M247.248,26.448c-1.2-0.75-2.351-1.1-4.8-1.1
		c-2.601,0-4.001,1.2-4.001,3.3c0,1.851,1.05,3.5,4.001,3.5c2.25,0,4.05-1.149,4.8-2.399V26.448z"/>
	<path fill="#E1134F" d="M276.448,37.449V23.248c0-4.7-1.6-6.1-4.45-6.1s-4.501,1.399-4.501,5.95v14.351h-6.9V11.197h6.9v1.75
		c1.201-1.25,3.4-2.3,6.15-2.3c6.701,0,9.701,4.601,9.701,12.001v14.801H276.448z"/>
	<path fill="#E1134F" d="M304.198,47.099V35.798c-1.301,1.15-3.051,2.2-5.551,2.2c-5.6,0-10.201-4.2-10.201-14.001
		c0-7.851,3.701-13.351,10.201-13.351c2.301,0,4.301,0.9,5.551,2.05v-1.5h6.9v32.452L304.198,47.099z M304.198,19.398
		c-1.051-1.45-2.65-2.25-4.65-2.25c-2.65,0-4.101,2.3-4.101,6.7c0,5.4,1.8,7.65,4.501,7.65c2.149,0,3.25-0.9,4.25-2.2V19.398z"/>
	<path fill="#E1134F" d="M333.498,37.449v-1.75c-1.2,1.25-3.4,2.3-6.15,2.3c-6.7,0-9.7-4.6-9.7-12.001V11.197h6.9v14.201
		c0,4.7,1.6,6.101,4.449,6.101c2.852,0,4.501-1.4,4.501-5.95V11.197h6.9v26.252H333.498z"/>
	<path fill="#E1134F" d="M368.397,26.548h-15.7c0.25,3.6,2.899,4.95,5.4,4.95c1.899,0,3.5-0.7,4.5-1.851l4.9,4.101
		c-2.101,2.7-5.9,4.25-9.4,4.25c-7.551,0-12.351-5.351-12.351-13.65c0-8.051,5.05-13.701,11.7-13.701
		c7.001,0,11.051,6.2,11.051,13.701C368.498,25.348,368.448,26.048,368.397,26.548z M357.097,16.648c-2.5,0-4.049,2.05-4.299,4.7h9
		C361.598,18.998,360.198,16.648,357.097,16.648z"/>
	<path fill="#E1134F" d="M384.048,37.999c-4.15,0-8.201-1.2-11.001-3.05l2.3-5.25c2.801,1.55,5.75,2.399,9.101,2.399
		c2.7,0,3.501-0.649,3.501-2c0-1.2-0.951-1.8-3.852-2.65c-6.3-1.899-10.35-3.45-10.35-9c0-5.45,4.35-7.801,10.5-7.801
		c3.301,0,6.9,1,9.701,2.55l-2.201,5.451c-2.6-1.4-5.449-2.101-7.65-2.101c-2.799,0-3.55,0.55-3.55,1.7c0,1.1,0.8,1.55,5.45,3.05
		c4.701,1.551,8.751,3.251,8.751,8.501C394.748,35.849,389.948,37.999,384.048,37.999z"/>
</g>
<g enable-background="new    ">
	<path fill="#FFFFFF" d="M9.568,71.356c-1.848,0-3.108-0.783-4.144-1.96v5.88l-2.1,1.177V56.348h2.1v1.792
		c1.036-1.12,2.436-2.1,4.424-2.1c2.94,0,5.264,2.24,5.264,7.42C15.112,68.668,12.648,71.356,9.568,71.356z M9.316,57.861
		c-1.568,0-2.856,0.84-3.892,2.128v7.336c0.812,1.231,2.24,2.212,3.976,2.212c2.436,0,3.64-2.101,3.64-6.048
		C13.04,59.792,11.64,57.861,9.316,57.861z"/>
	<path fill="#FFFFFF" d="M28.104,71.048v-1.792c-0.84,1.232-2.212,2.1-4.06,2.1c-3.108,0-5.152-1.819-5.152-6.048v-8.96h2.1v8.597
		c0,3.163,1.12,4.592,3.472,4.592c2.044,0,3.64-1.372,3.64-4.592v-8.597h2.1v14.7H28.104z"/>
	<path fill="#FFFFFF" d="M45.967,64.413h-9.8c0.196,3.136,1.68,5.124,4.088,5.124c1.708,0,2.716-0.504,4.06-1.4l0.98,1.512
		c-1.764,1.12-3.052,1.708-5.264,1.708c-2.688,0-5.964-1.96-5.964-7.728c0-4.676,2.576-7.588,6.076-7.588
		c3.836,0,5.908,3.023,5.908,7.224C46.051,63.768,46.023,64.077,45.967,64.413z M40.115,57.861c-2.184,0-3.696,1.567-3.948,4.844
		h7.924C43.923,59.848,42.691,57.861,40.115,57.861z"/>
	<path fill="#FFFFFF" d="M58.875,71.048v-1.792c-1.036,1.12-2.436,2.1-4.424,2.1c-2.94,0-5.264-2.239-5.264-7.42
		c0-5.208,2.464-7.896,5.544-7.896c1.848,0,3.108,0.784,4.144,1.96v-6.188l2.1-1.176v20.412H58.875z M58.875,60.073
		c-0.812-1.232-2.24-2.212-3.976-2.212c-2.436,0-3.64,2.1-3.64,6.048c0,3.695,1.4,5.628,3.724,5.628c1.568,0,2.856-0.84,3.892-2.128
		V60.073z"/>
	<path fill="#FFFFFF" d="M76.739,64.413h-9.8c0.196,3.136,1.68,5.124,4.088,5.124c1.708,0,2.716-0.504,4.06-1.4l0.98,1.512
		c-1.764,1.12-3.052,1.708-5.264,1.708c-2.688,0-5.964-1.96-5.964-7.728c0-4.676,2.576-7.588,6.076-7.588
		c3.836,0,5.908,3.023,5.908,7.224C76.823,63.768,76.795,64.077,76.739,64.413z M70.887,57.861c-2.184,0-3.696,1.567-3.948,4.844
		h7.924C74.695,59.848,73.463,57.861,70.887,57.861z"/>
	<path fill="#FFFFFF" d="M89.955,71.048v-8.596c0-3.164-1.12-4.592-3.472-4.592c-2.044,0-3.64,1.371-3.64,4.592v8.596h-2.1v-14.7
		h2.1v1.792c0.84-1.231,2.212-2.1,4.06-2.1c3.108,0,5.152,1.82,5.152,6.048v8.96H89.955z"/>
	<path fill="#FFFFFF" d="M104.038,71.048V51.812l2.1-1.176v20.412H104.038z"/>
	<path fill="#FFFFFF" d="M111.066,71.048V51.812l2.1-1.176v20.412H111.066z"/>
	<path fill="#FFFFFF" d="M129.07,64.413h-9.8c0.196,3.136,1.68,5.124,4.088,5.124c1.708,0,2.716-0.504,4.06-1.4l0.98,1.512
		c-1.764,1.12-3.052,1.708-5.264,1.708c-2.688,0-5.964-1.96-5.964-7.728c0-4.676,2.576-7.588,6.076-7.588
		c3.836,0,5.908,3.023,5.908,7.224C129.154,63.768,129.126,64.077,129.07,64.413z M123.218,57.861c-2.184,0-3.696,1.567-3.948,4.844
		h7.924C127.026,59.848,125.794,57.861,123.218,57.861z"/>
	<path fill="#FFFFFF" d="M138.981,71.048h-1.848l-5.264-14.7h2.24l3.752,11.564l0.224,0.7l0.224-0.7l3.752-11.564h2.184
		L138.981,71.048z"/>
	<path fill="#FFFFFF" d="M156.117,71.048v-1.792c-1.036,1.12-2.492,2.1-4.592,2.1c-2.296,0-4.704-1.147-4.704-4.703
		c0-3.305,2.716-4.704,5.628-4.704c1.484,0,2.8,0.363,3.668,0.84v-1.736c0-2.184-1.036-3.248-3.192-3.248
		c-1.54,0-2.8,0.42-4.004,1.12l-0.784-1.708c1.288-0.7,3.024-1.176,4.928-1.176c3.164,0,5.152,1.344,5.152,4.76v10.248H156.117z
		 M156.117,64.468c-0.952-0.532-1.988-0.84-3.78-0.84c-2.156,0-3.444,1.036-3.444,2.884c0,2.185,1.204,3.136,2.996,3.136
		c1.904,0,3.332-0.979,4.228-2.212V64.468z"/>
	<path fill="#FFFFFF" d="M170.285,58.533c-0.588-0.336-1.232-0.561-2.212-0.561c-2.044,0-3.192,1.652-3.192,4.452v8.624h-2.1v-14.7
		h2.1v1.82c0.672-1.176,2.072-2.128,3.64-2.128c1.092,0,1.792,0.14,2.296,0.364L170.285,58.533z"/>
	<path fill="#FFFFFF" d="M181.597,71.048V51.812l2.1-1.176v20.412H181.597z"/>
	<path fill="#FFFFFF" d="M194.028,71.356c-3.584,0-6.328-2.659-6.328-7.644s2.856-7.672,6.44-7.672s6.328,2.576,6.328,7.56
		C200.468,68.584,197.612,71.356,194.028,71.356z M194.084,57.861c-2.548,0-4.256,1.932-4.256,5.796c0,3.863,1.708,5.88,4.256,5.88
		c2.548,0,4.284-2.017,4.284-5.88C198.368,59.792,196.632,57.861,194.084,57.861z"/>
	<path fill="#FFFFFF" d="M208.392,71.356c-2.016,0-3.779-0.756-5.18-1.876l1.232-1.54c1.176,1.036,2.548,1.624,4.004,1.624
		c2.016,0,2.968-0.84,2.968-2.268c0-1.204-0.868-1.876-3.472-2.996c-2.939-1.26-4.172-2.156-4.172-4.508
		c0-2.24,1.932-3.752,4.592-3.752c2.016,0,3.584,0.644,4.704,1.568l-1.177,1.539c-1.147-0.896-2.1-1.315-3.668-1.315
		c-1.539,0-2.436,0.756-2.436,1.82c0,1.231,0.756,1.735,3.248,2.855c2.771,1.26,4.396,2.072,4.396,4.704
		C213.433,70.096,210.94,71.356,208.392,71.356z"/>
	<path fill="#FFFFFF" d="M229.308,52.625c-0.867,0-1.512,0.308-1.512,1.54v2.184h2.884v1.765h-2.884v12.936h-2.1V58.113h-2.017
		v-1.765h2.017v-2.016c0-2.632,1.428-3.612,3.472-3.612c0.84,0,1.344,0.084,1.848,0.252v1.988
		C230.54,52.737,229.979,52.625,229.308,52.625z"/>
	<path fill="#FFFFFF" d="M245.771,64.413h-9.8c0.195,3.136,1.68,5.124,4.088,5.124c1.708,0,2.716-0.504,4.061-1.4l0.979,1.512
		c-1.765,1.12-3.052,1.708-5.265,1.708c-2.688,0-5.963-1.96-5.963-7.728c0-4.676,2.576-7.588,6.075-7.588
		c3.837,0,5.908,3.023,5.908,7.224C245.855,63.768,245.827,64.077,245.771,64.413z M239.919,57.861
		c-2.184,0-3.695,1.567-3.947,4.844h7.924C243.728,59.848,242.495,57.861,239.919,57.861z"/>
	<path fill="#FFFFFF" d="M257.279,58.533c-0.589-0.336-1.231-0.561-2.212-0.561c-2.045,0-3.192,1.652-3.192,4.452v8.624h-2.1v-14.7
		h2.1v1.82c0.673-1.176,2.072-2.128,3.64-2.128c1.092,0,1.793,0.14,2.297,0.364L257.279,58.533z"/>
	<path fill="#FFFFFF" d="M268.675,58.533c-0.588-0.336-1.231-0.561-2.212-0.561c-2.044,0-3.192,1.652-3.192,4.452v8.624h-2.1v-14.7
		h2.1v1.82c0.673-1.176,2.072-2.128,3.641-2.128c1.092,0,1.792,0.14,2.296,0.364L268.675,58.533z"/>
	<path fill="#FFFFFF" d="M278.111,71.356c-3.584,0-6.328-2.659-6.328-7.644s2.856-7.672,6.44-7.672s6.328,2.576,6.328,7.56
		C284.552,68.584,281.695,71.356,278.111,71.356z M278.167,57.861c-2.548,0-4.256,1.932-4.256,5.796c0,3.863,1.708,5.88,4.256,5.88
		c2.549,0,4.284-2.017,4.284-5.88C282.451,59.792,280.716,57.861,278.167,57.861z"/>
	<path fill="#FFFFFF" d="M297.347,59.344c-1.064-0.952-2.044-1.483-3.527-1.483c-2.297,0-4.061,2.071-4.061,5.739
		c0,3.612,1.54,5.937,4.145,5.937c1.428,0,2.379-0.588,3.388-1.568l1.26,1.344c-1.231,1.261-2.66,2.044-4.731,2.044
		c-3.221,0-6.188-2.464-6.188-7.588c0-5.432,3.248-7.728,6.328-7.728c1.987,0,3.5,0.728,4.647,1.736L297.347,59.344z"/>
	<path fill="#FFFFFF" d="M310.703,71.048v-1.792c-1.036,1.12-2.492,2.1-4.592,2.1c-2.296,0-4.704-1.147-4.704-4.703
		c0-3.305,2.716-4.704,5.628-4.704c1.483,0,2.8,0.363,3.668,0.84v-1.736c0-2.184-1.036-3.248-3.192-3.248
		c-1.539,0-2.8,0.42-4.004,1.12l-0.783-1.708c1.287-0.7,3.023-1.176,4.928-1.176c3.164,0,5.152,1.344,5.152,4.76v10.248H310.703z
		 M310.703,64.468c-0.952-0.532-1.987-0.84-3.78-0.84c-2.156,0-3.443,1.036-3.443,2.884c0,2.185,1.203,3.136,2.996,3.136
		c1.903,0,3.332-0.979,4.228-2.212V64.468z"/>
	<path fill="#FFFFFF" d="M324.87,58.533c-0.588-0.336-1.231-0.561-2.212-0.561c-2.044,0-3.192,1.652-3.192,4.452v8.624h-2.1v-14.7
		h2.1v1.82c0.673-1.176,2.072-2.128,3.641-2.128c1.092,0,1.792,0.14,2.296,0.364L324.87,58.533z"/>
	<path fill="#FFFFFF" d="M336.267,58.533c-0.588-0.336-1.232-0.561-2.212-0.561c-2.044,0-3.192,1.652-3.192,4.452v8.624h-2.1v-14.7
		h2.1v1.82c0.672-1.176,2.072-2.128,3.641-2.128c1.092,0,1.791,0.14,2.295,0.364L336.267,58.533z"/>
	<path fill="#FFFFFF" d="M341.391,53.716c-0.868,0-1.54-0.672-1.54-1.484c0-0.84,0.672-1.512,1.54-1.512
		c0.784,0,1.456,0.672,1.456,1.512C342.847,53.044,342.175,53.716,341.391,53.716z M340.298,71.048v-14.7h2.101v14.7H340.298z"/>
	<path fill="#FFFFFF" d="M347.326,71.048V51.812l2.101-1.176v20.412H347.326z"/>
	<path fill="#FFFFFF" d="M365.33,64.413h-9.8c0.195,3.136,1.68,5.124,4.088,5.124c1.708,0,2.716-0.504,4.061-1.4l0.979,1.512
		c-1.765,1.12-3.052,1.708-5.265,1.708c-2.688,0-5.963-1.96-5.963-7.728c0-4.676,2.576-7.588,6.075-7.588
		c3.837,0,5.908,3.023,5.908,7.224C365.414,63.768,365.386,64.077,365.33,64.413z M359.478,57.861c-2.184,0-3.695,1.567-3.947,4.844
		h7.924C363.286,59.848,362.054,57.861,359.478,57.861z"/>
	<path fill="#FFFFFF" d="M373.394,71.356c-2.016,0-3.779-0.756-5.18-1.876l1.232-1.54c1.176,1.036,2.547,1.624,4.004,1.624
		c2.016,0,2.968-0.84,2.968-2.268c0-1.204-0.868-1.876-3.472-2.996c-2.94-1.26-4.172-2.156-4.172-4.508
		c0-2.24,1.932-3.752,4.592-3.752c2.016,0,3.584,0.644,4.703,1.568l-1.176,1.539c-1.148-0.896-2.1-1.315-3.668-1.315
		c-1.54,0-2.436,0.756-2.436,1.82c0,1.231,0.756,1.735,3.248,2.855c2.771,1.26,4.396,2.072,4.396,4.704
		C378.434,70.096,375.942,71.356,373.394,71.356z"/>
</g>
<g enable-background="new    ">
	<path fill="#FFFFFF" d="M12.228,110.054v-7.196c-1.036,1.12-2.436,2.1-4.424,2.1c-2.94,0-5.264-2.239-5.264-7.42
		c0-5.208,2.464-7.896,5.544-7.896c1.848,0,3.108,0.784,4.144,1.96V89.95h2.1v18.928L12.228,110.054z M12.228,93.674
		c-0.812-1.232-2.24-2.212-3.976-2.212c-2.436,0-3.64,2.1-3.64,6.048c0,3.695,1.4,5.628,3.724,5.628c1.568,0,2.856-0.84,3.892-2.128
		V93.674z"/>
	<path fill="#FFFFFF" d="M28.104,104.65v-1.792c-0.84,1.232-2.212,2.1-4.06,2.1c-3.108,0-5.152-1.819-5.152-6.048v-8.96h2.1v8.597
		c0,3.163,1.12,4.592,3.472,4.592c2.044,0,3.64-1.372,3.64-4.592V89.95h2.1v14.7H28.104z"/>
	<path fill="#FFFFFF" d="M45.967,98.014h-9.8c0.196,3.136,1.68,5.124,4.088,5.124c1.708,0,2.716-0.504,4.06-1.4l0.98,1.512
		c-1.764,1.12-3.052,1.708-5.264,1.708c-2.688,0-5.964-1.96-5.964-7.728c0-4.676,2.576-7.588,6.076-7.588
		c3.836,0,5.908,3.023,5.908,7.224C46.051,97.37,46.023,97.678,45.967,98.014z M40.115,91.462c-2.184,0-3.696,1.567-3.948,4.844
		h7.924C43.923,93.45,42.691,91.462,40.115,91.462z"/>
	<path fill="#FFFFFF" d="M58.483,87.318c-0.868,0-1.54-0.672-1.54-1.484c0-0.84,0.672-1.512,1.54-1.512
		c0.784,0,1.456,0.672,1.456,1.512C59.939,86.646,59.267,87.318,58.483,87.318z M57.391,104.65v-14.7h2.1v14.7H57.391z"/>
	<path fill="#FFFFFF" d="M73.491,104.65v-8.596c0-3.164-1.12-4.592-3.472-4.592c-2.044,0-3.64,1.371-3.64,4.592v8.596h-2.1v-14.7
		h2.1v1.792c0.84-1.231,2.212-2.1,4.06-2.1c3.108,0,5.152,1.82,5.152,6.048v8.96H73.491z"/>
	<path fill="#FFFFFF" d="M83.71,110.054l-0.672-1.597c4.9-0.14,6.02-1.428,6.02-4.844v-0.756c-1.036,1.12-2.436,2.1-4.424,2.1
		c-2.94,0-5.264-2.239-5.264-7.42c0-5.208,2.464-7.896,5.544-7.896c1.848,0,3.108,0.784,4.144,1.96V89.95h2.1v13.384
		C91.159,107.758,89.17,109.886,83.71,110.054z M89.059,93.674c-0.812-1.232-2.24-2.212-3.976-2.212c-2.436,0-3.64,2.1-3.64,6.048
		c0,3.695,1.4,5.628,3.724,5.628c1.568,0,2.856-0.84,3.892-2.128V93.674z"/>
	<path fill="#FFFFFF" d="M103.31,92.134c-0.588-0.336-1.232-0.561-2.212-0.561c-2.044,0-3.192,1.652-3.192,4.452v8.624h-2.1v-14.7
		h2.1v1.82c0.672-1.176,2.072-2.128,3.64-2.128c1.092,0,1.792,0.14,2.296,0.364L103.31,92.134z"/>
	<path fill="#FFFFFF" d="M118.318,98.014h-9.8c0.196,3.136,1.68,5.124,4.088,5.124c1.708,0,2.716-0.504,4.06-1.4l0.98,1.512
		c-1.764,1.12-3.052,1.708-5.264,1.708c-2.688,0-5.964-1.96-5.964-7.728c0-4.676,2.576-7.588,6.076-7.588
		c3.836,0,5.908,3.023,5.908,7.224C118.402,97.37,118.374,97.678,118.318,98.014z M112.466,91.462c-2.184,0-3.696,1.567-3.948,4.844
		h7.924C116.274,93.45,115.042,91.462,112.466,91.462z"/>
	<path fill="#FFFFFF" d="M126.382,104.958c-2.016,0-3.78-0.756-5.18-1.876l1.232-1.54c1.176,1.036,2.548,1.624,4.004,1.624
		c2.016,0,2.968-0.84,2.968-2.268c0-1.204-0.868-1.876-3.472-2.996c-2.94-1.26-4.172-2.156-4.172-4.508
		c0-2.24,1.932-3.752,4.592-3.752c2.016,0,3.584,0.644,4.704,1.568l-1.176,1.539c-1.148-0.896-2.1-1.315-3.668-1.315
		c-1.54,0-2.436,0.756-2.436,1.82c0,1.231,0.756,1.735,3.248,2.855c2.772,1.26,4.396,2.072,4.396,4.704
		C131.422,103.698,128.93,104.958,126.382,104.958z"/>
	<path fill="#FFFFFF" d="M143.826,104.65v-1.792c-1.036,1.12-2.492,2.1-4.592,2.1c-2.296,0-4.704-1.147-4.704-4.703
		c0-3.305,2.716-4.704,5.628-4.704c1.484,0,2.8,0.363,3.668,0.84v-1.736c0-2.184-1.036-3.248-3.192-3.248
		c-1.54,0-2.8,0.42-4.004,1.12l-0.784-1.708c1.288-0.7,3.024-1.176,4.928-1.176c3.164,0,5.152,1.344,5.152,4.76v10.248H143.826z
		 M143.826,98.07c-0.952-0.532-1.988-0.84-3.78-0.84c-2.156,0-3.444,1.036-3.444,2.884c0,2.185,1.204,3.136,2.996,3.136
		c1.904,0,3.332-0.979,4.228-2.212V98.07z"/>
	<path fill="#FFFFFF" d="M159.702,104.65v-8.596c0-3.164-1.12-4.592-3.472-4.592c-2.044,0-3.64,1.371-3.64,4.592v8.596h-2.1v-14.7
		h2.1v1.792c0.84-1.231,2.212-2.1,4.06-2.1c3.108,0,5.152,1.82,5.152,6.048v8.96H159.702z"/>
	<path fill="#FFFFFF" d="M182.073,104.65v-1.792c-1.036,1.12-2.492,2.1-4.592,2.1c-2.296,0-4.704-1.147-4.704-4.703
		c0-3.305,2.716-4.704,5.628-4.704c1.484,0,2.8,0.363,3.668,0.84v-1.736c0-2.184-1.036-3.248-3.192-3.248
		c-1.54,0-2.8,0.42-4.004,1.12l-0.784-1.708c1.288-0.7,3.024-1.176,4.928-1.176c3.164,0,5.152,1.344,5.152,4.76v10.248H182.073z
		 M182.073,98.07c-0.952-0.532-1.988-0.84-3.78-0.84c-2.156,0-3.444,1.036-3.444,2.884c0,2.185,1.204,3.136,2.996,3.136
		c1.904,0,3.332-0.979,4.228-2.212V98.07z"/>
	<path fill="#FFFFFF" d="M196.156,104.65V85.414l2.1-1.176v20.412H196.156z"/>
	<path fill="#FFFFFF" d="M211.472,104.65v-1.792c-1.035,1.12-2.492,2.1-4.592,2.1c-2.296,0-4.703-1.147-4.703-4.703
		c0-3.305,2.715-4.704,5.627-4.704c1.484,0,2.801,0.363,3.668,0.84v-1.736c0-2.184-1.035-3.248-3.191-3.248
		c-1.54,0-2.801,0.42-4.004,1.12l-0.784-1.708c1.288-0.7,3.024-1.176,4.929-1.176c3.163,0,5.151,1.344,5.151,4.76v10.248H211.472z
		 M211.472,98.07c-0.951-0.532-1.987-0.84-3.779-0.84c-2.156,0-3.444,1.036-3.444,2.884c0,2.185,1.204,3.136,2.996,3.136
		c1.903,0,3.332-0.979,4.228-2.212V98.07z"/>
	<path fill="#FFFFFF" d="M228.104,91.714v9.575c0,1.316,0.364,1.765,1.483,1.765c0.84,0,1.4-0.141,2.072-0.42l-0.141,1.819
		c-0.812,0.336-1.596,0.504-2.715,0.504c-1.82,0-2.801-0.896-2.801-3.332v-9.911h-1.82V89.95h1.82v-4.536l2.101-1.176v5.712h3.64
		v1.765H228.104z"/>
	<path fill="#FFFFFF" d="M246.947,98.014h-9.8c0.195,3.136,1.68,5.124,4.088,5.124c1.708,0,2.716-0.504,4.061-1.4l0.979,1.512
		c-1.765,1.12-3.052,1.708-5.265,1.708c-2.688,0-5.963-1.96-5.963-7.728c0-4.676,2.576-7.588,6.075-7.588
		c3.837,0,5.908,3.023,5.908,7.224C247.031,97.37,247.003,97.678,246.947,98.014z M241.095,91.462c-2.184,0-3.695,1.567-3.947,4.844
		h7.924C244.903,93.45,243.671,91.462,241.095,91.462z"/>
	<path fill="#FFFFFF" d="M258.455,92.134c-0.589-0.336-1.231-0.561-2.212-0.561c-2.045,0-3.192,1.652-3.192,4.452v8.624h-2.1v-14.7
		h2.1v1.82c0.673-1.176,2.072-2.128,3.64-2.128c1.092,0,1.793,0.14,2.297,0.364L258.455,92.134z"/>
	<path fill="#FFFFFF" d="M279.427,104.65v-8.596c0-3.36-1.036-4.592-3.164-4.592c-1.988,0-3.275,1.344-3.275,4.592v8.596h-2.101
		v-8.596c0-3.36-1.12-4.592-3.163-4.592c-2.017,0-3.277,1.344-3.277,4.592v8.596h-2.1v-14.7h2.1v1.792
		c0.757-1.26,1.988-2.1,3.725-2.1c2.072,0,3.332,1.12,4.032,2.52c0.868-1.399,2.071-2.52,4.452-2.52
		c2.996,0,4.871,1.764,4.871,6.048v8.96H279.427z"/>
	<path fill="#FFFFFF" d="M287.323,87.318c-0.869,0-1.541-0.672-1.541-1.484c0-0.84,0.672-1.512,1.541-1.512
		c0.783,0,1.455,0.672,1.455,1.512C288.778,86.646,288.106,87.318,287.323,87.318z M286.23,104.65v-14.7h2.101v14.7H286.23z"/>
	<path fill="#FFFFFF" d="M302.331,104.65v-8.596c0-3.164-1.121-4.592-3.473-4.592c-2.044,0-3.641,1.371-3.641,4.592v8.596h-2.1
		v-14.7h2.1v1.792c0.841-1.231,2.213-2.1,4.061-2.1c3.107,0,5.152,1.82,5.152,6.048v8.96H302.331z"/>
	<path fill="#FFFFFF" d="M317.423,104.65v-1.792c-1.037,1.12-2.492,2.1-4.592,2.1c-2.297,0-4.705-1.147-4.705-4.703
		c0-3.305,2.717-4.704,5.629-4.704c1.483,0,2.799,0.363,3.668,0.84v-1.736c0-2.184-1.037-3.248-3.192-3.248
		c-1.54,0-2.8,0.42-4.004,1.12l-0.784-1.708c1.288-0.7,3.023-1.176,4.928-1.176c3.164,0,5.152,1.344,5.152,4.76v10.248H317.423z
		 M317.423,98.07c-0.953-0.532-1.988-0.84-3.78-0.84c-2.156,0-3.444,1.036-3.444,2.884c0,2.185,1.204,3.136,2.996,3.136
		c1.904,0,3.332-0.979,4.229-2.212V98.07z"/>
	<path fill="#FFFFFF" d="M324.226,104.65V85.414l2.1-1.176v20.412H324.226z"/>
	<path fill="#FFFFFF" d="M332.149,104.958c-0.98,0-1.792-0.812-1.792-1.792c0-0.979,0.812-1.848,1.792-1.848
		c0.952,0,1.792,0.868,1.792,1.848C333.941,104.146,333.102,104.958,332.149,104.958z"/>
</g>
</svg>
