<?xml version="1.0" encoding="utf-8"?>
<!-- Generator: Adobe Illustrator 15.1.0, SVG Export Plug-In . SVG Version: 6.00 Build 0)  -->
<!DOCTYPE svg PUBLIC "-//W3C//DTD SVG 1.1//EN" "http://www.w3.org/Graphics/SVG/1.1/DTD/svg11.dtd">
<svg version="1.1" id="Layer_1" xmlns="http://www.w3.org/2000/svg" xmlns:xlink="http://www.w3.org/1999/xlink" x="0px" y="0px"
	 width="401.072px" height="124.8px" viewBox="0 0 401.072 124.8" enable-background="new 0 0 401.072 124.8" xml:space="preserve">
<g>
	<rect y="6.05" fill="none" width="401.072" height="118.75"/>
	<path fill="#E1134F" d="M3.15,42.5c0.2-12,7.55-17.201,16.101-20.951c3-1.3,3.95-2.7,3.95-4.2c0-1.8-1.55-3.55-5.75-3.55
		c-4.15,0-7.5,1.85-9.951,4.2L3,12.748c3.7-3.75,8.651-5.8,14.201-5.8c8.3,0,13,3.35,13,10.051c0,5.65-3.05,8.101-9,10.851
		c-6.2,2.85-8.601,5.2-9.25,7.9h18.601v6.75H3.15z"/>
	<path fill="#E1134F" d="M40.95,43.049c-2.55,0-4.7-2.15-4.7-4.7c0-2.55,2.15-4.7,4.7-4.7c2.55,0,4.7,2.15,4.7,4.7
		C45.65,40.899,43.5,43.049,40.95,43.049z"/>
	<path fill="#E1134F" d="M64.9,43.049c-9.55,0-14.651-7.4-14.651-18.051S55.399,6.947,64.95,6.947c9.55,0,14.701,7.3,14.701,17.951
		S74.451,43.049,64.9,43.049z M64.9,13.798c-5.35,0-7.55,4.85-7.55,11.101S59.6,36.2,64.951,36.2c5.35,0,7.6-4.95,7.6-11.201
		S70.251,13.798,64.9,13.798z"/>
	<path fill="#E1134F" d="M99.3,43.049c-9.55,0-14.651-7.4-14.651-18.051S89.799,6.947,99.35,6.947c9.55,0,14.701,7.3,14.701,17.951
		S108.851,43.049,99.3,43.049z M99.3,13.798c-5.35,0-7.55,4.85-7.55,11.101s2.25,11.3,7.6,11.3s7.6-4.95,7.6-11.201
		S104.65,13.798,99.3,13.798z"/>
	<path fill="#E1134F" d="M133.699,43.049c-9.55,0-14.651-7.4-14.651-18.051s5.15-18.051,14.701-18.051
		c9.55,0,14.701,7.3,14.701,17.951S143.25,43.049,133.699,43.049z M133.699,13.798c-5.35,0-7.55,4.85-7.55,11.101
		s2.25,11.301,7.601,11.301c5.35,0,7.6-4.95,7.6-11.201S139.05,13.798,133.699,13.798z"/>
	<path fill="#E1134F" d="M181.248,43.049c-2.3,0-4.3-0.9-5.55-2.05v7.7l-6.9,3.45V16.248h6.9v1.65c1.3-1.15,3.05-2.2,5.55-2.2
		c5.601,0,10.201,4.2,10.201,14.001C191.449,37.549,187.749,43.049,181.248,43.049z M179.948,22.198c-2.15,0-3.25,0.9-4.25,2.2v9.9
		c1.05,1.45,2.65,2.25,4.65,2.25c2.65,0,4.1-2.3,4.1-6.701C184.448,24.448,182.648,22.198,179.948,22.198z"/>
	<path fill="#E1134F" d="M200.598,14.098c-2.15,0-3.951-1.8-3.951-3.95s1.8-3.95,3.951-3.95s3.949,1.8,3.949,3.95
		S202.748,14.098,200.598,14.098z M197.147,42.5V16.248h6.9V42.5H197.147z"/>
	<path fill="#E1134F" d="M223.447,43.049c-2.3,0-4.3-0.9-5.55-2.05v7.7l-6.9,3.45V16.248h6.9v1.65c1.3-1.15,3.05-2.2,5.55-2.2
		c5.602,0,10.2,4.2,10.2,14.001C233.647,37.549,229.948,43.049,223.447,43.049z M222.147,22.198c-2.149,0-3.25,0.9-4.25,2.2v9.9
		c1.05,1.45,2.649,2.25,4.649,2.25c2.649,0,4.101-2.3,4.101-6.701C226.647,24.448,224.849,22.198,222.147,22.198z"/>
	<path fill="#E1134F" d="M253.548,42.5v-1.75c-1.251,1.3-3.449,2.3-5.9,2.3c-4.899,0-9.801-3-9.801-9.35
		c0-5.801,4.7-8.701,10.651-8.701c2.399,0,3.949,0.5,5.05,1.05v-1.3c0-1.85-1.251-3.35-3.751-3.35c-3.149,0-4.8,0.45-7.198,1.75
		l-2.65-4.8c3.05-1.75,5.6-2.65,9.85-2.65c6.352,0,10.651,3.3,10.651,9.201v17.6H253.548z M253.548,31.499
		c-1.199-0.75-2.351-1.1-4.8-1.1c-2.601,0-4.001,1.2-4.001,3.3c0,1.85,1.05,3.5,4.001,3.5c2.25,0,4.05-1.15,4.8-2.4V31.499z"/>
	<path fill="#E1134F" d="M276.947,43.049c-4.15,0-8.201-1.2-11.001-3.05l2.3-5.25c2.801,1.55,5.751,2.4,9.103,2.4
		c2.698,0,3.5-0.65,3.5-2c0-1.2-0.951-1.8-3.852-2.65c-6.301-1.9-10.352-3.45-10.352-9c0-5.451,4.352-7.801,10.502-7.801
		c3.299,0,6.899,1,9.699,2.55l-2.199,5.45c-2.602-1.4-5.451-2.1-7.65-2.1c-2.801,0-3.551,0.55-3.551,1.7
		c0,1.1,0.801,1.55,5.451,3.05c4.699,1.55,8.75,3.25,8.75,8.5C287.647,40.899,282.849,43.049,276.947,43.049z"/>
	<path fill="#FFFFFF" d="M11.256,64.396c-1.064-0.952-2.044-1.484-3.528-1.484c-2.296,0-4.06,2.072-4.06,5.74
		c0,3.611,1.54,5.936,4.144,5.936c1.428,0,2.38-0.588,3.388-1.567l1.26,1.345c-1.232,1.26-2.66,2.045-4.732,2.045
		c-3.22,0-6.188-2.465-6.188-7.589c0-5.432,3.248-7.729,6.328-7.729c1.988,0,3.5,0.729,4.648,1.736L11.256,64.396z"/>
	<path fill="#FFFFFF" d="M24.612,76.099v-1.791c-1.036,1.119-2.492,2.1-4.592,2.1c-2.296,0-4.704-1.148-4.704-4.703
		c0-3.305,2.716-4.705,5.628-4.705c1.484,0,2.8,0.365,3.668,0.84v-1.735c0-2.185-1.036-3.248-3.192-3.248
		c-1.54,0-2.8,0.421-4.004,1.121l-0.784-1.709c1.288-0.699,3.024-1.176,4.928-1.176c3.164,0,5.152,1.344,5.152,4.76V76.1
		L24.612,76.099L24.612,76.099z M24.612,69.519c-0.952-0.531-1.988-0.84-3.78-0.84c-2.156,0-3.444,1.037-3.444,2.885
		c0,2.184,1.204,3.137,2.996,3.137c1.904,0,3.332-0.979,4.228-2.213V69.519z"/>
	<path fill="#FFFFFF" d="M38.78,63.583c-0.588-0.336-1.232-0.562-2.212-0.562c-2.044,0-3.192,1.651-3.192,4.453v8.623h-2.1V61.4h2.1
		v1.82c0.672-1.177,2.072-2.129,3.64-2.129c1.092,0,1.792,0.141,2.296,0.364L38.78,63.583z"/>
	<path fill="#FFFFFF" d="M46.228,81.503l-0.672-1.596c4.9-0.142,6.02-1.429,6.02-4.845v-0.756c-1.036,1.118-2.436,2.101-4.424,2.101
		c-2.94,0-5.264-2.24-5.264-7.421c0-5.208,2.464-7.896,5.544-7.896c1.848,0,3.108,0.784,4.144,1.961V61.4h2.1v13.385
		C53.676,79.208,51.688,81.335,46.228,81.503z M51.576,65.125c-0.812-1.231-2.24-2.213-3.976-2.213c-2.436,0-3.64,2.101-3.64,6.049
		c0,3.695,1.4,5.627,3.724,5.627c1.568,0,2.856-0.84,3.892-2.127V65.125z"/>
	<path fill="#FFFFFF" d="M66.751,76.099v-1.791c-1.036,1.119-2.492,2.1-4.592,2.1c-2.296,0-4.704-1.148-4.704-4.703
		c0-3.305,2.716-4.705,5.628-4.705c1.484,0,2.8,0.365,3.668,0.84v-1.735c0-2.185-1.036-3.248-3.192-3.248
		c-1.54,0-2.8,0.421-4.004,1.121l-0.784-1.709c1.288-0.699,3.024-1.176,4.928-1.176c3.164,0,5.152,1.344,5.152,4.76V76.1
		L66.751,76.099L66.751,76.099z M66.751,69.519c-0.952-0.531-1.988-0.84-3.78-0.84c-2.156,0-3.444,1.037-3.444,2.885
		c0,2.184,1.204,3.137,2.996,3.137c1.904,0,3.332-0.979,4.228-2.213V69.519z"/>
	<path fill="#FFFFFF" d="M80.919,63.583c-0.588-0.336-1.232-0.562-2.212-0.562c-2.044,0-3.192,1.651-3.192,4.453v8.623h-2.1V61.4
		h2.1v1.82c0.672-1.177,2.072-2.129,3.64-2.129c1.092,0,1.792,0.141,2.296,0.364L80.919,63.583z"/>
	<path fill="#FFFFFF" d="M93.239,76.099v-1.791c-1.036,1.119-2.492,2.1-4.592,2.1c-2.296,0-4.704-1.148-4.704-4.703
		c0-3.305,2.716-4.705,5.628-4.705c1.484,0,2.8,0.365,3.668,0.84v-1.735c0-2.185-1.036-3.248-3.192-3.248
		c-1.54,0-2.8,0.421-4.004,1.121l-0.784-1.709c1.288-0.699,3.024-1.176,4.928-1.176c3.164,0,5.152,1.344,5.152,4.76V76.1
		L93.239,76.099L93.239,76.099z M93.239,69.519c-0.952-0.531-1.988-0.84-3.78-0.84c-2.156,0-3.444,1.037-3.444,2.885
		c0,2.184,1.204,3.137,2.996,3.137c1.904,0,3.332-0.979,4.229-2.213V69.519z"/>
	<path fill="#FFFFFF" d="M109.115,76.099v-8.596c0-3.164-1.12-4.592-3.472-4.592c-2.044,0-3.64,1.371-3.64,4.592v8.596h-2.1V61.4
		h2.1v1.792c0.84-1.232,2.212-2.101,4.06-2.101c3.108,0,5.152,1.821,5.152,6.049v8.959H109.115z"/>
	<path fill="#FFFFFF" d="M134.174,69.464h-9.8c0.196,3.135,1.68,5.123,4.088,5.123c1.708,0,2.716-0.504,4.06-1.4l0.98,1.514
		c-1.764,1.119-3.052,1.707-5.264,1.707c-2.688,0-5.964-1.959-5.964-7.729c0-4.676,2.576-7.588,6.076-7.588
		c3.836,0,5.908,3.024,5.908,7.225C134.258,68.82,134.23,69.126,134.174,69.464z M128.322,62.912c-2.184,0-3.696,1.568-3.948,4.844
		h7.924C132.13,64.9,130.898,62.912,128.322,62.912z"/>
	<path fill="#FFFFFF" d="M147.39,76.099v-8.596c0-3.164-1.12-4.592-3.472-4.592c-2.044,0-3.64,1.371-3.64,4.592v8.596h-2.1V61.4h2.1
		v1.792c0.84-1.232,2.212-2.101,4.06-2.101c3.108,0,5.152,1.821,5.152,6.049v8.959H147.39z"/>
	<path fill="#FFFFFF" d="M161.473,76.099V56.864l2.1-1.176V76.1L161.473,76.099L161.473,76.099z"/>
	<path fill="#FFFFFF" d="M176.789,76.099v-1.791c-1.036,1.119-2.492,2.1-4.592,2.1c-2.296,0-4.704-1.148-4.704-4.703
		c0-3.305,2.716-4.705,5.628-4.705c1.484,0,2.8,0.365,3.668,0.84v-1.735c0-2.185-1.036-3.248-3.192-3.248
		c-1.54,0-2.8,0.421-4.004,1.121l-0.784-1.709c1.288-0.699,3.024-1.176,4.928-1.176c3.164,0,5.152,1.344,5.152,4.76V76.1
		L176.789,76.099L176.789,76.099z M176.789,69.519c-0.952-0.531-1.988-0.84-3.78-0.84c-2.156,0-3.444,1.037-3.444,2.885
		c0,2.184,1.204,3.137,2.996,3.137c1.904,0,3.332-0.979,4.228-2.213V69.519z"/>
	<path fill="#FFFFFF" d="M193.421,63.164v9.576c0,1.316,0.364,1.764,1.484,1.764c0.84,0,1.4-0.139,2.072-0.42l-0.14,1.82
		c-0.812,0.336-1.596,0.504-2.716,0.504c-1.82,0-2.8-0.896-2.8-3.332v-9.912h-1.82V61.4h1.82v-4.536l2.1-1.176V61.4h3.64v1.764
		H193.421z"/>
	<path fill="#FFFFFF" d="M212.265,69.464h-9.8c0.195,3.135,1.681,5.123,4.088,5.123c1.708,0,2.716-0.504,4.062-1.4l0.979,1.514
		c-1.765,1.119-3.052,1.707-5.265,1.707c-2.688,0-5.963-1.959-5.963-7.729c0-4.676,2.575-7.588,6.075-7.588
		c3.836,0,5.908,3.024,5.908,7.225C212.349,68.82,212.319,69.126,212.265,69.464z M206.412,62.912c-2.185,0-3.695,1.568-3.947,4.844
		h7.925C210.222,64.9,208.988,62.912,206.412,62.912z"/>
	<path fill="#FFFFFF" d="M223.772,63.583c-0.59-0.336-1.231-0.562-2.213-0.562c-2.045,0-3.191,1.651-3.191,4.453v8.623h-2.1V61.4
		h2.1v1.82c0.673-1.177,2.072-2.129,3.64-2.129c1.093,0,1.793,0.141,2.298,0.364L223.772,63.583z"/>
	<path fill="#FFFFFF" d="M244.744,76.099v-8.596c0-3.359-1.036-4.592-3.164-4.592c-1.988,0-3.274,1.344-3.274,4.592v8.596h-2.102
		v-8.596c0-3.359-1.12-4.592-3.163-4.592c-2.017,0-3.276,1.344-3.276,4.592v8.596h-2.101V61.4h2.101v1.792
		c0.756-1.261,1.987-2.101,3.725-2.101c2.072,0,3.332,1.121,4.031,2.521c0.869-1.399,2.071-2.521,4.453-2.521
		c2.995,0,4.87,1.764,4.87,6.049v8.959H244.744z"/>
	<path fill="#FFFFFF" d="M252.642,58.768c-0.869,0-1.541-0.672-1.541-1.484c0-0.84,0.672-1.512,1.541-1.512
		c0.782,0,1.455,0.672,1.455,1.512C254.097,58.096,253.424,58.768,252.642,58.768z M251.548,76.099V61.4h2.102v14.699H251.548z"/>
	<path fill="#FFFFFF" d="M267.647,76.099v-8.596c0-3.164-1.121-4.592-3.473-4.592c-2.044,0-3.641,1.371-3.641,4.592v8.596h-2.1V61.4
		h2.1v1.792c0.841-1.232,2.213-2.101,4.061-2.101c3.107,0,5.152,1.821,5.152,6.049v8.959H267.647z"/>
	<path fill="#FFFFFF" d="M282.739,76.099v-1.791c-1.036,1.119-2.492,2.1-4.592,2.1c-2.297,0-4.705-1.148-4.705-4.703
		c0-3.305,2.717-4.705,5.629-4.705c1.482,0,2.8,0.365,3.668,0.84v-1.735c0-2.185-1.036-3.248-3.192-3.248
		c-1.539,0-2.8,0.421-4.004,1.121l-0.783-1.709c1.287-0.699,3.023-1.176,4.929-1.176c3.164,0,5.151,1.344,5.151,4.76V76.1
		L282.739,76.099L282.739,76.099z M282.739,69.519c-0.952-0.531-1.987-0.84-3.78-0.84c-2.156,0-3.442,1.037-3.442,2.885
		c0,2.184,1.202,3.137,2.996,3.137c1.902,0,3.331-0.979,4.228-2.213L282.739,69.519L282.739,69.519z"/>
	<path fill="#FFFFFF" d="M289.543,76.099V56.864l2.101-1.176V76.1L289.543,76.099L289.543,76.099z"/>
	<path fill="#FFFFFF" d="M8.568,110.007c-1.848,0-3.108-0.783-4.144-1.959v5.879l-2.1,1.178V95h2.1v1.793
		c1.036-1.121,2.436-2.1,4.424-2.1c2.94,0,5.264,2.24,5.264,7.42C14.112,107.32,11.648,110.007,8.568,110.007z M8.316,96.513
		c-1.568,0-2.856,0.84-3.892,2.127v7.336c0.812,1.232,2.24,2.213,3.976,2.213c2.436,0,3.64-2.102,3.64-6.049
		C12.04,98.445,10.64,96.513,8.316,96.513z"/>
	<path fill="#FFFFFF" d="M23.52,110.007c-3.584,0-6.328-2.658-6.328-7.643c0-4.986,2.856-7.673,6.44-7.673s6.328,2.576,6.328,7.56
		C29.96,107.236,27.104,110.007,23.52,110.007z M23.576,96.513c-2.548,0-4.256,1.932-4.256,5.795s1.708,5.881,4.256,5.881
		c2.548,0,4.284-2.018,4.284-5.881S26.124,96.513,23.576,96.513z"/>
	<path fill="#FFFFFF" d="M41.328,97.185c-0.588-0.336-1.232-0.561-2.212-0.561c-2.044,0-3.192,1.651-3.192,4.451v8.625h-2.1V95h2.1
		v1.82c0.672-1.176,2.072-2.127,3.64-2.127c1.092,0,1.792,0.139,2.296,0.363L41.328,97.185z"/>
	<path fill="#FFFFFF" d="M69.579,109.701v-8.596c0-3.361-1.036-4.592-3.164-4.592c-1.988,0-3.276,1.344-3.276,4.592v8.596h-2.1
		v-8.596c0-3.361-1.12-4.592-3.164-4.592c-2.016,0-3.276,1.344-3.276,4.592v8.596h-2.1V95h2.1v1.793c0.756-1.26,1.988-2.1,3.724-2.1
		c2.072,0,3.332,1.119,4.032,2.52c0.868-1.399,2.072-2.52,4.452-2.52c2.996,0,4.872,1.764,4.872,6.047v8.961H69.579z"/>
	<path fill="#FFFFFF" d="M87.359,103.064h-9.8c0.196,3.137,1.68,5.125,4.088,5.125c1.708,0,2.716-0.504,4.06-1.4l0.98,1.512
		c-1.764,1.119-3.052,1.707-5.264,1.707c-2.688,0-5.964-1.959-5.964-7.727c0-4.676,2.576-7.588,6.076-7.588
		c3.836,0,5.908,3.023,5.908,7.223C87.443,102.419,87.415,102.728,87.359,103.064z M81.507,96.513c-2.184,0-3.696,1.566-3.948,4.844
		h7.924C85.315,98.5,84.083,96.513,81.507,96.513z"/>
	<path fill="#FFFFFF" d="M95.422,110.007c-2.016,0-3.78-0.756-5.18-1.875l1.232-1.541c1.176,1.037,2.548,1.625,4.004,1.625
		c2.016,0,2.968-0.84,2.968-2.268c0-1.205-0.868-1.878-3.472-2.996c-2.94-1.261-4.172-2.156-4.172-4.509
		c0-2.239,1.932-3.752,4.592-3.752c2.016,0,3.584,0.644,4.704,1.565L98.922,97.8c-1.148-0.896-2.1-1.316-3.668-1.316
		c-1.54,0-2.436,0.756-2.436,1.82c0,1.232,0.756,1.736,3.248,2.855c2.772,1.26,4.396,2.071,4.396,4.705
		C100.462,108.748,97.971,110.007,95.422,110.007z"/>
	<path fill="#FFFFFF" d="M105.474,110.007c-0.98,0-1.792-0.812-1.792-1.791c0-0.98,0.812-1.848,1.792-1.848
		c0.952,0,1.792,0.866,1.792,1.848C107.266,109.197,106.426,110.007,105.474,110.007z"/>
</g>
</svg>
