<?xml version="1.0" encoding="utf-8"?>
<!-- Generator: Adobe Illustrator 15.1.0, SVG Export Plug-In . SVG Version: 6.00 Build 0)  -->
<!DOCTYPE svg PUBLIC "-//W3C//DTD SVG 1.1//EN" "http://www.w3.org/Graphics/SVG/1.1/DTD/svg11.dtd">
<svg version="1.1" id="Layer_1" xmlns="http://www.w3.org/2000/svg" xmlns:xlink="http://www.w3.org/1999/xlink" x="0px" y="0px"
	 width="270.385px" height="67.29px" viewBox="0 0 270.385 67.29" enable-background="new 0 0 270.385 67.29" xml:space="preserve">
<g>
	<g>
		<path fill="#FFFFFF" d="M1.83,25.5v-2.04l9.93-13.529c0.84-1.14,1.77-2.37,2.55-3.39h-2.37H2.43v-2.04h14.399v2.04L6.899,20.07
			c-0.84,1.14-1.77,2.37-2.55,3.39h2.37h10.109v2.04H1.83z"/>
		<path fill="#FFFFFF" d="M27.27,25.83c-3.84,0-6.779-2.85-6.779-8.189s3.06-8.22,6.899-8.22s6.779,2.76,6.779,8.1
			S31.109,25.83,27.27,25.83z M27.329,11.37c-2.729,0-4.56,2.07-4.56,6.21s1.83,6.3,4.56,6.3c2.73,0,4.59-2.16,4.59-6.3
			S30.06,11.37,27.329,11.37z"/>
		<path fill="#FFFFFF" d="M48.179,25.5v-9.21c0-3.39-1.2-4.92-3.72-4.92c-2.189,0-3.899,1.471-3.899,4.92v9.21h-2.25V9.751h2.25
			v1.92c0.899-1.32,2.369-2.25,4.35-2.25c3.33,0,5.52,1.949,5.52,6.479v9.6H48.179z"/>
		<path fill="#FFFFFF" d="M64.349,25.5v-1.92c-1.11,1.2-2.67,2.25-4.92,2.25c-2.46,0-5.04-1.23-5.04-5.04
			c0-3.54,2.91-5.04,6.03-5.04c1.59,0,3,0.391,3.93,0.9v-1.86c0-2.34-1.11-3.479-3.42-3.479c-1.649,0-3,0.45-4.29,1.2l-0.84-1.83
			c1.38-0.75,3.24-1.26,5.28-1.26c3.39,0,5.52,1.439,5.52,5.1V25.5H64.349z M64.349,18.45c-1.02-0.57-2.13-0.899-4.05-0.899
			c-2.31,0-3.689,1.109-3.689,3.09c0,2.34,1.289,3.359,3.209,3.359c2.04,0,3.57-1.05,4.53-2.37V18.45z"/>
		<path fill="#FFFFFF" d="M88.828,25.5v-1.92c-1.109,1.2-2.609,2.25-4.739,2.25c-3.15,0-5.64-2.4-5.64-7.95
			c0-5.579,2.64-8.459,5.939-8.459c1.979,0,3.33,0.84,4.439,2.1v-6.63l2.25-1.26V25.5H88.828z M88.828,13.74
			c-0.87-1.319-2.399-2.37-4.26-2.37c-2.609,0-3.899,2.25-3.899,6.48c0,3.96,1.5,6.029,3.989,6.029c1.681,0,3.061-0.899,4.17-2.279
			V13.74z"/>
		<path fill="#FFFFFF" d="M107.968,18.391h-10.5c0.21,3.359,1.801,5.489,4.38,5.489c1.83,0,2.91-0.54,4.351-1.5l1.05,1.62
			c-1.891,1.2-3.271,1.83-5.64,1.83c-2.88,0-6.39-2.1-6.39-8.279c0-5.01,2.76-8.13,6.51-8.13c4.109,0,6.329,3.239,6.329,7.739
			C108.058,17.7,108.027,18.03,107.968,18.391z M101.698,11.37c-2.34,0-3.96,1.681-4.23,5.19h8.49
			C105.778,13.5,104.458,11.37,101.698,11.37z"/>
		<path fill="#FFFFFF" d="M129.088,25.5v-1.92c-1.11,1.2-2.67,2.25-4.92,2.25c-2.46,0-5.04-1.23-5.04-5.04
			c0-3.54,2.91-5.04,6.03-5.04c1.59,0,3,0.391,3.93,0.9v-1.86c0-2.34-1.11-3.479-3.42-3.479c-1.649,0-3,0.45-4.29,1.2l-0.84-1.83
			c1.38-0.75,3.24-1.26,5.28-1.26c3.39,0,5.52,1.439,5.52,5.1V25.5H129.088z M129.088,18.45c-1.02-0.57-2.13-0.899-4.05-0.899
			c-2.31,0-3.689,1.109-3.689,3.09c0,2.34,1.289,3.359,3.209,3.359c2.04,0,3.57-1.05,4.53-2.37V18.45z"/>
		<path fill="#FFFFFF" d="M145.797,12.961c-1.14-1.021-2.19-1.591-3.78-1.591c-2.46,0-4.35,2.221-4.35,6.15
			c0,3.87,1.65,6.359,4.44,6.359c1.529,0,2.55-0.63,3.629-1.68l1.351,1.439c-1.32,1.351-2.85,2.19-5.07,2.19
			c-3.449,0-6.629-2.64-6.629-8.13c0-5.819,3.479-8.279,6.779-8.279c2.13,0,3.75,0.779,4.979,1.859L145.797,12.961z"/>
		<path fill="#FFFFFF" d="M153.957,11.641V21.9c0,1.41,0.39,1.89,1.59,1.89c0.899,0,1.5-0.15,2.22-0.45l-0.15,1.95
			c-0.87,0.36-1.71,0.54-2.909,0.54c-1.95,0-3-0.96-3-3.57V11.641h-1.95v-1.89h1.95v-4.86l2.25-1.26v6.12h3.899v1.89H153.957z"/>
		<path fill="#FFFFFF" d="M163.557,6.931c-0.93,0-1.649-0.72-1.649-1.59c0-0.9,0.72-1.62,1.649-1.62c0.84,0,1.561,0.72,1.561,1.62
			C165.117,6.211,164.396,6.931,163.557,6.931z M162.387,25.5V9.751h2.25V25.5H162.387z"/>
		<path fill="#FFFFFF" d="M176.097,25.5h-1.979l-5.64-15.749h2.399l4.021,12.39l0.239,0.749l0.24-0.749l4.02-12.39h2.34
			L176.097,25.5z"/>
		<path fill="#FFFFFF" d="M186.746,6.931c-0.93,0-1.649-0.72-1.649-1.59c0-0.9,0.72-1.62,1.649-1.62c0.84,0,1.561,0.72,1.561,1.62
			C188.307,6.211,187.586,6.931,186.746,6.931z M185.576,25.5V9.751h2.25V25.5H185.576z"/>
		<path fill="#FFFFFF" d="M202.496,25.5v-1.92c-1.109,1.2-2.609,2.25-4.739,2.25c-3.15,0-5.64-2.4-5.64-7.95
			c0-5.579,2.64-8.459,5.939-8.459c1.979,0,3.33,0.84,4.439,2.1v-6.63l2.25-1.26V25.5H202.496z M202.496,13.74
			c-0.87-1.319-2.399-2.37-4.26-2.37c-2.609,0-3.899,2.25-3.899,6.48c0,3.96,1.5,6.029,3.989,6.029c1.681,0,3.061-0.899,4.17-2.279
			V13.74z"/>
		<path fill="#FFFFFF" d="M218.756,25.5v-1.92c-1.11,1.2-2.67,2.25-4.92,2.25c-2.46,0-5.04-1.23-5.04-5.04
			c0-3.54,2.91-5.04,6.03-5.04c1.59,0,3,0.391,3.93,0.9v-1.86c0-2.34-1.11-3.479-3.42-3.479c-1.649,0-3,0.45-4.29,1.2l-0.84-1.83
			c1.38-0.75,3.24-1.26,5.28-1.26c3.39,0,5.52,1.439,5.52,5.1V25.5H218.756z M218.756,18.45c-1.02-0.57-2.13-0.899-4.05-0.899
			c-2.31,0-3.689,1.109-3.689,3.09c0,2.34,1.289,3.359,3.209,3.359c2.04,0,3.57-1.05,4.53-2.37V18.45z"/>
		<path fill="#FFFFFF" d="M235.435,25.5v-1.92c-1.109,1.2-2.609,2.25-4.739,2.25c-3.15,0-5.64-2.4-5.64-7.95
			c0-5.579,2.64-8.459,5.939-8.459c1.979,0,3.33,0.84,4.439,2.1v-6.63l2.25-1.26V25.5H235.435z M235.435,13.74
			c-0.87-1.319-2.399-2.37-4.26-2.37c-2.609,0-3.899,2.25-3.899,6.48c0,3.96,1.5,6.029,3.989,6.029c1.681,0,3.061-0.899,4.17-2.279
			V13.74z"/>
		<path fill="#FFFFFF" d="M254.575,18.391h-10.5c0.21,3.359,1.801,5.489,4.38,5.489c1.83,0,2.91-0.54,4.351-1.5l1.05,1.62
			c-1.891,1.2-3.271,1.83-5.64,1.83c-2.88,0-6.39-2.1-6.39-8.279c0-5.01,2.76-8.13,6.51-8.13c4.109,0,6.329,3.239,6.329,7.739
			C254.665,17.7,254.635,18.03,254.575,18.391z M248.306,11.37c-2.34,0-3.96,1.681-4.23,5.19h8.49
			C252.386,13.5,251.065,11.37,248.306,11.37z"/>
		<path fill="#FFFFFF" d="M263.215,25.83c-2.16,0-4.05-0.811-5.55-2.01l1.32-1.65c1.26,1.11,2.729,1.74,4.289,1.74
			c2.16,0,3.181-0.9,3.181-2.43c0-1.29-0.931-2.01-3.721-3.21c-3.149-1.351-4.47-2.311-4.47-4.83c0-2.399,2.07-4.02,4.92-4.02
			c2.16,0,3.84,0.689,5.04,1.68l-1.26,1.65c-1.23-0.96-2.25-1.41-3.93-1.41c-1.65,0-2.61,0.81-2.61,1.949
			c0,1.32,0.81,1.86,3.479,3.061c2.971,1.35,4.71,2.22,4.71,5.04C268.614,24.48,265.944,25.83,263.215,25.83z"/>
		<path fill="#FFFFFF" d="M74.563,61.5V40.891l2.25-1.26V61.5H74.563z"/>
		<path fill="#FFFFFF" d="M87.883,61.83c-3.84,0-6.779-2.85-6.779-8.189s3.06-8.22,6.899-8.22s6.779,2.76,6.779,8.1
			S91.723,61.83,87.883,61.83z M87.942,47.37c-2.729,0-4.56,2.07-4.56,6.21s1.83,6.3,4.56,6.3c2.73,0,4.59-2.16,4.59-6.3
			S90.673,47.37,87.942,47.37z"/>
		<path fill="#FFFFFF" d="M102.733,67.29l-0.72-1.71c5.249-0.15,6.449-1.53,6.449-5.19v-0.81c-1.109,1.2-2.609,2.25-4.739,2.25
			c-3.15,0-5.64-2.4-5.64-7.95c0-5.579,2.64-8.459,5.939-8.459c1.979,0,3.33,0.84,4.439,2.1v-1.77h2.25V60.09
			C110.713,64.83,108.583,67.109,102.733,67.29z M108.463,49.74c-0.87-1.319-2.399-2.37-4.26-2.37c-2.609,0-3.899,2.25-3.899,6.48
			c0,3.96,1.5,6.029,3.989,6.029c1.681,0,3.061-0.899,4.17-2.279V49.74z"/>
		<path fill="#FFFFFF" d="M115.843,61.5V45.751h2.25V61.5H115.843z M117.763,43.65h-1.77l3.09-4.8h3.21L117.763,43.65z"/>
		<path fill="#FFFFFF" d="M127.572,61.83c-2.16,0-4.05-0.811-5.55-2.01l1.32-1.65c1.26,1.11,2.729,1.74,4.289,1.74
			c2.16,0,3.181-0.9,3.181-2.43c0-1.29-0.931-2.01-3.721-3.21c-3.149-1.351-4.47-2.311-4.47-4.83c0-2.399,2.07-4.02,4.92-4.02
			c2.16,0,3.84,0.689,5.04,1.68l-1.26,1.65c-1.23-0.96-2.25-1.41-3.93-1.41c-1.65,0-2.61,0.81-2.61,1.949
			c0,1.32,0.81,1.86,3.479,3.061c2.971,1.35,4.71,2.22,4.71,5.04C132.972,60.48,130.302,61.83,127.572,61.83z"/>
		<path fill="#FFFFFF" d="M140.113,47.641V57.9c0,1.41,0.39,1.89,1.59,1.89c0.899,0,1.5-0.15,2.22-0.45l-0.15,1.95
			c-0.87,0.36-1.71,0.54-2.909,0.54c-1.95,0-3-0.96-3-3.57V47.641h-1.95v-1.89h1.95v-4.86l2.25-1.26v6.12h3.899v1.89H140.113z"/>
		<path fill="#FFFFFF" d="M149.712,42.931c-0.93,0-1.649-0.72-1.649-1.59c0-0.9,0.72-1.62,1.649-1.62c0.84,0,1.561,0.72,1.561,1.62
			C151.272,42.211,150.552,42.931,149.712,42.931z M148.542,61.5V45.751h2.25V61.5H148.542z"/>
		<path fill="#FFFFFF" d="M165.492,48.961c-1.14-1.021-2.19-1.591-3.78-1.591c-2.46,0-4.35,2.221-4.35,6.15
			c0,3.87,1.65,6.359,4.44,6.359c1.529,0,2.55-0.63,3.629-1.68l1.351,1.439c-1.32,1.351-2.85,2.19-5.07,2.19
			c-3.449,0-6.629-2.64-6.629-8.13c0-5.819,3.479-8.279,6.779-8.279c2.13,0,3.75,0.779,4.979,1.859L165.492,48.961z"/>
		<path fill="#FFFFFF" d="M179.802,61.5v-1.92c-1.11,1.2-2.67,2.25-4.92,2.25c-2.46,0-5.04-1.23-5.04-5.04
			c0-3.54,2.91-5.04,6.03-5.04c1.59,0,3,0.391,3.93,0.9v-1.86c0-2.34-1.11-3.479-3.42-3.479c-1.649,0-3,0.45-4.29,1.2l-0.84-1.83
			c1.38-0.75,3.24-1.26,5.28-1.26c3.39,0,5.52,1.439,5.52,5.1V61.5H179.802z M179.802,54.45c-1.02-0.57-2.13-0.899-4.05-0.899
			c-2.31,0-3.689,1.109-3.689,3.09c0,2.34,1.289,3.359,3.209,3.359c2.04,0,3.57-1.05,4.53-2.37V54.45z"/>
		<path fill="#FFFFFF" d="M191.292,61.83c-2.16,0-4.05-0.811-5.55-2.01l1.32-1.65c1.26,1.11,2.729,1.74,4.289,1.74
			c2.16,0,3.18-0.9,3.18-2.43c0-1.29-0.93-2.01-3.72-3.21c-3.149-1.351-4.47-2.311-4.47-4.83c0-2.399,2.07-4.02,4.92-4.02
			c2.16,0,3.84,0.689,5.04,1.68l-1.26,1.65c-1.23-0.96-2.25-1.41-3.93-1.41c-1.65,0-2.61,0.81-2.61,1.949
			c0,1.32,0.81,1.86,3.479,3.061c2.971,1.35,4.71,2.22,4.71,5.04C196.691,60.48,194.021,61.83,191.292,61.83z"/>
	</g>
</g>
</svg>
