<?xml version="1.0" encoding="utf-8"?>
<!-- Generator: Adobe Illustrator 15.1.0, SVG Export Plug-In . SVG Version: 6.00 Build 0)  -->
<!DOCTYPE svg PUBLIC "-//W3C//DTD SVG 1.1//EN" "http://www.w3.org/Graphics/SVG/1.1/DTD/svg11.dtd">
<svg version="1.1" id="Layer_1" xmlns="http://www.w3.org/2000/svg" xmlns:xlink="http://www.w3.org/1999/xlink" x="0px" y="0px"
	 width="180.257px" height="44.859px" viewBox="0 0 180.257 44.859" enable-background="new 0 0 180.257 44.859"
	 xml:space="preserve">
<g>
	<g>
		<path d="M1.221,17v-1.36l6.621-9.021c0.56-0.761,1.18-1.581,1.7-2.261h-1.58H1.62v-1.36h9.603v1.36l-6.622,9.021
			c-0.56,0.761-1.18,1.581-1.7,2.261h1.58h6.742V17H1.221z"/>
		<path d="M18.181,17.22c-2.561,0-4.521-1.9-4.521-5.461s2.04-5.481,4.601-5.481s4.521,1.841,4.521,5.401S20.741,17.22,18.181,17.22
			z M18.221,7.578c-1.82,0-3.041,1.38-3.041,4.141s1.221,4.201,3.041,4.201s3.061-1.44,3.061-4.201S20.041,7.578,18.221,7.578z"/>
		<path d="M32.122,17v-6.142c0-2.26-0.801-3.28-2.481-3.28c-1.46,0-2.6,0.98-2.6,3.28V17H25.54V6.498h1.501v1.28
			c0.6-0.881,1.58-1.501,2.9-1.501c2.221,0,3.681,1.301,3.681,4.321V17H32.122z"/>
		<path d="M42.901,17v-1.28c-0.74,0.8-1.78,1.5-3.28,1.5c-1.641,0-3.361-0.82-3.361-3.36c0-2.36,1.94-3.36,4.021-3.36
			c1.06,0,2,0.26,2.62,0.6v-1.24c0-1.561-0.74-2.32-2.28-2.32c-1.101,0-2.001,0.3-2.86,0.8L37.2,7.118
			c0.92-0.5,2.16-0.841,3.521-0.841c2.261,0,3.681,0.961,3.681,3.401V17H42.901z M42.901,12.299c-0.68-0.38-1.42-0.6-2.7-0.6
			c-1.541,0-2.461,0.74-2.461,2.061c0,1.56,0.86,2.24,2.141,2.24c1.36,0,2.381-0.7,3.021-1.58V12.299z"/>
		<path d="M59.221,17v-1.28c-0.74,0.8-1.74,1.5-3.16,1.5c-2.101,0-3.761-1.6-3.761-5.301c0-3.721,1.76-5.642,3.961-5.642
			c1.32,0,2.22,0.561,2.96,1.4V3.257l1.501-0.84V17H59.221z M59.221,9.158c-0.58-0.88-1.601-1.58-2.841-1.58
			c-1.74,0-2.601,1.5-2.601,4.32c0,2.641,1.001,4.021,2.661,4.021c1.12,0,2.04-0.601,2.78-1.521V9.158z"/>
		<path d="M71.98,12.259h-7.001c0.14,2.24,1.2,3.661,2.921,3.661c1.22,0,1.94-0.36,2.9-1l0.7,1.08c-1.261,0.8-2.181,1.22-3.761,1.22
			c-1.921,0-4.261-1.4-4.261-5.521c0-3.341,1.84-5.422,4.341-5.422c2.74,0,4.221,2.161,4.221,5.161
			C72.041,11.799,72.021,12.019,71.98,12.259z M67.8,7.578c-1.561,0-2.641,1.12-2.82,3.461h5.661
			C70.521,8.998,69.641,7.578,67.8,7.578z"/>
		<path d="M86.061,17v-1.28c-0.74,0.8-1.78,1.5-3.28,1.5c-1.641,0-3.361-0.82-3.361-3.36c0-2.36,1.94-3.36,4.021-3.36
			c1.06,0,2,0.26,2.62,0.6v-1.24c0-1.561-0.74-2.32-2.28-2.32c-1.101,0-2.001,0.3-2.86,0.8l-0.561-1.22
			c0.92-0.5,2.16-0.841,3.521-0.841c2.261,0,3.681,0.961,3.681,3.401V17H86.061z M86.061,12.299c-0.68-0.38-1.42-0.6-2.7-0.6
			c-1.541,0-2.461,0.74-2.461,2.061c0,1.56,0.86,2.24,2.141,2.24c1.36,0,2.38-0.7,3.021-1.58V12.299z"/>
		<path d="M97.2,8.639c-0.761-0.681-1.461-1.061-2.521-1.061c-1.641,0-2.901,1.48-2.901,4.101c0,2.581,1.101,4.241,2.961,4.241
			c1.021,0,1.7-0.42,2.421-1.12l0.9,0.96c-0.881,0.9-1.9,1.46-3.381,1.46c-2.301,0-4.421-1.76-4.421-5.421
			c0-3.881,2.32-5.521,4.521-5.521c1.42,0,2.501,0.521,3.321,1.24L97.2,8.639z"/>
		<path d="M102.64,7.758V14.6c0,0.94,0.26,1.26,1.06,1.26c0.601,0,1.001-0.1,1.48-0.3l-0.1,1.301
			c-0.58,0.239-1.141,0.359-1.94,0.359c-1.301,0-2.001-0.64-2.001-2.38V7.758h-1.3v-1.26h1.3V3.257l1.501-0.84v4.081h2.601v1.26
			H102.64z"/>
		<path d="M109.039,4.617c-0.621,0-1.101-0.479-1.101-1.061c0-0.6,0.479-1.08,1.101-1.08c0.56,0,1.04,0.48,1.04,1.08
			C110.079,4.138,109.599,4.617,109.039,4.617z M108.259,17V6.498h1.5V17H108.259z"/>
		<path d="M117.398,17h-1.32l-3.761-10.502h1.601l2.681,8.262l0.16,0.5l0.16-0.5l2.681-8.262h1.56L117.398,17z"/>
		<path d="M124.499,4.617c-0.62,0-1.101-0.479-1.101-1.061c0-0.6,0.48-1.08,1.101-1.08c0.56,0,1.04,0.48,1.04,1.08
			C125.539,4.138,125.059,4.617,124.499,4.617z M123.719,17V6.498h1.5V17H123.719z"/>
		<path d="M134.999,17v-1.28c-0.74,0.8-1.74,1.5-3.16,1.5c-2.101,0-3.761-1.6-3.761-5.301c0-3.721,1.76-5.642,3.961-5.642
			c1.32,0,2.22,0.561,2.96,1.4V3.257l1.501-0.84V17H134.999z M134.999,9.158c-0.58-0.88-1.601-1.58-2.841-1.58
			c-1.74,0-2.601,1.5-2.601,4.32c0,2.641,1.001,4.021,2.661,4.021c1.12,0,2.04-0.601,2.78-1.521V9.158z"/>
		<path d="M145.839,17v-1.28c-0.74,0.8-1.78,1.5-3.28,1.5c-1.641,0-3.361-0.82-3.361-3.36c0-2.36,1.94-3.36,4.021-3.36
			c1.06,0,2,0.26,2.62,0.6v-1.24c0-1.561-0.74-2.32-2.28-2.32c-1.101,0-2.001,0.3-2.86,0.8l-0.561-1.22
			c0.92-0.5,2.16-0.841,3.521-0.841c2.261,0,3.681,0.961,3.681,3.401V17H145.839z M145.839,12.299c-0.68-0.38-1.42-0.6-2.7-0.6
			c-1.541,0-2.461,0.74-2.461,2.061c0,1.56,0.86,2.24,2.141,2.24c1.36,0,2.381-0.7,3.021-1.58V12.299z"/>
		<path d="M156.959,17v-1.28c-0.74,0.8-1.74,1.5-3.16,1.5c-2.101,0-3.761-1.6-3.761-5.301c0-3.721,1.76-5.642,3.961-5.642
			c1.32,0,2.22,0.561,2.96,1.4V3.257l1.501-0.84V17H156.959z M156.959,9.158c-0.58-0.88-1.601-1.58-2.841-1.58
			c-1.74,0-2.601,1.5-2.601,4.32c0,2.641,1.001,4.021,2.661,4.021c1.12,0,2.04-0.601,2.78-1.521V9.158z"/>
		<path d="M169.719,12.259h-7.001c0.14,2.24,1.2,3.661,2.921,3.661c1.22,0,1.94-0.36,2.9-1l0.7,1.08
			c-1.261,0.8-2.181,1.22-3.761,1.22c-1.921,0-4.261-1.4-4.261-5.521c0-3.341,1.84-5.422,4.341-5.422
			c2.74,0,4.221,2.161,4.221,5.161C169.779,11.799,169.759,12.019,169.719,12.259z M165.538,7.578c-1.561,0-2.641,1.12-2.82,3.461
			h5.661C168.259,8.998,167.379,7.578,165.538,7.578z"/>
		<path d="M175.478,17.22c-1.439,0-2.7-0.54-3.7-1.34l0.88-1.101c0.84,0.74,1.82,1.16,2.86,1.16c1.44,0,2.121-0.6,2.121-1.62
			c0-0.86-0.62-1.34-2.48-2.141c-2.101-0.9-2.98-1.54-2.98-3.221c0-1.6,1.38-2.681,3.28-2.681c1.44,0,2.561,0.461,3.36,1.121
			l-0.84,1.1c-0.82-0.64-1.5-0.94-2.62-0.94c-1.101,0-1.741,0.54-1.741,1.301c0,0.88,0.54,1.24,2.321,2.04
			c1.98,0.9,3.141,1.48,3.141,3.361C179.079,16.32,177.299,17.22,175.478,17.22z"/>
		<path d="M49.709,41V27.257l1.5-0.84V41H49.709z"/>
		<path d="M58.589,41.22c-2.561,0-4.521-1.9-4.521-5.461s2.04-5.481,4.601-5.481s4.521,1.841,4.521,5.401S61.149,41.22,58.589,41.22
			z M58.629,31.578c-1.82,0-3.041,1.38-3.041,4.141s1.221,4.201,3.041,4.201s3.061-1.44,3.061-4.201S60.449,31.578,58.629,31.578z"
			/>
		<path d="M68.489,44.86l-0.48-1.14C71.51,43.62,72.31,42.7,72.31,40.26v-0.54c-0.74,0.8-1.74,1.5-3.16,1.5
			c-2.101,0-3.761-1.6-3.761-5.301c0-3.721,1.76-5.642,3.961-5.642c1.32,0,2.22,0.561,2.96,1.4v-1.18h1.501v9.562
			C73.811,43.221,72.39,44.741,68.489,44.86z M72.31,33.158c-0.58-0.88-1.601-1.58-2.841-1.58c-1.74,0-2.601,1.5-2.601,4.32
			c0,2.641,1.001,4.021,2.661,4.021c1.12,0,2.04-0.601,2.78-1.521V33.158z"/>
		<path d="M77.229,41V30.498h1.5V41H77.229z M78.509,29.098h-1.181l2.061-3.201h2.141L78.509,29.098z"/>
		<path d="M85.048,41.22c-1.439,0-2.7-0.54-3.7-1.34l0.88-1.101c0.84,0.74,1.82,1.16,2.86,1.16c1.44,0,2.121-0.6,2.121-1.62
			c0-0.86-0.62-1.34-2.48-2.141c-2.101-0.9-2.98-1.54-2.98-3.221c0-1.6,1.38-2.681,3.28-2.681c1.44,0,2.561,0.461,3.36,1.121
			l-0.84,1.1c-0.82-0.64-1.5-0.94-2.62-0.94c-1.101,0-1.741,0.54-1.741,1.301c0,0.88,0.54,1.24,2.321,2.04
			c1.98,0.9,3.141,1.48,3.141,3.361C88.649,40.32,86.869,41.22,85.048,41.22z"/>
		<path d="M93.408,31.758V38.6c0,0.94,0.26,1.26,1.06,1.26c0.601,0,1.001-0.1,1.48-0.3l-0.1,1.301
			c-0.58,0.239-1.141,0.359-1.94,0.359c-1.301,0-2.001-0.64-2.001-2.38v-7.082h-1.3v-1.26h1.3v-3.241l1.501-0.84v4.081h2.601v1.26
			H93.408z"/>
		<path d="M99.809,28.617c-0.621,0-1.101-0.479-1.101-1.061c0-0.6,0.479-1.08,1.101-1.08c0.56,0,1.04,0.48,1.04,1.08
			C100.849,28.138,100.368,28.617,99.809,28.617z M99.028,41V30.498h1.5V41H99.028z"/>
		<path d="M110.329,32.639c-0.761-0.681-1.461-1.061-2.521-1.061c-1.641,0-2.901,1.48-2.901,4.101c0,2.581,1.101,4.241,2.961,4.241
			c1.021,0,1.7-0.42,2.421-1.12l0.9,0.96c-0.881,0.9-1.9,1.46-3.381,1.46c-2.301,0-4.421-1.76-4.421-5.421
			c0-3.881,2.32-5.521,4.521-5.521c1.42,0,2.501,0.521,3.321,1.24L110.329,32.639z"/>
		<path d="M119.869,41v-1.28c-0.74,0.8-1.78,1.5-3.28,1.5c-1.641,0-3.361-0.82-3.361-3.36c0-2.36,1.94-3.36,4.021-3.36
			c1.06,0,2,0.26,2.62,0.6v-1.24c0-1.561-0.74-2.32-2.28-2.32c-1.101,0-2.001,0.3-2.86,0.8l-0.561-1.22
			c0.92-0.5,2.16-0.841,3.521-0.841c2.261,0,3.681,0.961,3.681,3.401V41H119.869z M119.869,36.299c-0.68-0.38-1.42-0.6-2.7-0.6
			c-1.541,0-2.461,0.74-2.461,2.061c0,1.56,0.86,2.24,2.141,2.24c1.36,0,2.38-0.7,3.021-1.58V36.299z"/>
		<path d="M127.527,41.22c-1.439,0-2.7-0.54-3.7-1.34l0.88-1.101c0.84,0.74,1.82,1.16,2.86,1.16c1.44,0,2.121-0.6,2.121-1.62
			c0-0.86-0.62-1.34-2.48-2.141c-2.101-0.9-2.98-1.54-2.98-3.221c0-1.6,1.38-2.681,3.28-2.681c1.44,0,2.561,0.461,3.36,1.121
			l-0.84,1.1c-0.82-0.64-1.5-0.94-2.62-0.94c-1.101,0-1.741,0.54-1.741,1.301c0,0.88,0.54,1.24,2.321,2.04
			c1.98,0.9,3.141,1.48,3.141,3.361C131.129,40.32,129.349,41.22,127.527,41.22z"/>
	</g>
</g>
</svg>
