<?xml version="1.0" encoding="utf-8"?>
<!-- Generator: Adobe Illustrator 15.1.0, SVG Export Plug-In . SVG Version: 6.00 Build 0)  -->
<!DOCTYPE svg PUBLIC "-//W3C//DTD SVG 1.1//EN" "http://www.w3.org/Graphics/SVG/1.1/DTD/svg11.dtd">
<svg version="1.1" id="Layer_1" xmlns="http://www.w3.org/2000/svg" xmlns:xlink="http://www.w3.org/1999/xlink" x="0px" y="0px"
	 width="46.637px" height="73.865px" viewBox="0 0 46.637 73.865" enable-background="new 0 0 46.637 73.865" xml:space="preserve">
<g>
	<g>
		<path fill-rule="evenodd" clip-rule="evenodd" fill="#FFFFFF" d="M17.808,13.435c0.806,0,1.611,0,2.417,0
			c8.864,1.878,4.21,17.277,5.371,26.858c2.862-0.375,5.993,1.117,7.252,3.222c3.941-1.011,7.988,1.405,8.594,4.836
			c0.519,2.93,0.224,6.721,0,9.669c-0.702,9.269-7.13,14.889-16.384,15.846c-2.148,0-4.297,0-6.445,0
			c-6.02-0.543-12.592-2.702-15.847-8.058C0.825,62.611-0.988,54.43,0.619,50.499c0.761-1.862,2.616-2.384,4.029-4.029
			c0.953-9.792-3.822-26.736,8.057-24.71C12.249,16.827,14.457,14.559,17.808,13.435z M22.642,31.967
			c0-3.683,0.896-12.527-0.806-14.503c-1.516-1.762-5.458-1.098-6.177,1.343c-0.851,2.886,0,8.495,0,13.16c0,2.264,0,4.625,0,6.715
			c0,2.26,0.622,5.059-0.806,5.908c-0.784-5.572,0.24-12.954-0.537-18.532c-1.595-2.309-5.479-1.912-6.447,0.27
			c-1.173,2.646-0.268,9.211-0.268,14.234c0,2.51,0,4.987,0,7.251c0,2.395,0.62,5.529-0.806,6.446c0-1.521,0-3.043,0-4.565
			c-3.112,0.401-3.478,1.733-3.76,3.49c-0.525,3.266,0.647,8.456,1.88,10.744c4.258,7.906,23.666,10.017,30.35,2.417
			c1.678-1.908,2.948-5.262,3.223-8.596c0.119-1.455,0.828-7.286-0.27-9.667c-0.979-2.13-4.919-2.57-5.909-0.537
			c-0.962,0.2,0.037,2.363-1.342,2.148c-1.091-0.521-0.293-2.931-0.538-4.298c-0.736-2.391-5.579-3.021-6.446-0.27
			c-0.569,0.417,0.061,2.031-1.074,1.881C22.424,42.57,22.642,37.627,22.642,31.967z"/>
		<g>
			<path fill="#FFFFFF" d="M36.652,7.885c0.378,0,0.755-0.145,1.044-0.433l1.733-1.732v10.933h2.954V5.591l1.731,1.732
				c0.577,0.576,1.513,0.576,2.089,0c0.578-0.576,0.578-1.512,0-2.089L40.969,0l-5.361,5.363c-0.578,0.576-0.578,1.512,0,2.089
				C35.897,7.74,36.274,7.885,36.652,7.885z"/>
			<path fill="#FFFFFF" d="M44.115,28.645l-1.731,1.732V19.442h-2.954v11.062l-1.733-1.731c-0.576-0.577-1.512-0.577-2.088,0
				c-0.578,0.576-0.578,1.512,0,2.09l5.233,5.233l5.362-5.363c0.578-0.576,0.578-1.513,0-2.089
				C45.627,28.066,44.692,28.066,44.115,28.645z"/>
		</g>
	</g>
</g>
</svg>
