<?xml version="1.0" encoding="utf-8"?>
<!-- Generator: Adobe Illustrator 15.1.0, SVG Export Plug-In . SVG Version: 6.00 Build 0)  -->
<!DOCTYPE svg PUBLIC "-//W3C//DTD SVG 1.1//EN" "http://www.w3.org/Graphics/SVG/1.1/DTD/svg11.dtd">
<svg version="1.1" id="Layer_1" xmlns="http://www.w3.org/2000/svg" xmlns:xlink="http://www.w3.org/1999/xlink" x="0px" y="0px"
	 width="230.253px" height="86.515px" viewBox="0 0 230.253 86.515" enable-background="new 0 0 230.253 86.515"
	 xml:space="preserve">
<g>
	<path fill="#FFFFFF" d="M115.579,84.362c-1.977,0-2.993-1.195-2.993-3.49V75.95h0.923v4.898c0,1.785,0.686,2.674,2.117,2.674
		s2-0.865,2-2.65V75.95h0.922v4.898C118.547,83.144,117.565,84.362,115.579,84.362"/>
	<path fill="#FFFFFF" d="M123.466,84.231v-3.631c0-1.338-0.474-1.941-1.467-1.941c-0.864,0-1.538,0.58-1.538,1.941v3.631h-0.887
		v-6.211h0.887v0.758c0.355-0.521,0.936-0.887,1.715-0.887c1.313,0,2.178,0.768,2.178,2.555v3.785H123.466z"/>
	<path fill="#FFFFFF" d="M128.859,84.231v-0.758c-0.438,0.475-1.053,0.889-1.94,0.889c-0.97,0-1.986-0.486-1.986-1.988
		c0-1.396,1.146-1.986,2.377-1.986c0.627,0,1.184,0.152,1.55,0.354v-0.732c0-0.924-0.438-1.373-1.349-1.373
		c-0.65,0-1.183,0.178-1.691,0.473l-0.332-0.721c0.545-0.295,1.278-0.498,2.082-0.498c1.337,0,2.178,0.568,2.178,2.012v4.33H128.859
		z M128.859,81.452c-0.401-0.227-0.839-0.355-1.597-0.355c-0.911,0-1.455,0.438-1.455,1.219c0,0.922,0.508,1.324,1.266,1.324
		c0.805,0,1.408-0.414,1.786-0.936V81.452z"/>
	<path fill="#FFFFFF" d="M137.48,81.429h-4.141c0.083,1.324,0.71,2.164,1.728,2.164c0.722,0,1.146-0.213,1.715-0.592l0.414,0.639
		c-0.745,0.473-1.289,0.723-2.225,0.723c-1.135,0-2.52-0.828-2.52-3.266c0-1.975,1.089-3.205,2.567-3.205
		c1.621,0,2.496,1.275,2.496,3.051C137.515,81.155,137.503,81.286,137.48,81.429 M135.007,78.659c-0.922,0-1.562,0.664-1.668,2.047
		h3.348C136.617,79.499,136.096,78.659,135.007,78.659"/>
	<path fill="#FFFFFF" d="M145.404,84.231v-3.631c0-1.42-0.438-1.941-1.336-1.941c-0.84,0-1.385,0.568-1.385,1.941v3.631h-0.888
		v-3.631c0-1.42-0.473-1.941-1.336-1.941c-0.852,0-1.384,0.568-1.384,1.941v3.631h-0.888v-6.211h0.888v0.758
		c0.319-0.533,0.84-0.887,1.573-0.887c0.875,0,1.408,0.473,1.703,1.064c0.367-0.592,0.876-1.064,1.881-1.064
		c1.267,0,2.059,0.744,2.059,2.555v3.785H145.404z"/>
	<path fill="#FFFFFF" d="M149.874,84.362c-0.781,0-1.313-0.332-1.751-0.828v2.484l-0.888,0.496v-8.494h0.888v0.758
		c0.438-0.473,1.028-0.887,1.869-0.887c1.243,0,2.224,0.945,2.224,3.133C152.215,83.226,151.174,84.362,149.874,84.362
		 M149.767,78.659c-0.662,0-1.207,0.355-1.645,0.9v3.098c0.343,0.521,0.946,0.936,1.681,0.936c1.028,0,1.536-0.887,1.536-2.555
		C151.339,79.476,150.749,78.659,149.767,78.659"/>
	<path fill="#FFFFFF" d="M156.035,78.944c-0.248-0.143-0.521-0.238-0.936-0.238c-0.862,0-1.348,0.699-1.348,1.883v3.643h-0.888
		v-6.211h0.888v0.77c0.283-0.498,0.875-0.9,1.538-0.9c0.461,0,0.757,0.061,0.971,0.154L156.035,78.944z"/>
	<path fill="#FFFFFF" d="M161.392,81.429h-4.141c0.083,1.324,0.71,2.164,1.728,2.164c0.722,0,1.146-0.213,1.715-0.592l0.414,0.639
		c-0.745,0.473-1.289,0.723-2.225,0.723c-1.135,0-2.52-0.828-2.52-3.266c0-1.975,1.089-3.205,2.567-3.205
		c1.622,0,2.497,1.275,2.497,3.051C161.428,81.155,161.416,81.286,161.392,81.429 M158.919,78.659c-0.923,0-1.562,0.664-1.668,2.047
		h3.348C160.529,79.499,160.008,78.659,158.919,78.659"/>
	<path fill="#FFFFFF" d="M163.815,84.362c-0.852,0-1.596-0.32-2.188-0.793l0.52-0.65c0.497,0.438,1.077,0.686,1.692,0.686
		c0.852,0,1.254-0.355,1.254-0.959c0-0.508-0.367-0.791-1.468-1.266c-1.241-0.531-1.762-0.91-1.762-1.904
		c0-0.947,0.816-1.586,1.939-1.586c0.852,0,1.515,0.273,1.988,0.664l-0.497,0.65c-0.484-0.379-0.888-0.557-1.55-0.557
		c-0.65,0-1.029,0.318-1.029,0.77c0,0.52,0.319,0.732,1.372,1.207c1.171,0.531,1.857,0.875,1.857,1.986
		C165.945,83.829,164.892,84.362,163.815,84.362"/>
	<path fill="#FFFFFF" d="M170.202,84.231v-0.758c-0.438,0.475-1.053,0.889-1.94,0.889c-0.969,0-1.986-0.486-1.986-1.988
		c0-1.396,1.147-1.986,2.378-1.986c0.627,0,1.183,0.152,1.549,0.354v-0.732c0-0.924-0.438-1.373-1.348-1.373
		c-0.65,0-1.184,0.178-1.691,0.473l-0.332-0.721c0.544-0.295,1.277-0.498,2.082-0.498c1.337,0,2.178,0.568,2.178,2.012v4.33H170.202
		z M170.202,81.452c-0.401-0.227-0.839-0.355-1.596-0.355c-0.912,0-1.455,0.438-1.455,1.219c0,0.922,0.508,1.324,1.265,1.324
		c0.805,0,1.408-0.414,1.786-0.936V81.452z"/>
	<path fill="#FFFFFF" d="M177.889,84.231v-0.758c-0.438,0.473-1.029,0.889-1.869,0.889c-1.241,0-2.224-0.947-2.224-3.135
		c0-2.201,1.041-3.336,2.342-3.336c0.781,0,1.313,0.33,1.751,0.828v-2.615l0.887-0.498v8.625H177.889z M177.889,79.595
		c-0.343-0.521-0.946-0.936-1.68-0.936c-1.029,0-1.537,0.887-1.537,2.555c0,1.562,0.59,2.379,1.572,2.379
		c0.662,0,1.207-0.355,1.645-0.898V79.595z"/>
	<path fill="#FFFFFF" d="M184.453,81.429h-4.142c0.084,1.324,0.711,2.164,1.729,2.164c0.722,0,1.146-0.213,1.715-0.592l0.414,0.639
		c-0.745,0.473-1.289,0.723-2.225,0.723c-1.135,0-2.52-0.828-2.52-3.266c0-1.975,1.089-3.205,2.568-3.205
		c1.62,0,2.495,1.275,2.495,3.051C184.488,81.155,184.476,81.286,184.453,81.429 M181.98,78.659c-0.922,0-1.562,0.664-1.669,2.047
		h3.349C183.588,79.499,183.068,78.659,181.98,78.659"/>
	<path fill="#FFFFFF" d="M189.703,84.362c-1.124,0-2.13-0.486-2.78-1.148l0.615-0.686c0.627,0.604,1.349,0.994,2.201,0.994
		c1.1,0,1.785-0.545,1.785-1.42c0-0.77-0.461-1.207-1.975-1.752c-1.787-0.639-2.391-1.219-2.391-2.412
		c0-1.326,1.041-2.117,2.591-2.117c1.112,0,1.821,0.33,2.521,0.887l-0.592,0.721c-0.604-0.496-1.16-0.768-1.988-0.768
		c-1.135,0-1.608,0.566-1.608,1.219c0,0.686,0.309,1.076,1.964,1.668c1.834,0.662,2.401,1.275,2.401,2.506
		C192.447,83.356,191.43,84.362,189.703,84.362"/>
	<path fill="#FFFFFF" d="M197.97,81.429h-4.142c0.083,1.324,0.711,2.164,1.728,2.164c0.723,0,1.147-0.213,1.716-0.592l0.414,0.639
		c-0.745,0.473-1.289,0.723-2.225,0.723c-1.135,0-2.52-0.828-2.52-3.266c0-1.975,1.088-3.205,2.568-3.205
		c1.62,0,2.495,1.275,2.495,3.051C198.005,81.155,197.993,81.286,197.97,81.429 M195.498,78.659c-0.923,0-1.562,0.664-1.669,2.047
		h3.349C197.106,79.499,196.586,78.659,195.498,78.659"/>
	<path fill="#FFFFFF" d="M205.893,84.231v-3.631c0-1.42-0.438-1.941-1.336-1.941c-0.84,0-1.385,0.568-1.385,1.941v3.631h-0.887
		v-3.631c0-1.42-0.473-1.941-1.337-1.941c-0.852,0-1.384,0.568-1.384,1.941v3.631h-0.888v-6.211h0.888v0.758
		c0.319-0.533,0.84-0.887,1.573-0.887c0.876,0,1.407,0.473,1.703,1.064c0.367-0.592,0.876-1.064,1.881-1.064
		c1.267,0,2.059,0.744,2.059,2.555v3.785H205.893z"/>
	<path fill="#FFFFFF" d="M210.363,84.362c-0.78,0-1.313-0.332-1.751-0.828v2.484l-0.887,0.496v-8.494h0.887v0.758
		c0.438-0.473,1.029-0.887,1.869-0.887c1.242,0,2.224,0.945,2.224,3.133C212.705,83.226,211.664,84.362,210.363,84.362
		 M210.255,78.659c-0.661,0-1.206,0.355-1.644,0.9v3.098c0.344,0.521,0.946,0.936,1.681,0.936c1.028,0,1.536-0.887,1.536-2.555
		C211.829,79.476,211.238,78.659,210.255,78.659"/>
	<path fill="#FFFFFF" d="M216.524,78.944c-0.248-0.143-0.521-0.238-0.935-0.238c-0.864,0-1.349,0.699-1.349,1.883v3.643h-0.888
		v-6.211h0.888v0.77c0.283-0.498,0.875-0.9,1.538-0.9c0.461,0,0.757,0.061,0.97,0.154L216.524,78.944z"/>
	<path fill="#FFFFFF" d="M220.747,84.231v-0.758c-0.438,0.475-1.054,0.889-1.94,0.889c-0.97,0-1.987-0.486-1.987-1.988
		c0-1.396,1.146-1.986,2.378-1.986c0.627,0,1.183,0.152,1.55,0.354v-0.732c0-0.924-0.438-1.373-1.349-1.373
		c-0.65,0-1.184,0.178-1.691,0.473l-0.332-0.721c0.544-0.295,1.277-0.498,2.082-0.498c1.337,0,2.177,0.568,2.177,2.012v4.33H220.747
		z M220.747,81.452c-0.402-0.227-0.84-0.355-1.597-0.355c-0.912,0-1.456,0.438-1.456,1.219c0,0.922,0.509,1.324,1.267,1.324
		c0.804,0,1.407-0.414,1.786-0.936V81.452z"/>
	<rect x="58.319" y="65.708" fill="#FFFFFF" width="0.934" height="8.365"/>
	<path fill="#FFFFFF" d="M65.92,74.073l-3.657-5.725c-0.18-0.287-0.489-0.836-0.597-1.051v0.572v6.203h-0.897v-8.365h0.908
		l3.622,5.832c0.18,0.287,0.49,0.838,0.598,1.053v-0.574v-6.311h0.896v8.365H65.92z"/>
	<polygon fill="#FFFFFF" points="69.182,66.556 69.182,69.329 71.477,69.329 71.477,70.177 69.182,70.177 69.182,74.073 
		68.25,74.073 68.25,65.708 73.163,65.708 73.163,66.556 	"/>
	<path fill="#FFFFFF" d="M78.002,70.44l1.841,3.633h-1.076l-1.792-3.561h-1.984v3.561h-0.934v-8.365h3.312
		c1.469,0,2.604,0.752,2.604,2.365C79.974,69.378,79.198,70.19,78.002,70.44 M77.333,66.556h-2.342v3.119h2.223
		c1.242,0,1.828-0.514,1.828-1.564C79.042,67.083,78.445,66.556,77.333,66.556"/>
	<path fill="#FFFFFF" d="M86.475,74.073l-0.717-2.127h-3.455l-0.728,2.127h-0.957l2.904-8.365h1.028l2.904,8.365H86.475z
		 M84.551,68.349c-0.191-0.549-0.43-1.303-0.514-1.648c-0.084,0.334-0.323,1.088-0.527,1.672l-0.919,2.727h2.88L84.551,68.349z"/>
	<polygon fill="#FFFFFF" points="88.446,74.073 88.446,65.708 93.501,65.708 93.501,66.556 89.377,66.556 89.377,69.185 
		91.768,69.185 91.768,70.034 89.377,70.034 89.377,73.226 93.681,73.226 93.681,74.073 	"/>
	<path fill="#FFFFFF" d="M97.087,74.206c-1.136,0-2.151-0.49-2.81-1.16l0.621-0.693c0.634,0.609,1.363,1.004,2.225,1.004
		c1.11,0,1.804-0.549,1.804-1.434c0-0.777-0.466-1.219-1.995-1.77c-1.805-0.645-2.415-1.23-2.415-2.438
		c0-1.34,1.052-2.141,2.617-2.141c1.124,0,1.842,0.336,2.546,0.896l-0.597,0.73c-0.61-0.502-1.173-0.777-2.009-0.777
		c-1.147,0-1.625,0.574-1.625,1.23c0,0.693,0.311,1.088,1.984,1.686c1.853,0.67,2.426,1.291,2.426,2.533
		C99.86,73.19,98.833,74.206,97.087,74.206"/>
	<polygon fill="#FFFFFF" points="103.934,66.556 103.934,74.073 103.001,74.073 103.001,66.556 100.541,66.556 100.541,65.708 
		106.396,65.708 106.396,66.556 	"/>
	<path fill="#FFFFFF" d="M111.284,70.44l1.841,3.633h-1.075l-1.793-3.561h-1.984v3.561h-0.934v-8.365h3.312
		c1.47,0,2.605,0.752,2.605,2.365C113.256,69.378,112.479,70.19,111.284,70.44 M110.615,66.556h-2.343v3.119h2.223
		c1.243,0,1.828-0.514,1.828-1.564C112.323,67.083,111.726,66.556,110.615,66.556"/>
	<path fill="#FFFFFF" d="M117.331,74.206c-1.996,0-3.024-1.207-3.024-3.527v-4.971h0.933v4.947c0,1.805,0.693,2.701,2.14,2.701
		s2.02-0.873,2.02-2.678v-4.971h0.933v4.947C120.331,72.974,119.338,74.206,117.331,74.206"/>
	<path fill="#FFFFFF" d="M124.751,74.206c-2.043,0-3.382-1.854-3.382-4.303c0-2.486,1.398-4.328,3.418-4.328
		c1.148,0,2.008,0.432,2.666,1.34l-0.742,0.561c-0.537-0.729-1.039-1.051-1.947-1.051c-1.435,0-2.463,1.422-2.463,3.455
		c0,2.043,1.064,3.477,2.475,3.477c0.908,0,1.529-0.406,2.067-1.1l0.646,0.562C126.879,73.644,125.971,74.206,124.751,74.206"/>
	<polygon fill="#FFFFFF" points="131.372,66.556 131.372,74.073 130.44,74.073 130.44,66.556 127.977,66.556 127.977,65.708 
		133.834,65.708 133.834,66.556 	"/>
	<path fill="#FFFFFF" d="M137.742,74.206c-1.997,0-3.024-1.207-3.024-3.527v-4.971h0.933v4.947c0,1.805,0.693,2.701,2.14,2.701
		s2.02-0.873,2.02-2.678v-4.971h0.933v4.947C140.742,72.974,139.75,74.206,137.742,74.206"/>
	<path fill="#FFFFFF" d="M146.083,70.44l1.841,3.633h-1.075l-1.793-3.561h-1.983v3.561h-0.933v-8.365h3.311
		c1.471,0,2.605,0.752,2.605,2.365C148.055,69.378,147.279,70.19,146.083,70.44 M145.415,66.556h-2.343v3.119h2.223
		c1.243,0,1.828-0.514,1.828-1.564C147.123,67.083,146.525,66.556,145.415,66.556"/>
	<path fill="#FFFFFF" d="M154.556,74.073l-0.718-2.127h-3.454l-0.729,2.127H148.7l2.904-8.365h1.027l2.904,8.365H154.556z
		 M152.631,68.349c-0.19-0.549-0.43-1.303-0.514-1.648c-0.084,0.334-0.322,1.088-0.525,1.672l-0.92,2.727h2.879L152.631,68.349z"/>
	<polygon fill="#FFFFFF" points="158.893,74.073 158.893,65.708 163.949,65.708 163.949,66.556 159.825,66.556 159.825,69.185 
		162.215,69.185 162.215,70.034 159.825,70.034 159.825,73.226 164.127,73.226 164.127,74.073 	"/>
	<path fill="#FFFFFF" d="M170.318,74.073l-3.657-5.725c-0.18-0.287-0.49-0.836-0.598-1.051v0.572v6.203h-0.896v-8.365h0.908
		l3.622,5.832c0.179,0.287,0.49,0.838,0.598,1.053v-0.574v-6.311h0.896v8.365H170.318z"/>
	<polygon fill="#FFFFFF" points="172.647,74.073 172.647,65.708 177.704,65.708 177.704,66.556 173.58,66.556 173.58,69.185 
		175.97,69.185 175.97,70.034 173.58,70.034 173.58,73.226 177.882,73.226 177.882,74.073 	"/>
	<path fill="#FFFFFF" d="M182.866,70.44l1.841,3.633h-1.076l-1.793-3.561h-1.983v3.561h-0.932v-8.365h3.311
		c1.47,0,2.604,0.752,2.604,2.365C184.837,69.378,184.061,70.19,182.866,70.44 M182.196,66.556h-2.342v3.119h2.223
		c1.243,0,1.829-0.514,1.829-1.564C183.906,67.083,183.307,66.556,182.196,66.556"/>
	<path fill="#FFFFFF" d="M188.972,74.206c-2.044,0-3.383-1.854-3.383-4.303c0-2.486,1.398-4.328,3.419-4.328
		c1.146,0,2.008,0.432,2.666,1.34l-0.742,0.561c-0.537-0.729-1.039-1.051-1.947-1.051c-1.435,0-2.463,1.422-2.463,3.455
		c0,2.043,1.075,3.477,2.475,3.477c1.398,0,2.163-0.859,2.163-2.498v-0.072h-1.507v-0.859h2.415v0.812
		C192.068,73.046,190.741,74.206,188.972,74.206"/>
	<path fill="#FFFFFF" d="M193.083,74.073v-8.365h5.057v0.848h-4.124v2.631h2.391v0.848h-2.391v3.191h4.303v0.848H193.083z
		 M195.736,65.169h-0.705l1.23-1.912h1.279L195.736,65.169z"/>
	<polygon fill="#FFFFFF" points="202.237,66.556 202.237,74.073 201.305,74.073 201.305,66.556 198.842,66.556 198.842,65.708 
		204.699,65.708 204.699,66.556 	"/>
	<rect x="205.702" y="65.708" fill="#FFFFFF" width="0.933" height="8.365"/>
	<path fill="#FFFFFF" d="M211.176,74.206c-2.044,0-3.383-1.854-3.383-4.303c0-2.486,1.398-4.328,3.418-4.328
		c1.147,0,2.009,0.432,2.666,1.34l-0.741,0.561c-0.538-0.729-1.04-1.051-1.948-1.051c-1.435,0-2.463,1.422-2.463,3.455
		c0,2.043,1.064,3.477,2.475,3.477c0.908,0,1.53-0.406,2.067-1.1l0.646,0.562C213.303,73.644,212.395,74.206,211.176,74.206"/>
	<path fill="#FFFFFF" d="M220.306,74.073l-0.718-2.127h-3.454l-0.729,2.127h-0.956l2.904-8.365h1.027l2.905,8.365H220.306z
		 M218.381,68.349c-0.19-0.549-0.43-1.303-0.514-1.648c-0.084,0.334-0.322,1.088-0.525,1.672l-0.92,2.727h2.879L218.381,68.349z"/>
	<polygon fill="#FFFFFF" points="58.218,61.349 58.218,60.181 63.511,58.396 63.511,25.599 58.588,24.06 58.588,22.952 
		75.633,22.952 75.633,24.06 70.709,25.599 70.709,58.396 76.001,60.181 76.001,61.349 	"/>
	<path fill="#FFFFFF" d="M106.101,22.952l0.062,7.076l-1.108,0.123l-1.845-4.553h-13.66v13.723h11.567l1.784-3.754l1.107,0.061
		l-0.307,10.646h-1.231l-1.354-4.062H89.549v16.184l14.645-0.062l2.153-4.984h1.169l-0.431,8H77.119v-1.168
		c0,0,5.415-1.723,5.354-1.723V25.536l-5.107-1.477v-1.107H106.101z"/>
	<path fill="#FFFFFF" d="M108.473,37.104v-1.107l10.277-1.045l0.553,4.123c0.985-1.355,3.384-4.799,9.291-4.738
		c9.168,0.123,8.737,4.676,8.737,11.506v12.982l4.552,1.416v1.107h-15.628v-1.107l4.185-1.416V47.812
		c0-4.492,0.062-6.645-0.555-8.184c-0.8-1.908-1.783-2.77-4.306-2.77c-1.724,0-4.308,1.662-5.354,4.615
		c-0.616,1.723-0.8,2.707-0.8,5.723v11.629l3.815,1.416v1.107h-14.585v-1.107l4.001-1.416V38.274L108.473,37.104z"/>
	<path fill="#FFFFFF" d="M167.772,47.812c0.248,8.984-5.844,14.645-14.336,14.645c-8.49,0-14.521-5.66-14.274-14.645
		c0.308-9.414,5.967-13.168,14.151-13.168C161.743,34.644,167.467,38.397,167.772,47.812 M153.436,60.427
		c5.045,0,6.707-5.23,6.645-12.186c-0.061-6.459-1.6-11.566-6.645-11.566s-6.646,5.414-6.646,11.566
		C146.791,54.888,148.391,60.427,153.436,60.427"/>
	<path fill="#FFFFFF" d="M179.29,35.628v1.107l-3.2,1.416c-0.124,0,6.276,15.691,6.276,15.691s6.769-16.123,6.769-16.184
		l-3.14-0.924v-1.107h10.092v1.107l-3.014,0.984c0,0.062-11.322,24.553-11.322,24.553h-2.524c0,0-10.521-23.814-10.521-23.875
		l-3.815-1.662v-1.107H179.29z"/>
	<path fill="#FFFFFF" d="M205.029,34.829c1.045,0,7.384-0.432,10.09,2.768c1.724,2.031,1.724,4.062,1.724,6.893v14.215l4.491,1.414
		v1.168c-2.521,0-10.644,0.678-10.644,0.678l-0.492-4.799c-0.924,2.584-4,5.045-8.43,5.168c-4.125,0.123-7.877-2.215-8.309-6.584
		c-0.553-5.537,4.738-8.49,9.784-9.291c1.907-0.309,4.246-0.492,7.015-0.492v-3.939c-0.061-3.506-2.523-5.045-5.107-5.105
		c-3.814-0.062-5.785,4.123-7.076,6.461l-3.323-4.432C198.014,35.997,201.889,34.829,205.029,34.829 M200.291,55.196
		c0.307,2.891,1.599,4.307,3.999,4.307c1.846,0,5.231-1.23,5.785-5.783c0.245-2.031,0.184-5.908,0.184-5.6
		c0,0-3.199-0.186-5.783,0.492C202.812,49.042,199.798,50.335,200.291,55.196"/>
	<path fill="#FFFFFF" d="M230.253,31.019c0,0.611-0.108,1.18-0.328,1.705c-0.219,0.525-0.521,0.98-0.906,1.367
		c-0.387,0.385-0.842,0.688-1.367,0.906c-0.524,0.219-1.095,0.326-1.707,0.326s-1.181-0.107-1.705-0.326
		c-0.525-0.219-0.98-0.521-1.367-0.906c-0.386-0.387-0.688-0.842-0.906-1.367c-0.22-0.525-0.329-1.094-0.329-1.705
		c0-0.613,0.109-1.184,0.329-1.707c0.218-0.527,0.521-0.982,0.906-1.367c0.387-0.387,0.842-0.688,1.367-0.908
		c0.524-0.217,1.093-0.328,1.705-0.328s1.183,0.111,1.707,0.328c0.525,0.221,0.98,0.521,1.367,0.908
		c0.385,0.385,0.688,0.84,0.906,1.367C230.145,29.835,230.253,30.405,230.253,31.019 M229.489,31.019
		c0-0.504-0.089-0.969-0.268-1.404c-0.179-0.434-0.427-0.809-0.746-1.127c-0.318-0.318-0.693-0.568-1.127-0.746
		c-0.435-0.18-0.9-0.268-1.403-0.268c-0.501,0-0.969,0.088-1.401,0.268c-0.434,0.178-0.81,0.428-1.128,0.746
		s-0.566,0.693-0.745,1.127c-0.181,0.436-0.268,0.9-0.268,1.404c0,0.5,0.087,0.969,0.268,1.4c0.179,0.434,0.427,0.811,0.745,1.129
		c0.318,0.316,0.694,0.566,1.128,0.744c0.433,0.18,0.9,0.27,1.401,0.27c0.503,0,0.969-0.09,1.403-0.27
		c0.434-0.178,0.809-0.428,1.127-0.744c0.319-0.318,0.567-0.695,0.746-1.129C229.4,31.987,229.489,31.519,229.489,31.019
		 M227.999,30.063c0,0.406-0.092,0.711-0.275,0.918c-0.183,0.207-0.401,0.357-0.656,0.453l0.908,1.85h-1.122l-0.847-1.717h-0.812
		v1.717h-0.99v-4.701h2.183c0.454,0,0.836,0.121,1.147,0.363C227.843,29.188,227.999,29.562,227.999,30.063 M226.984,30.087
		c0-0.209-0.06-0.357-0.179-0.455c-0.119-0.094-0.283-0.143-0.489-0.143h-1.122v1.205h1.122
		C226.76,30.694,226.984,30.491,226.984,30.087"/>
	<path fill="#FFFFFF" d="M30.727,29.765c-0.75,1.777-1.453,3.588-2.102,5.436c-4.702,13.354-6.229,27.055-4.983,40.285
		c0.122,1.316,0.609,1.311,0.712-0.008c1.016-12.748,3.738-25.844,8.318-38.854c1.324-3.762,2.782-7.428,4.348-11.002
		C34.903,26.944,32.806,28.325,30.727,29.765"/>
	<path fill="#FFFFFF" d="M40.885,17.349c2.929-5.756,6.162-11.234,9.667-16.385c0.747-1.1,0.284-1.328-0.686-0.322
		c-5.608,5.805-10.52,12.385-14.565,19.65C37.143,19.243,39.004,18.265,40.885,17.349"/>
	<path fill="#FFFFFF" d="M17.192,33.634C10.48,39.923,4.842,47.024,0.337,54.687c-0.67,1.139-0.273,1.424,0.585,0.412
		c5.362-6.301,11.393-12.307,18.045-17.893C18.348,36.022,17.759,34.831,17.192,33.634"/>
	<path fill="#FFFFFF" d="M65.4,9.37c-13.041,2.336-25.796,7.455-37.386,15.508c-2.381,1.656-4.653,3.41-6.834,5.238
		c0.661,1.229,1.338,2.451,2.031,3.666c2.354-1.84,4.762-3.639,7.258-5.375c11.34-7.879,23.257-13.996,35.298-18.375
		C67.017,9.575,66.773,9.122,65.4,9.37"/>
	<path fill="#FFFFFF" d="M27.454,43.146C19.882,31.692,14.064,19.714,9.972,7.647C9.542,6.384,9.083,6.62,9.299,8.001
		c2.058,13.084,6.895,25.949,14.695,37.713c0.681,1.025,1.383,2.029,2.098,3.021C26.487,46.87,26.941,45.007,27.454,43.146"/>
	<path fill="#FFFFFF" d="M53.622,73.456c-8.381-7.447-16.18-16.1-23.116-25.855c-0.486,1.715-0.942,3.43-1.365,5.145
		c6.905,8.607,15.067,15.736,24.053,21.283C54.321,74.726,54.61,74.333,53.622,73.456"/>
</g>
</svg>
