<?xml version="1.0" encoding="utf-8"?>
<!-- Generator: Adobe Illustrator 15.1.0, SVG Export Plug-In . SVG Version: 6.00 Build 0)  -->
<!DOCTYPE svg PUBLIC "-//W3C//DTD SVG 1.1//EN" "http://www.w3.org/Graphics/SVG/1.1/DTD/svg11.dtd">
<svg version="1.1" id="Layer_1" xmlns="http://www.w3.org/2000/svg" xmlns:xlink="http://www.w3.org/1999/xlink" x="0px" y="0px"
	 width="1944.482px" height="1650.254px" viewBox="0 0 1944.482 1650.254" enable-background="new 0 0 1944.482 1650.254"
	 xml:space="preserve">
<g>
	<g>
		<g>
			<defs>
				<rect id="SVGID_1_" width="1944.482" height="1650.254"/>
			</defs>
			<clipPath id="SVGID_2_">
				<use xlink:href="#SVGID_1_"  overflow="visible"/>
			</clipPath>
			<rect x="-0.615" y="-0.615" clip-path="url(#SVGID_2_)" fill="#00356E" width="1945.1" height="1650.87"/>
		</g>
	</g>
	<g>
		<g>
			<defs>
				<rect id="SVGID_3_" width="1944.482" height="1650.254"/>
			</defs>
			<clipPath id="SVGID_4_">
				<use xlink:href="#SVGID_3_"  overflow="visible"/>
			</clipPath>
		</g>
	</g>
	<g>
		<g>
			<defs>
				<rect id="SVGID_5_" width="1944.482" height="1650.254"/>
			</defs>
			<clipPath id="SVGID_6_">
				<use xlink:href="#SVGID_5_"  overflow="visible"/>
			</clipPath>
			<path clip-path="url(#SVGID_6_)" fill="#004693" d="M1717.35,0c0,0-67.709,129.263-68.938,134.187
				c-1.231,4.924-38.163,83.713-40.625,92.331c-2.462,8.618-25.854,65.247-27.084,72.634c-1.23,7.385-8.617,30.776-8.617,36.932
				s-17.235,80.02-17.235,86.175c0,6.155-14.771,68.941-16.004,72.634c-1.229,3.694-14.771,30.776-16.004,33.239
				c-1.229,2.462-2.462,11.079-4.924,14.773c-2.463,3.691-11.08,12.311-13.542,14.771c-2.463,2.462-9.849,9.851-12.311,12.312
				c-2.464,2.462-20.931,20.928-27.084,24.622c-6.155,3.691-6.155,3.691-6.155,3.691s-17.235,12.312-20.929,14.773
				c-3.692,2.461-25.854,12.311-29.546,16.003c-3.693,3.694-22.159,24.621-25.854,30.776c-3.694,6.154-23.393,32.009-27.084,38.163
				c-3.694,6.155-16.005,34.471-20.929,41.856c-4.925,7.387-13.542,84.944-13.542,84.944l-9.85,66.477c0,0,0,36.935,0,44.32
				c0,7.385,6.155,23.389,0,29.545c-6.154,6.154-20.929,16.004-25.853,20.928c-4.926,4.924-12.312,9.851-17.236,17.234
				c-4.924,7.387-25.853,38.164-28.312,41.856c-2.46,3.693-14.772,28.314-16.005,32.009c-1.231,3.692-4.924,12.311-4.924,12.311
				L481.35,1277.855l-11.081,11.08l-11.079-7.387l-12.311-12.311l-70.171-68.939l-2.462,1.23l83.713,82.479c0,0,0,6.156,0,7.39
				c0,1.229-6.155,7.387-7.387,7.387c-1.23,0-9.848,3.692-11.079,3.692c-1.231,0-1.231,3.691-3.693,7.388
				c-2.462,3.69-6.155,12.311-7.387,13.541c-1.232,1.229-3.694,1.229-6.155,2.463c-2.462,1.229-8.618,4.924-9.849,6.154
				c-1.231,1.229-20.928,29.545-24.621,40.627c-3.693,11.077-46.781,57.856-48.012,62.78c-1.231,4.927-19.697,34.474-24.622,36.935
				c-4.924,2.463-17.235,7.387-17.235,7.387l-17.235,7.387c0,0-9.849,8.619-9.849,11.08c0,2.463-1.231,13.541-3.693,16.004
				s-8.618,9.85-11.079,11.08c-2.462,1.23-7.387-1.23-11.081,2.463c-3.693,3.691-12.311,7.387-4.924,8.617
				c7.386,1.229,16.004-4.926,16.004-4.926l6.155-6.154c0,0,8.617-8.617,9.848-12.312s2.462-14.772,2.462-14.772
				s8.617-7.387,9.848-8.617c1.231-1.229,11.08-4.924,11.08-4.924s7.387-1.23,8.618,0c1.231,1.23,3.694,6.154,2.462,7.385
				c-1.231,1.232-12.311,16.006-13.542,18.467c-1.231,2.464-17.234,19.697-22.16,25.854c-4.924,6.154-7.386,12.312-14.772,20.928
				c-7.387,8.617-11.081,14.773-18.467,29.547c-7.385,14.771-17.234,30.775-18.466,33.238c-1.23,2.461-3.693,3.693-3.693,8.617
				s-1.231,7.387,0,8.617c1.231,1.229,9.848,13.543,9.848,13.543H0V0H1717.35z"/>
		</g>
	</g>
	<g>
		<g>
			<defs>
				<rect id="SVGID_7_" width="1944.482" height="1650.254"/>
			</defs>
			<clipPath id="SVGID_8_">
				<use xlink:href="#SVGID_7_"  overflow="visible"/>
			</clipPath>
			<g opacity="0.35" clip-path="url(#SVGID_8_)">
				<path fill="#00234A" d="M1673.03,0c0,0-11.079,8.618-13.541,8.618s-12.312,0-13.542,3.693c-1.23,3.694-2.462,7.387-7.387,7.387
					c-4.926,0,1.229,2.462,3.691,3.693c2.463,1.231,9.85,3.694,9.85,3.694s-2.463,0,2.463,3.693c4.925,3.694,0,3.694-4.924,4.924
					c-4.926,1.231-8.618,4.925-13.543,4.925s-13.541-4.925-12.312,0c1.229,4.924-1.229,6.155,4.924,6.155c6.155,0,14.773,0,14.773,0
					s-3.693,3.693-9.851,3.693c-6.156,0-11.08-3.693-9.849,0c1.229,3.694,13.542,6.155,2.462,9.849
					c-11.08,3.693-9.849,6.155-11.08,9.848c-1.229,3.693-4.924,3.693-4.924,6.155s6.155,9.849,0,8.618s-1.23-4.924-12.311-4.924
					c-11.082,0-25.854-6.156-25.854-8.618c0-2.462-11.08-4.924-13.542-4.924s-9.849,2.461-3.693,2.461
					c6.156,0,13.542,0,13.542,3.694c0,3.693,27.083,12.311,30.777,12.311c3.692,0,8.617,3.693,8.617,3.693
					s-2.462,3.694-12.312,3.694c-9.848,0-28.312,1.231-32.008,1.231c-3.692,0-18.466,2.462-22.159,2.462s-14.771,0-14.771,0
					s9.849,3.694,19.695,2.462c9.85-1.232,36.934,1.231,40.625,0c3.693-1.231,22.159-3.694,23.393-2.462
					c1.229,1.231,2.462,6.155,1.229,6.155c-1.229,0-16.005-1.231-19.695,0c-3.693,1.231,17.232,1.231,18.466,4.924
					c1.229,3.694-1.231,6.156-11.079,6.156c-9.852,0-16.005-6.156-22.16,0c-6.155,6.155-12.312-1.229-6.155,6.155
					c6.155,7.386,11.08,14.773,7.387,17.235c-3.691,2.462,2.462,1.231-12.311,4.924c-14.773,3.693,13.542-2.462,14.771,3.693
					c1.231,6.156-6.153,7.386-8.615,8.618c-2.463,1.231-13.542,4.924-16.004,4.924c-2.465,0-29.548,7.386-29.548,7.386
					s-7.387,3.694-17.233,0c-9.851-3.693-29.546,0-29.546,0s24.622,4.924,27.084,4.924s18.466-3.693,25.853-3.693
					s34.47-8.618,35.701-6.155c1.23,2.462,3.693,7.387-1.23,9.848c-4.925,2.462-2.463,8.618-2.463,8.618s7.389,6.155,2.463,8.618
					c-4.925,2.462-7.387,2.462-11.078,3.693c-3.693,1.231-20.931,1.231-17.235,2.463c3.693,1.231,12.312,2.461,12.312,4.924
					s3.692,3.693-4.925,4.924c-8.616,1.231-14.771,1.231-16.004,4.925c-1.229,3.693-11.08,12.311-13.542,12.311
					s-8.618-1.231-8.618-1.231s-6.153-6.155-12.311-2.463c-6.155,3.694-12.312,11.08-6.155,11.08s19.697,1.231,20.929,0
					c1.23-1.23,8.617-2.461,12.312,0c3.692,2.462,2.462,6.156-2.462,7.387c-4.926,1.231-7.387,3.694-20.931,3.694
					c-13.541,0-18.466-1.231-13.541,0s23.392-3.694,28.314,0c4.924,3.693,18.466,13.542,7.386,12.311
					c-11.079-1.231-19.696-3.694-16.004,0c3.693,3.693,12.312,6.155,12.312,7.387c0,1.23-2.465,3.693-9.852,6.155
					c-7.386,2.461-11.079,7.386-16.003,7.386c-4.925,0-6.156-1.231-14.772,0c-8.617,1.23-23.392,2.462-23.392,2.462
					s28.314,0,36.935,0c8.615,0,14.771-1.229,18.466-2.462c3.691-1.231,23.391-2.462,13.542,2.462
					c-9.851,4.924-23.393,9.849-32.01,9.849s-17.233,4.924-8.616,3.693c8.616-1.229,22.159-4.924,28.313-3.693
					c6.155,1.23,12.312-9.849,16.004-2.462c3.693,7.386,3.693,16.004-6.154,13.542c-9.85-2.462-7.388-6.155-19.696-3.693
					c-12.312,2.462-11.08,2.462-18.468,3.693c-7.387,1.231-13.543-1.231-22.157,0c-8.618,1.231-18.468,0-18.468,0
					s-8.616,7.387,3.692,7.387c12.31,0,12.312,0,24.621,0s27.084-6.155,34.471-4.924c7.386,1.23,17.234,3.692,8.617,8.617
					c-8.617,4.925-14.772,7.387-14.772,7.387s1.23,0,3.692,2.462c2.463,2.461,2.463,2.461,1.231,4.924
					c-1.232,2.463-13.542-2.462-16.004,0c-2.464,2.463-7.389,6.156-8.617,12.311c-0.503,2.511-1.006,5.022-1.591,7.366
					c-0.853,3.402-1.877,6.451-3.334,8.639c-2.462,3.693-3.693,11.079-3.693,11.079s14.772-36.932,22.16-32.008
					c7.386,4.924,7.386,6.155,11.079,7.387c3.691,1.23,16.004,6.155,16.004,11.08c0,4.924-3.693,14.773-6.155,13.542
					s-3.692,7.387-2.462,9.848c1.23,2.463,6.155,7.387,1.23,9.849c-4.926,2.462-9.851,2.462-7.388,6.155
					c2.462,3.693,2.462,14.772,2.462,17.235c0,2.463-4.925,2.462-7.387,4.924c-2.462,2.462-7.386,4.925-2.462,8.618
					s16.004,1.231,4.924,3.693c-11.079,2.462-28.312,1.231-18.466,4.925c9.849,3.693,14.771,3.693,16.004,6.156
					c1.231,2.461,11.08,6.155,4.925,8.617c-6.153,2.462-17.233-1.23-14.771,2.462c2.463,3.693,16.004,3.693,19.697,7.387
					c3.691,3.693,8.618,9.85,1.229,11.08c-7.387,1.231-16.004,1.231-11.08,4.925c4.926,3.693,2.462,9.85,2.462,9.85
					s-8.615,12.311-11.077,23.39c-2.465,11.08,1.229,16.004-7.389,14.773c-8.615-1.231-7.387,1.229-19.695,0
					c-12.312-1.231-28.314-1.231-32.01,0c-3.691,1.229-4.924,3.691-14.771,4.924c-9.849,1.232-36.934-1.231-38.163,0
					c-1.231,1.231,34.471,3.694,51.705,0c17.233-3.693,27.084-4.924,33.239-1.231c6.153,3.694,14.771,9.851,4.924,9.851
					c-9.849,0-14.772-2.462-17.234,0c-2.462,2.461,1.23,11.08-6.155,11.08c-7.385,0-16.004,0-18.466,0
					c-2.463,0-11.08,2.462-12.311,4.924c-1.231,2.463,6.153,3.694-2.463,6.155c-8.618,2.463-11.079-1.23-14.773,4.925
					c-3.692,6.155-11.079,6.155-11.079,9.848c0,3.693,0,6.155,3.693,8.618c3.691,2.462,8.616,6.155,4.925,11.08
					c-3.694,4.924-8.618,4.924-9.85,4.924c-1.232,0-4.924,2.463-9.85,2.463c-4.925,0-25.853,2.461-17.234-9.849
					c8.616-12.312,19.695-9.848,13.542-14.772c-6.155-4.925-4.926-2.462-8.616-7.387c-3.694-4.924-13.542-7.386-7.387-13.542
					c6.153-6.156,6.153-11.08,4.924-14.771c-1.231-3.693,2.463-8.617,2.463-11.08c0-2.462-8.618-4.925-6.155-6.155
					c2.461-1.231-2.463-4.924,1.229-4.924c2.771,0,6.926-2.771,11.427-3.116c1.5-0.116,3.039,0.039,4.578,0.654
					c6.155,2.462,13.542,4.924,16.004,3.691c2.462-1.229,9.849-4.924,0-4.924s-32.009,0-34.47-2.461
					c-2.463-2.463-4.924-16.004-4.924-16.004v-68.94c0,0-14.773,1.231-16.007,1.231c-1.23,0-40.626,2.462-40.626,2.462
					s-13.542,1.23-16.003,0c-2.463-1.231-8.618-4.924-9.85-1.231c-1.23,3.694-3.692,3.694-3.692,12.312
					c0,8.617-9.85,6.155-3.692,13.541c6.154,7.387,8.618,12.312,7.387,14.771c-1.23,2.464-8.617,1.231-6.155,11.079
					c2.463,9.851,6.155,7.389,2.463,14.773c-3.692,7.386-8.618,2.462-6.154,12.311c2.462,9.851,3.691,27.084,3.691,27.084
					s4.925,23.392,2.463,24.621c-2.463,1.231-4.925,13.542-2.463,16.004c2.463,2.463,4.925,16.004,2.463,17.235
					c-2.463,1.231-8.618,4.924-7.387,11.08c1.23,6.155-1.23,9.849,2.462,11.08c3.693,1.229,2.462-1.231,4.925,4.924
					s1.231,14.772,0,16.003c-1.229,1.231,1.231,9.851,0,12.312c-1.229,2.462,2.463,11.081,2.463,11.081s0,1.229-2.463,3.69
					c-2.463,2.463-4.925,7.389-4.925,7.389s3.693,4.924,0,9.848c-3.692,4.925-12.311,8.618-13.541,8.618c-1.229,0-114.49,0-114.49,0
					H870.37c0,0,7.387-3.693,14.771-3.693c7.388,0,23.392-3.694,25.854-3.694c2.463,0,3.692-9.848,3.692-9.848
					s8.617,4.924,11.08,4.924s-7.388-11.079-1.229-8.618c6.154,2.462,18.466,7.389,22.158,7.389c3.691,0,11.08-4.924,4.926-7.389
					c-6.156-2.461-24.623-7.387-14.772-11.078c9.849-3.693,19.696-7.388,24.62-8.618c4.925-1.23,9.85-3.693,9.85-3.693
					s-8.616,3.693-14.771,0s-16.005-7.387-17.235-7.387c-1.229,0-16.002,3.692-9.849-1.231c6.155-4.924,6.155-4.924,11.079-8.617
					c4.925-3.691,12.312-6.153,4.925-8.616c-7.387-2.463-9.849,1.229-12.311-3.693c-2.463-4.925,0-8.618-6.156-7.387
					c-6.154,1.229-20.928,1.229-20.928,1.229s9.849-14.771,8.617-16.004c-1.23-1.229-1.23-14.772-8.617-4.924
					c-7.388,9.848-13.541,14.771-13.541,14.771s-7.388-18.466-11.08-14.771c-3.693,3.692-9.851,6.156-11.08,13.542
					c-1.231,7.387-3.693,13.542-3.693,14.771c0,1.231-1.229,4.927-3.691,4.927c-2.462,0-11.079-1.231-12.312,0
					c-1.229,1.229-4.924,8.615-3.692,11.078s-4.925,1.231-6.153,4.926c-1.232,3.692-2.463,13.542,6.153,14.771
					c8.616,1.231,12.312-2.462,11.08,3.693c-1.23,6.155-8.617,4.924-3.692,9.849c4.924,4.924,11.08,7.386,7.387,9.85
					c-3.692,2.462-8.617,2.462-8.617,4.924s2.462,8.618,2.462,8.618l-136.647-2.465l-11.08-27.082l-8.617-6.155
					c0,0,1.231-16.004,0-20.929c-1.229-4.925,2.462-46.78,2.462-46.78l-86.175-4.924L618,552.752l49.244-1.229v-32.01
					c0,0-4.925-2.461-4.925,0c0,2.462-4.925,27.084-4.925,27.084l-38.162-3.691l16.004-168.657l201.896,12.311l2.462-20.929h-3.691
					l-1.23,16.004l-199.434-12.311l3.691-78.789c0,0,8.618,18.466,27.083,22.159c18.466,3.693,171.119,14.773,171.119,14.773
					l-1.229,33.239l110.797,8.618v-3.694l-104.643-7.386l-1.229-30.777l75.095,4.924l-1.229-11.079l-236.366-16.003
					c0,0-32.008-17.236-30.777-56.63C648.777,209.283,664.781,0,664.781,0H1673.03z"/>
				<path fill="#00234A" d="M634.004-1.231l-7.387,137.881c0,0,2.463,3.693,3.691,11.08c1.231,7.387,2.465,41.857,0,46.781
					c-2.461,4.924-14.771,7.386-14.771,7.386l7.387-115.721H618l-6.155,126.8c0,0,1.231,9.848,0,13.542
					c-1.229,3.693-7.387,7.387-6.155,12.311c1.231,4.924,1.231,8.618,3.694,12.311c2.461,3.693,8.617,16.004,8.617,16.004
					s-4.924,4.924-6.155,4.924c-1.229,0-62.785-7.387-62.785-7.387l-48.011,3.693v9.849l48.011-6.155l66.479,6.155l7.387,6.155
					c0,0-1.229,2.461-2.463,8.618c-1.231,6.156,0,17.235,0,17.235l-6.155,61.553h-34.47c0,0-17.235,2.463-19.697-3.692
					c-2.461-6.156-17.235-6.156-23.39-14.773c-6.155-8.617-4.924-8.618-11.08-18.466c-6.156-9.848-12.311-20.929-27.083-19.697
					c-14.773,1.231-45.55,7.386-59.092,8.618s-17.235,9.848-36.932,0c-19.697-9.849-25.853-8.618-34.47-20.929
					s-12.311-16.004-12.311-16.004l-3.693,2.463l14.772,17.234c0,0,18.467,18.467,35.702,22.16c17.235,3.692,27.084,1.231,34.469,0
					c7.387-1.231,51.706-8.618,60.323-8.618c8.617,0,16.004,2.462,20.929,9.849c4.924,7.387,9.848,22.159,14.773,25.853
					c4.924,3.693,14.772,9.848,19.696,12.311c4.925,2.461,2.462,3.692,9.849,6.155c7.387,2.462,50.476,2.462,50.476,2.462
					l-14.773,265.912l4.925,36.932l-4.925,98.486l-350.856-2.462v88.637l25.853,34.472l-6.156,11.08l-19.697-14.773l-22.16-30.775
					l-13.542-358.243l-113.258-1.23l13.542-44.319l78.789,2.462l-49.244-168.658l-4.924-9.848l33.239-121.876l-8.618-11.079
					l-3.693-43.088l6.155-36.932l-16.004-4.924l7.387-23.391L162.502,0L634.004-1.231z"/>
				<path fill="#00234A" d="M0,0h70.171c0,0-3.693,7.387-6.155,7.387S72.634,0,70.171,11.08c-2.462,11.08-7.386,11.08-3.693,16.004
					s4.924,6.155,11.079,6.155c6.156,0,12.311,0,14.773,0s6.155-8.618,6.155-8.618l7.387,2.462l-4.924,33.239l56.629,94.792
					c0,0,4.924,3.693,0,8.618c-4.924,4.924-28.315,9.848-28.315,9.848l-30.777,25.853L-1.23,182.199L0,0z"/>
				<path fill="#00234A" d="M566.294,898.684l129.263-216.668l12.312,6.155l222.824,6.155l-2.463,11.079l33.238-1.23l4.924-8.618
					l219.134-2.462v73.865l-2.464,7.387l-182.197,13.541c0,0-19.697,4.927-20.93,12.312c-1.23,7.387-4.925,20.928-4.925,20.928
					l3.692,206.821c0,0,7.387,4.926,6.156,8.619c-1.23,3.69-6.156,9.848-8.617,8.617c-2.463-1.23-54.168,11.077-54.168,11.077
					l-14.773,20.931l2.463,14.771l-92.331,25.854l-115.721-18.467c0,0-16.004-8.615-25.853-7.388
					c-9.85,1.23-46.78,2.461-46.78,2.461l-7.387,9.851l-27.084,4.926l-61.553,1.23l-80.02,17.233c0,0-9.848,3.693-11.08,9.851
					c-1.232,6.153-20.929,19.694-32.008,19.694c-11.081,0-28.315-12.311-28.315-12.311l-32.008,38.163l-7.387-8.616
					c0,0-1.231-16.004-6.155-22.16c-4.924-6.154-14.773-29.545-14.773-29.545l98.486-66.479h11.079l98.486-56.631l32.008-27.082
					L566.294,898.684z"/>
				<path fill="#00234A" d="M386.558,1158.442c0,0-9.848,8.616-14.772,16.004c-4.925,7.385-9.849,14.771-4.925,17.233
					c4.925,2.461,12.311-2.463,19.697-3.692c7.386-1.23,23.391,1.229,33.239-4.924c9.849-6.156,25.853-8.617,33.239-16.005
					c7.386-7.387,18.466-14.772,29.545-17.235c11.08-2.461,33.239-16.004,36.933-13.541c3.693,2.463,18.466,14.771,20.928,14.771
					s7.387-6.153,7.387-6.153s-14.772-7.388-16.004-14.773c-1.231-7.385-2.462-7.385-2.462-7.385l3.694-13.543h-7.387
					c0,0,3.693,3.692,0,9.85c-3.694,6.154-8.618,11.078-13.542,12.312c-4.924,1.229-27.083,8.619-33.239,11.082
					c-6.155,2.461-14.773,4.924-22.16,4.924c-7.385,0-12.311-2.463-14.772,0c-2.462,2.461-20.929,8.617-22.16,11.078
					c-1.231,2.463-8.618,6.156-13.542,6.156s-12.311-6.156-12.311-6.156L386.558,1158.442L386.558,1158.442z"/>
				<path fill="#00234A" d="M354.55,1192.911l-35.701,48.012l50.474,8.617c0,0,6.155,1.231,19.697,0
					c13.542-1.23,25.853-8.617,25.853-8.617l-40.625-39.395l2.462-2.462c0,0-7.387-7.387-9.849-6.155
					C364.399,1194.141,354.55,1192.911,354.55,1192.911z"/>
				<path fill="#00234A" d="M311.462,1249.54c0,0,19.697,1.232,24.621,0c4.924-1.229,24.622,1.232,28.315,4.926
					c3.693,3.694,4.924,11.078,0,12.312c-4.924,1.229-11.081,2.461-9.849,6.153c1.231,3.691,7.386,6.154,7.386,8.617
					s1.231,7.387-3.692,9.851c-4.925,2.463-8.618,1.229-8.618,7.387c0,6.154,3.693,14.772,0,17.233
					c-3.693,2.464-29.545,50.476-38.163,52.937c-8.618,2.463-14.773,7.387-19.697,16.006c-4.924,8.617-16.003,12.312-19.697,19.697
					c-3.693,7.387-17.235,11.078-16.003,20.928c1.23,9.849,0,17.234-6.155,17.234c-6.156,0-4.925,4.924-12.312,0
					c-7.385-4.924-14.772,16.004-17.234,16.004c-2.462,0-46.781,25.854-46.781,25.854l8.618,33.238l11.08,7.387
					c0,0,19.697-8.616,23.391-11.079c3.693-2.464,18.466,4.924,18.466,4.924s-4.924,9.85-3.694,13.543
					c1.231,3.692,12.311,12.311,12.311,12.311s0,13.541-3.693,18.465c-3.693,4.928-25.853,32.012-25.853,32.012h-12.311
					c0,0,13.542-30.776,7.387-45.553c-6.155-14.77-32.008-34.469-32.008-34.469l-19.697-8.619l19.697,14.773v9.848
					c0,0-17.235,1.232-19.697,1.232s-14.773,30.774-14.773,30.774l-6.155-27.082l-20.928,6.154l-3.693,11.08l-39.395,28.313
					l-38.163,68.939c0,0-34.471,3.693-34.471,0c0-3.691-3.693-76.328-3.693-76.328l33.239-22.156c0,0,1.231-27.084,2.461-27.084
					c1.231,0,35.702-33.24,40.626-35.701c4.924-2.463,22.16-23.393,24.621-24.621c2.463-1.229,30.777-38.164,30.777-38.164
					s-8.617-28.313,9.849-41.854c18.466-13.543,80.02-68.941,80.02-68.941s20.928-9.848,19.696-23.391
					c-1.23-13.541,3.694-43.088,3.694-43.088l-3.694-25.853l29.546,2.463l45.55-7.387l32.73-40.604l6.24,2.635l-43.894,63.82
					L311.462,1249.54z"/>
				<polygon fill="#00234A" points="145.268,1105.504 145.268,1139.975 184.662,1147.362 199.434,1136.282 199.434,1111.661 
					227.749,1109.198 225.287,1072.266 				"/>
				<path fill="#00234A" d="M0,989.784l25.853,32.008c0,0,2.462,12.312,0,18.467S0,1048.875,0,1048.875V989.784z"/>
				<path fill="#00234A" d="M0,1151.055c0,0,32.008-16.004,35.702-11.078c3.693,4.925,6.155,8.615,0,16.005
					c-6.155,7.385-8.618,22.155-8.618,22.155s-3.693,7.39-4.924,8.619c-1.231,1.23-22.16,12.313-22.16,12.313V1151.055z"/>
				<polygon fill="#00234A" points="1272.316,430.261 1272.316,462.269 1341.256,464.73 1341.256,430.261 				"/>
				<polygon fill="#00234A" points="1285.857,557.062 1324.021,566.91 1311.71,616.153 1283.396,609.998 1277.24,602.611 				"/>
				<polygon fill="#00234A" points="1292.013,523.822 1289.552,534.902 1330.177,545.982 1333.87,532.44 1292.013,522.591 				"/>
				<polygon fill="#00234A" points="1294.476,468.424 1341.256,468.424 1341.256,500.432 1294.476,499.201 				"/>
			</g>
		</g>
	</g>
	<g>
		<g>
			<defs>
				<rect id="SVGID_9_" width="1944.482" height="1650.254"/>
			</defs>
			<clipPath id="SVGID_10_">
				<use xlink:href="#SVGID_9_"  overflow="visible"/>
			</clipPath>
			<g clip-path="url(#SVGID_10_)">
				<polygon fill="#336BA9" points="423.491,778.039 423.491,906.071 550.291,906.071 533.056,778.039 				"/>
				<rect x="354.55" y="778.039" fill="#336BA9" width="62.785" height="128.032"/>
				<polygon fill="#336BA9" points="349.625,778.039 316.386,778.039 318.849,920.844 349.625,920.844 				"/>
				<rect x="279.455" y="778.039" fill="#336BA9" width="29.545" height="71.403"/>
				<polygon fill="#336BA9" points="279.455,855.596 309,855.596 309,920.844 279.455,906.071 				"/>
				<polygon fill="#336BA9" points="228.98,775.577 275.762,778.039 273.299,898.684 257.294,894.991 235.136,872.831 
					232.673,855.596 242.522,855.596 243.753,795.274 228.98,792.812 				"/>
				<polygon fill="#336BA9" points="354.55,913.458 354.55,934.385 428.415,1048.875 529.362,988.553 521.976,924.536 
					521.976,909.764 				"/>
				<polygon fill="#336BA9" points="525.669,909.764 525.669,920.844 550.291,914.688 550.291,909.764 				"/>
				<polygon fill="#336BA9" points="368.092,966.393 419.797,1048.875 354.55,1094.424 342.239,1072.266 354.55,1040.258 
					365.63,1007.02 365.63,978.704 361.936,968.856 				"/>
				<path fill="#336BA9" d="M237.597,898.684c0,4.927,65.248,166.195,65.248,166.195l23.391,3.693l6.155-7.387l14.772-44.318
					l2.462-38.164l-17.235-29.545l-40.625-18.467L237.597,898.684z"/>
				<polygon fill="#336BA9" points="294.228,1067.342 237.597,913.458 228.98,914.688 237.597,1063.649 275.762,1048.875 
					283.147,1067.342 				"/>
				<path fill="#336BA9" d="M237.597,1072.266c2.463-2.463,38.165-16.004,38.165-16.004v16.004l46.78,7.388l-8.617,19.696
					L309,1117.814l27.083,54.168l-32.008,45.55l-32.008,6.155l-25.853-3.692L237.597,1072.266z"/>
				<path fill="#336BA9" d="M120.646,731.259c0,3.693,92.33,264.681,92.33,264.681l12.311-6.153L214.208,766.96l-4.924-62.785
					h-33.239l-55.398,23.392c0,0-16.004,6.153-18.467,6.153C99.718,733.721,0,766.96,0,766.96l124.339,342.238l93.562-40.625
					l-11.08-28.314l13.542-13.541L115.721,734.952L120.646,731.259z"/>
				<polygon fill="#336BA9" points="205.589,1116.584 225.287,1116.584 225.287,1130.125 225.287,1192.911 220.363,1212.608 
					185.892,1244.616 177.275,1249.54 179.737,1196.604 129.263,1189.217 136.649,1144.899 185.892,1152.286 184.662,1158.442 
					204.359,1139.975 				"/>
				<path fill="#336BA9" d="M139.112,1109.198v30.776l-60.323,3.691l3.694-27.082c0,0-8.618-36.934-8.618-39.395
					c0-2.466-29.546-46.781-29.546-46.781L0,976.243v-88.64l52.937,140.345l4.924-3.693L0,871.602v-86.176l119.415,331.159
					L139.112,1109.198z"/>
				<polygon fill="#336BA9" points="75.096,1149.823 129.263,1147.362 121.876,1199.067 68.941,1199.067 				"/>
				<polygon fill="#336BA9" points="129.263,1196.604 173.582,1202.76 168.658,1255.696 113.259,1298.784 84.944,1373.879 
					49.244,1373.879 59.092,1201.528 123.107,1205.221 				"/>
				<polygon fill="#336BA9" points="225.287,1221.225 228.98,1263.083 216.67,1311.094 139.112,1371.417 113.259,1324.635 
					171.12,1269.237 209.283,1235.999 				"/>
				<path fill="#336BA9" d="M112.028,1333.254l20.928,40.625l-9.849,20.928l-3.692,30.777l-19.697,25.855l-27.084-29.55
					c0,0,22.16-40.627,23.39-43.088C97.255,1376.34,112.028,1333.254,112.028,1333.254z"/>
				<path fill="#336BA9" d="M198.204,503.51v57.86c0,0-125.57,0-123.107,0c2.461,0,20.928-61.554,20.928-61.554L198.204,503.51z"/>
				<polygon fill="#336BA9" points="118.184,464.115 198.204,470.271 198.204,292.996 136.649,292.996 136.649,444.418 
					118.184,441.956 				"/>
				<polygon fill="#336BA9" points="75.096,574.912 100.949,672.167 139.112,661.087 144.036,634.004 205.589,627.848 
					209.283,568.757 75.096,568.757 				"/>
				<polygon fill="#336BA9" points="151.423,641.39 141.574,666.012 146.499,704.175 184.662,693.095 209.283,691.864 
					209.283,637.697 				"/>
				<polygon fill="#336BA9" points="822.974,68.325 808.2,154.5 856.213,161.886 870.986,74.48 				"/>
				<polygon fill="#336BA9" points="816.818,38.779 813.126,63.401 854.98,68.325 858.675,48.627 				"/>
				<path fill="#336BA9" d="M278.839,0.615c0-1.23-14.773,45.55-14.773,45.55h57.861v46.781h19.697v-9.848l12.311-1.231v-68.94
					l46.781-2.462l6.155-9.849L278.839,0.615L278.839,0.615z"/>
				<polygon fill="#336BA9" points="362.552,38.779 362.552,52.32 415.488,46.165 415.488,35.085 				"/>
				<polygon fill="#336BA9" points="420.413,11.696 422.875,67.094 475.811,67.094 475.811,46.165 463.5,46.165 461.038,27.699 
					443.803,28.93 441.34,11.696 				"/>
				<path fill="#336BA9" d="M496.739,43.704c0,0-1.231,43.087,0,43.087c1.229,0,38.164,0,38.164,0V40.01L496.739,43.704z"/>
				<polygon fill="#336BA9" points="545.982,35.085 545.982,84.328 580.453,76.943 575.527,21.544 				"/>
				<polygon fill="#336BA9" points="255.448,0.615 239.445,67.094 154.5,53.552 161.887,0.615 				"/>
				<path fill="#336BA9" d="M-0.615,38.779c0-1.231,164.964,34.47,164.964,34.47l-6.155,36.932v41.857l-126.8-27.084l-32.008,1.231
					L-0.615,38.779L-0.615,38.779z"/>
				<path fill="#336BA9" d="M-0.615,164.349c0-1.231,132.956,3.693,132.956,3.693v8.618l-29.545,25.853l-103.411,23.39V164.349
					L-0.615,164.349z"/>
				<polygon fill="#336BA9" points="-0.615,232.057 101.564,209.898 104.026,225.902 152.038,225.902 137.266,284.994 
					129.879,284.994 132.341,436.417 113.875,436.417 110.182,459.806 57.246,459.806 53.553,448.727 -0.615,456.114 				"/>
				<path fill="#336BA9" d="M-0.615,465.962c6.155-1.229,51.705-6.156,51.705-6.156l4.924,11.08h48.012l-6.155,22.16l-98.486-6.155
					V465.962z"/>
				<polygon fill="#336BA9" points="-0.615,495.508 88.022,500.432 67.094,559.524 90.484,672.782 -0.615,704.791 				"/>
				<polygon fill="#336BA9" points="-0.615,710.946 134.803,669.089 142.19,710.946 -0.615,761.419 				"/>
			</g>
		</g>
	</g>
	<g>
		<g>
			<defs>
				<rect id="SVGID_11_" width="1944.482" height="1650.254"/>
			</defs>
			<clipPath id="SVGID_12_">
				<use xlink:href="#SVGID_11_"  overflow="visible"/>
			</clipPath>
			<g clip-path="url(#SVGID_12_)">
				<path fill="#00234A" d="M1245.232,969.471l-19.697,25.854l-28.314,397.639c0,0-9.849,45.549-38.162,61.553
					c-28.314,16.005-276.991,153.886-276.991,153.886l-3.693-8.617l275.146-160.656c0,0,30.775-23.391,33.238-62.785
					c2.462-39.395,9.85-137.879,9.85-137.879l-30.776,4.924l-1.229-8.615l-215.438,29.546l2.463,11.079L661.09,1317.25
					l-3.692-24.621l-167.426,25.855l-7.386-61.558l114.49-147.729l32.008-2.461v-12.312l50.476-3.69l25.853,9.848l55.397,18.467
					c0,0,34.472-0.195,46.166-1.945c11.694-1.748,264.973-64.713,264.973-64.713l80.908-9.975l58.525-50.168L1245.232,969.471z"/>
				<path opacity="0.5" fill="#00234A" enable-background="new    " d="M616.926,569.146l25.08,2.688l9.851-3.694l50.474,11.081
					l-4.924,46.78l2.461,3.694v19.695l8.618,3.693l9.848,22.16v8.617l-14.771-3.693l4.924,14.773l-2.462,48.012h36.932v19.697
					l51.705,14.771h40.625l7.387,13.542l14.773-6.155h72.633l32.008,13.541l8.617,19.697v204.359c0,0-11.078,22.159-19.697,23.391
					c-8.616,1.23-36.932,3.693-36.932,3.693s-17.234,13.541-16.004,22.157c1.229,8.619,3.691,23.392,3.691,23.392l-103.409,23.391
					c0,0-36.933,0-52.938-4.924c-16.003-4.924-40.625-12.311-40.625-12.311s46.781-6.156,54.167-6.156s46.781-2.461,52.938-3.693
					c6.154-1.229,27.082-3.69,38.161-4.924c11.08-1.229,44.318-6.154,43.089-36.932l2.463-9.851l36.933-16.006
					c0,0,19.697-13.541,8.617-24.619c-11.08-11.08-32.008-24.621-40.625-34.471c-8.619-9.85-16.005-17.234-27.084-13.543
					c-11.08,3.693-20.931,7.389-23.393,13.543c-2.463,6.154-14.771,24.621-14.771,24.621s-16.003,1.229-18.466,13.541l-4.924,3.693
					l-66.479-3.693c0,0-4.924-7.385-12.312,3.693c-7.388,11.08-17.234,17.233-20.93,16.004c-3.691-1.23-9.848-3.693-12.311,1.229
					c-2.461,4.926-25.854,7.388-25.854,7.388l-6.155-56.63l-13.541-2.461l8.617-32.01c0,0-7.386-16.004-14.771-14.771
					c-7.389,1.229-55.398,0-55.398,0s-1.231,38.161-7.387,54.166c-6.155,16.006-25.853,45.551-25.853,48.014
					c0,2.461-18.466,17.234-18.466,17.234l-11.08-119.414c0,0,28.314-6.156,28.314-7.388c0-1.23-19.697-126.801-19.697-126.801
					l11.08-13.542h43.088l2.461-98.486c0,0-16.003-2.462-14.771-11.078c1.229-8.617,3.692-50.475,3.692-52.938
					s17.235-46.781,17.235-46.781s0-18.466,0-19.695c0-1.23-82.482-6.155-82.482-6.155l4.924-77.56l39.395,4.927l11.08-100.949
					l99.717,8.618l-6.154,82.481l36.933,2.463v-24.622l27.083,2.464l-4.924,86.175l-105.873-6.155L616.926,569.146z"/>
				<path fill="#00234A" d="M976.857,814.356c0,0,2.464-24.621,40.625-28.315c38.164-3.692,241.291-16.003,241.291-16.003
					s17.234,3.692,16.005,18.465c-1.231,14.773-9.851,136.65-9.851,136.65s-23.391,59.092-54.167,66.477l-55.397,50.478
					l-89.868,11.08l-158.81,38.161c0,0-1.229-11.077,0-13.543c1.23-2.463,17.234-23.389,17.234-23.389l50.475-9.85
					c0,0,7.388,3.692,9.851-8.617c2.462-12.312-6.156-8.617-6.156-8.617v-24.623L976.857,814.356z"/>
				<polygon opacity="0.5" fill="#00234A" enable-background="new    " points="228.98,561.37 267.144,567.526 262.22,585.992 
					342.239,585.992 422.259,585.992 449.343,578.605 503.51,585.992 498.586,616.769 446.88,616.769 464.115,673.396 
					486.275,673.396 482.582,730.028 460.422,730.028 454.267,686.939 435.801,686.939 430.876,770.652 237.597,770.652 
					225.287,565.062 				"/>
				<polygon opacity="0.5" fill="#00234A" enable-background="new    " points="279.455,403.792 267.144,450.573 328.697,455.498 
					338.546,403.792 				"/>
				<path opacity="0.5" fill="#00234A" enable-background="new    " d="M345.933,408.717l-13.542,71.401
					c0,0,51.706,8.618,52.937,6.155c1.23-2.461,8.617-82.481,8.617-82.481L345.933,408.717z"/>
			</g>
		</g>
	</g>
	<g>
		<g>
			<defs>
				<rect id="SVGID_13_" width="1944.482" height="1650.254"/>
			</defs>
			<clipPath id="SVGID_14_">
				<use xlink:href="#SVGID_13_"  overflow="visible"/>
			</clipPath>
			<path clip-path="url(#SVGID_14_)" fill="none" stroke="#6690BE" stroke-width="3.6932" stroke-miterlimit="10" d="
				M659.855-12.311L642.142,258.61c-1.775,27.183,18.758,50.687,45.932,52.577l608.032,42.298
				c28.548,1.986,50.689,25.723,50.689,54.34v91.225c0,6.23-0.799,12.437-2.379,18.462l-24.401,93.086
				c-4.239,16.177-12.396,31.061-23.749,43.338L1191.681,766.96"/>
		</g>
	</g>
	<g>
		<g>
			<defs>
				<rect id="SVGID_15_" width="1944.482" height="1650.254"/>
			</defs>
			<clipPath id="SVGID_16_">
				<use xlink:href="#SVGID_15_"  overflow="visible"/>
			</clipPath>
			<path clip-path="url(#SVGID_16_)" fill="none" stroke="#6690BE" stroke-width="3.6932" stroke-miterlimit="10" d="
				M978.704,1007.02h177.015c5.064,0,10.099-0.815,14.901-2.42l33.371-11.12c57.858-18.468,64.016-81.255,64.016-81.255
				s11.08-109.562,11.08-130.49c0-20.932-19.697-18.469-19.697-18.469l-251.139,14.772l-159.523-1.199
				c-2.718-0.02-5.354,0.923-7.443,2.663L685.46,909.354c-2.22,1.854-5.038,2.834-7.927,2.767l-42.661-1.017
				c-2.911-0.067-5.664-1.34-7.608-3.506l-28.962-32.305c0,0-3.53-7.434-3.53-19.104"/>
		</g>
	</g>
	<g>
		<g>
			<defs>
				<rect id="SVGID_17_" width="1944.482" height="1650.254"/>
			</defs>
			<clipPath id="SVGID_18_">
				<use xlink:href="#SVGID_17_"  overflow="visible"/>
			</clipPath>
			<path clip-path="url(#SVGID_18_)" fill="none" stroke="#6690BE" stroke-width="3.6932" stroke-miterlimit="10" d="
				M975.012,818.665l4.474-13.415c1.68-5.04,4.771-9.566,9.104-12.641c5.143-3.646,11.722-5.583,22.123-7.186l0,0l248.605-14.825
				c10.359-0.615,15.902,8.193,14.845,18.52l-9.848,124.339c0,0-8.618,71.402-89.869,86.176c0,0-13.541,3.691-45.552,3.691
				c-32.008,0-150.189,0-150.189,0"/>
		</g>
	</g>
	<g>
		<g>
			<defs>
				<rect id="SVGID_19_" width="1944.482" height="1650.254"/>
			</defs>
			<clipPath id="SVGID_20_">
				<use xlink:href="#SVGID_19_"  overflow="visible"/>
			</clipPath>
			<path clip-path="url(#SVGID_20_)" fill="none" stroke="#6690BE" stroke-width="3.6932" stroke-miterlimit="10" d="
				M901.146,1094.424l-3.101-21.146c-1.031-10.302,6.033-19.66,16.224-21.494l33.952-6.111c6.113-1.102,11.533-4.6,15.055-9.719
				l4.336-6.312c2.411-3.508,3.688-7.666,3.659-11.926c-0.226-31.688-1.187-168.688-1.187-190.436
				c0-9.619-1.502-16.607-3.334-21.553c-2.217-5.98-7.024-10.625-13.077-12.644l-19.262-6.422c-2.466-0.82-5.046-1.239-7.645-1.239
				h-72.194c-4.118,0-8.113,1.411-11.316,3.998L685.663,916.668c-2.36,1.906-5.302,2.943-8.335,2.943h-75.48
				c-4.67,0-9.188-1.67-12.731-4.709l-5.767-4.943c-3.762-3.225-5.791-8.027-5.482-12.971l3.202-51.24c0,0-3.02-5.07,14.497-5.07"/>
		</g>
	</g>
	<g>
		<g>
			<defs>
				<rect id="SVGID_21_" width="1944.482" height="1650.254"/>
			</defs>
			<clipPath id="SVGID_22_">
				<use xlink:href="#SVGID_21_"  overflow="visible"/>
			</clipPath>
			<path clip-path="url(#SVGID_22_)" fill="none" stroke="#6690BE" stroke-width="3.6932" stroke-miterlimit="10" d="
				M909.765,1091.963l-2.463-13.604c0-3.146,1.084-6.195,3.068-8.64l9.667-11.897c2.104-2.592,5.087-4.326,8.382-4.875l46.593-7.767
				"/>
		</g>
	</g>
	<g>
		<g>
			<defs>
				<rect id="SVGID_23_" width="1944.482" height="1650.254"/>
			</defs>
			<clipPath id="SVGID_24_">
				<use xlink:href="#SVGID_23_"  overflow="visible"/>
			</clipPath>
			<path clip-path="url(#SVGID_24_)" fill="none" stroke="#6690BE" stroke-width="3.6932" stroke-miterlimit="10" d="
				M654.933-12.311l-46.779,605.689l-17.235,338.544c0,0,9.848,99.719-102.18,151.424l-67.677,31.42
				c-0.889,0.412-1.741,0.882-2.567,1.406c-7.477,4.775-45.267,29.894-65.175,61.965c-22.159,35.701-62.785,96.025-109.565,146.498
				c-46.78,50.476-34.47,108.334-29.545,125.57c4.924,17.234,34.47,66.479-23.39,75.096"/>
		</g>
	</g>
	<g>
		<g>
			<defs>
				<rect id="SVGID_25_" width="1944.482" height="1650.254"/>
			</defs>
			<clipPath id="SVGID_26_">
				<use xlink:href="#SVGID_25_"  overflow="visible"/>
			</clipPath>
			<path clip-path="url(#SVGID_26_)" fill="none" stroke="#6690BE" stroke-width="3.6932" stroke-miterlimit="10" d="
				M606.093,633.809c0,0-1.635,24.817,4.521,30.974c6.155,6.153,11.081,2.461,11.081,8.617c0,6.154-33.239,4.925-33.239,4.925
				s-7.387-3.694-7.387-9.851c0-6.153,14.773-9.848,16.004-2.462c1.229,7.388-7.101,174.879-7.101,174.879"/>
		</g>
	</g>
	<g>
		<g>
			<defs>
				<rect id="SVGID_27_" width="1944.482" height="1650.254"/>
			</defs>
			<clipPath id="SVGID_28_">
				<use xlink:href="#SVGID_27_"  overflow="visible"/>
			</clipPath>
			<path clip-path="url(#SVGID_28_)" fill="none" stroke="#6690BE" stroke-width="3.6932" stroke-miterlimit="10" d="
				M607.989,596.56c0,0,3.854-16.724,19.858-6.875c12.631,7.773,36.765,30.114,46.375,39.188c2.666,2.518,4.496,5.787,5.254,9.375
				l2.713,12.894c0.692,3.293,2.212,6.357,4.412,8.904l14.974,17.338c3.226,3.735,7.871,5.946,12.805,6.095l155.991,4.691h394.245"
				/>
		</g>
	</g>
	<g>
		<g>
			<defs>
				<rect id="SVGID_29_" width="1944.482" height="1650.254"/>
			</defs>
			<clipPath id="SVGID_30_">
				<use xlink:href="#SVGID_29_"  overflow="visible"/>
			</clipPath>
			
				<line clip-path="url(#SVGID_30_)" fill="none" stroke="#6690BE" stroke-width="3.6932" stroke-miterlimit="10" x1="975.012" y1="798.352" x2="978.704" y2="1027.948"/>
		</g>
	</g>
	<g>
		<g>
			<defs>
				<rect id="SVGID_31_" width="1944.482" height="1650.254"/>
			</defs>
			<clipPath id="SVGID_32_">
				<use xlink:href="#SVGID_31_"  overflow="visible"/>
			</clipPath>
			
				<circle clip-path="url(#SVGID_32_)" fill="none" stroke="#6690BE" stroke-width="3.6932" stroke-miterlimit="10" cx="971.318" cy="787.888" r="9.849"/>
		</g>
	</g>
	<g>
		<g>
			<defs>
				<rect id="SVGID_33_" width="1944.482" height="1650.254"/>
			</defs>
			<clipPath id="SVGID_34_">
				<use xlink:href="#SVGID_33_"  overflow="visible"/>
			</clipPath>
			<path clip-path="url(#SVGID_34_)" fill="none" stroke="#6690BE" stroke-width="3.6932" stroke-miterlimit="10" d="
				M951.499,792.361c0,0,11.545,4.481,10.757-0.611"/>
		</g>
	</g>
	<g>
		<g>
			<defs>
				<rect id="SVGID_35_" width="1944.482" height="1650.254"/>
			</defs>
			<clipPath id="SVGID_36_">
				<use xlink:href="#SVGID_35_"  overflow="visible"/>
			</clipPath>
			<path clip-path="url(#SVGID_36_)" fill="none" stroke="#6690BE" stroke-width="3.6932" stroke-miterlimit="10" d="
				M966.114,804.204c0,0-3.972-9.447,0-7.957"/>
		</g>
	</g>
	<g>
		<g>
			<defs>
				<rect id="SVGID_37_" width="1944.482" height="1650.254"/>
			</defs>
			<clipPath id="SVGID_38_">
				<use xlink:href="#SVGID_37_"  overflow="visible"/>
			</clipPath>
			<path clip-path="url(#SVGID_38_)" fill="none" stroke="#6690BE" stroke-width="3.6932" stroke-miterlimit="10" d="
				M978.288,794.847c0,0-3.276,1.434-3.276,7.7"/>
		</g>
	</g>
	<g>
		<g>
			<defs>
				<rect id="SVGID_39_" width="1944.482" height="1650.254"/>
			</defs>
			<clipPath id="SVGID_40_">
				<use xlink:href="#SVGID_39_"  overflow="visible"/>
			</clipPath>
			<path clip-path="url(#SVGID_40_)" fill="none" stroke="#6690BE" stroke-width="3.6932" stroke-miterlimit="10" d="
				M980.527,791.374c0,0,3.457,4.492,11.279-0.729"/>
		</g>
	</g>
	<g>
		<g>
			<defs>
				<rect id="SVGID_41_" width="1944.482" height="1650.254"/>
			</defs>
			<clipPath id="SVGID_42_">
				<use xlink:href="#SVGID_41_"  overflow="visible"/>
			</clipPath>
			
				<circle clip-path="url(#SVGID_42_)" fill="none" stroke="#6690BE" stroke-width="3.6932" stroke-miterlimit="10" cx="976.243" cy="1036.565" r="8.617"/>
		</g>
	</g>
	<g>
		<g>
			<defs>
				<rect id="SVGID_43_" width="1944.482" height="1650.254"/>
			</defs>
			<clipPath id="SVGID_44_">
				<use xlink:href="#SVGID_43_"  overflow="visible"/>
			</clipPath>
			<path clip-path="url(#SVGID_44_)" fill="none" stroke="#6690BE" stroke-width="3.6932" stroke-miterlimit="10" d="
				M550.261,1039.747c0,0-22.129,14.053-89.838,48.522l-46.781,23.392c0,0-19.697,9.848-64.016,61.553
				c-44.318,51.705-116.952,151.422-116.952,151.422s-50.474,92.332-56.629,126.806c-6.155,34.469,9.848,87.401,9.848,87.401
				s8.618,34.474-1.23,55.398c-9.849,20.93-24.622,56.631-24.622,56.631"/>
		</g>
	</g>
	<g>
		<g>
			<defs>
				<rect id="SVGID_45_" width="1944.482" height="1650.254"/>
			</defs>
			<clipPath id="SVGID_46_">
				<use xlink:href="#SVGID_45_"  overflow="visible"/>
			</clipPath>
			<path clip-path="url(#SVGID_46_)" fill="none" stroke="#6690BE" stroke-width="3.6932" stroke-miterlimit="10" d="
				M184.662,1652.104c0,0-3.694-27.084,6.155-40.625c9.848-13.543,39.395-55.397,6.155-81.252l-33.239-24.62
				c0,0-20.929-22.158-7.387-46.781c13.542-24.621,70.171-141.574,70.171-141.574s13.542-23.389,11.079-66.477
				c-2.461-43.089-11.079-347.164-11.079-347.164l-14.773-444.417c0,0-3.693-153.884-2.461-188.355
				c1.231-34.47,16.003-126.8,24.622-147.729C242.523,102.181,267.144-1.23,267.144-1.23"/>
		</g>
	</g>
	<g>
		<g>
			<defs>
				<rect id="SVGID_47_" width="1944.482" height="1650.254"/>
			</defs>
			<clipPath id="SVGID_48_">
				<use xlink:href="#SVGID_47_"  overflow="visible"/>
			</clipPath>
			<path clip-path="url(#SVGID_48_)" fill="none" stroke="#6690BE" stroke-width="3.6932" stroke-miterlimit="10" d="
				M225.308,867.229c0,0,13.521,27.763,34.449,37.609c20.928,9.85,72.633,34.471,72.633,34.471s38.164,9.851,22.159,75.097
				c-16.003,65.248-33.239,84.942-33.239,84.942s-4.924,7.39,0,23.394c4.925,16.004,13.542,29.545,13.542,29.545
				s11.79,17.625,8.357,28.51"/>
		</g>
	</g>
	<g>
		<g>
			<defs>
				<rect id="SVGID_49_" width="1944.482" height="1650.254"/>
			</defs>
			<clipPath id="SVGID_50_">
				<use xlink:href="#SVGID_49_"  overflow="visible"/>
			</clipPath>
			<path clip-path="url(#SVGID_50_)" fill="none" stroke="#6690BE" stroke-width="3.6932" stroke-miterlimit="10" d="
				M237.145,1241.532c0,0-0.777,69.562-50.021,140.965l-60.18,111.938c-0.914,1.699-1.957,3.326-3.118,4.867l-65.965,87.553
				c0,0-27.083,52.939-35.701,83.716"/>
		</g>
	</g>
	<g>
		<g>
			<defs>
				<rect id="SVGID_51_" width="1944.482" height="1650.254"/>
			</defs>
			<clipPath id="SVGID_52_">
				<use xlink:href="#SVGID_51_"  overflow="visible"/>
			</clipPath>
			<path clip-path="url(#SVGID_52_)" fill="none" stroke="#6690BE" stroke-width="3.6932" stroke-miterlimit="10" d="
				M73.196,1566.502l56.067-52.281c0,0,17.05-18.646,53.46,5.449"/>
		</g>
	</g>
	<g>
		<g>
			<defs>
				<rect id="SVGID_53_" width="1944.482" height="1650.254"/>
			</defs>
			<clipPath id="SVGID_54_">
				<use xlink:href="#SVGID_53_"  overflow="visible"/>
			</clipPath>
			<polyline clip-path="url(#SVGID_54_)" fill="none" stroke="#6690BE" stroke-width="3.6932" stroke-miterlimit="10" points="
				182.199,1536.381 160.041,1536.381 102.179,1670.567 			"/>
		</g>
	</g>
	<g>
		<g>
			<defs>
				<rect id="SVGID_55_" width="1944.482" height="1650.254"/>
			</defs>
			<clipPath id="SVGID_56_">
				<use xlink:href="#SVGID_55_"  overflow="visible"/>
			</clipPath>
			
				<line clip-path="url(#SVGID_56_)" fill="none" stroke="#6690BE" stroke-width="2.4621" stroke-miterlimit="10" x1="975.012" y1="818.665" x2="1271.822" y2="818.665"/>
		</g>
	</g>
	<g>
		<g>
			<defs>
				<rect id="SVGID_57_" width="1944.482" height="1650.254"/>
			</defs>
			<clipPath id="SVGID_58_">
				<use xlink:href="#SVGID_57_"  overflow="visible"/>
			</clipPath>
			
				<line clip-path="url(#SVGID_58_)" fill="none" stroke="#6690BE" stroke-width="2.4621" stroke-miterlimit="10" x1="976.857" y1="882.065" x2="1267.392" y2="879.604"/>
		</g>
	</g>
	<g>
		<g>
			<defs>
				<rect id="SVGID_59_" width="1944.482" height="1650.254"/>
			</defs>
			<clipPath id="SVGID_60_">
				<use xlink:href="#SVGID_59_"  overflow="visible"/>
			</clipPath>
			
				<line clip-path="url(#SVGID_60_)" fill="none" stroke="#6690BE" stroke-width="2.4621" stroke-miterlimit="10" x1="976.857" y1="942.387" x2="1255.081" y2="941.157"/>
		</g>
	</g>
	<g>
		<g>
			<defs>
				<rect id="SVGID_61_" width="1944.482" height="1650.254"/>
			</defs>
			<clipPath id="SVGID_62_">
				<use xlink:href="#SVGID_61_"  overflow="visible"/>
			</clipPath>
			
				<line clip-path="url(#SVGID_62_)" fill="none" stroke="#6690BE" stroke-width="2.4621" stroke-miterlimit="10" x1="1044.567" y1="783.579" x2="1047.029" y2="1006.403"/>
		</g>
	</g>
	<g>
		<g>
			<defs>
				<rect id="SVGID_63_" width="1944.482" height="1650.254"/>
			</defs>
			<clipPath id="SVGID_64_">
				<use xlink:href="#SVGID_63_"  overflow="visible"/>
			</clipPath>
			
				<line clip-path="url(#SVGID_64_)" fill="none" stroke="#6690BE" stroke-width="2.4621" stroke-miterlimit="10" x1="1075.345" y1="781.116" x2="1077.806" y2="1002.709"/>
		</g>
	</g>
	<g>
		<g>
			<defs>
				<rect id="SVGID_65_" width="1944.482" height="1650.254"/>
			</defs>
			<clipPath id="SVGID_66_">
				<use xlink:href="#SVGID_65_"  overflow="visible"/>
			</clipPath>
			
				<line clip-path="url(#SVGID_66_)" fill="none" stroke="#6690BE" stroke-width="2.4621" stroke-miterlimit="10" x1="1108.584" y1="1006.403" x2="1106.121" y2="779.886"/>
		</g>
	</g>
	<g>
		<g>
			<defs>
				<rect id="SVGID_67_" width="1944.482" height="1650.254"/>
			</defs>
			<clipPath id="SVGID_68_">
				<use xlink:href="#SVGID_67_"  overflow="visible"/>
			</clipPath>
			
				<line clip-path="url(#SVGID_68_)" fill="none" stroke="#6690BE" stroke-width="2.4621" stroke-miterlimit="10" x1="1173.83" y1="777.424" x2="1173.83" y2="999.016"/>
		</g>
	</g>
	<g>
		<g>
			<defs>
				<rect id="SVGID_69_" width="1944.482" height="1650.254"/>
			</defs>
			<clipPath id="SVGID_70_">
				<use xlink:href="#SVGID_69_"  overflow="visible"/>
			</clipPath>
			
				<line clip-path="url(#SVGID_70_)" fill="none" stroke="#6690BE" stroke-width="2.4621" stroke-miterlimit="10" x1="1227.997" y1="975.627" x2="1224.305" y2="772.5"/>
		</g>
	</g>
	<g>
		<g>
			<defs>
				<rect id="SVGID_71_" width="1944.482" height="1650.254"/>
			</defs>
			<clipPath id="SVGID_72_">
				<use xlink:href="#SVGID_71_"  overflow="visible"/>
			</clipPath>
			<path clip-path="url(#SVGID_72_)" fill="none" stroke="#6690BE" stroke-width="2.4621" stroke-miterlimit="10" d="
				M481.966,1086.424c0,0,19.697-4.926,64.016,0c44.319,4.924,75.095,8.615,93.562,8.615c18.466,0,35.701-6.154,49.243,0
				c13.542,6.156,70.171,22.16,70.171,22.16s33.239,6.156,78.789-6.154s222.824-56.629,222.824-56.629s84.942-11.082,94.792-12.312
				c9.85-1.229,97.256-50.475,109.564-116.95"/>
		</g>
	</g>
	<g>
		<g>
			<defs>
				<rect id="SVGID_73_" width="1944.482" height="1650.254"/>
			</defs>
			<clipPath id="SVGID_74_">
				<use xlink:href="#SVGID_73_"  overflow="visible"/>
			</clipPath>
			<path clip-path="url(#SVGID_74_)" fill="none" stroke="#6690BE" stroke-width="2.4621" stroke-miterlimit="10" d="
				M511.512,1071.651l40.625-18.468c0,0,23.39-11.08,33.239,3.693c9.848,14.771,32.787,37.521,43.477,37.844"/>
		</g>
	</g>
	<g>
		<g>
			<defs>
				<rect id="SVGID_75_" width="1944.482" height="1650.254"/>
			</defs>
			<clipPath id="SVGID_76_">
				<use xlink:href="#SVGID_75_"  overflow="visible"/>
			</clipPath>
			<path clip-path="url(#SVGID_76_)" fill="none" stroke="#6690BE" stroke-width="2.4621" stroke-miterlimit="10" d="
				M593.239,1067.145c0,0,12.717,17.554,6.735,25.187"/>
		</g>
	</g>
	<g>
		<g>
			<defs>
				<rect id="SVGID_77_" width="1944.482" height="1650.254"/>
			</defs>
			<clipPath id="SVGID_78_">
				<use xlink:href="#SVGID_77_"  overflow="visible"/>
			</clipPath>
			<path clip-path="url(#SVGID_78_)" fill="none" stroke="#6690BE" stroke-width="2.4621" stroke-miterlimit="10" d="
				M628.464,1269.854"/>
		</g>
	</g>
	<g>
		<g>
			<defs>
				<rect id="SVGID_79_" width="1944.482" height="1650.254"/>
			</defs>
			<clipPath id="SVGID_80_">
				<use xlink:href="#SVGID_79_"  overflow="visible"/>
			</clipPath>
			<path clip-path="url(#SVGID_80_)" fill="none" stroke="#6690BE" stroke-width="2.4621" stroke-miterlimit="10" d="
				M806.969,818.049l4.772,5.369c3.271,3.678,5.077,8.43,5.077,13.354v142.549"/>
		</g>
	</g>
	<g>
		<g>
			<defs>
				<rect id="SVGID_81_" width="1944.482" height="1650.254"/>
			</defs>
			<clipPath id="SVGID_82_">
				<use xlink:href="#SVGID_81_"  overflow="visible"/>
			</clipPath>
			<polyline clip-path="url(#SVGID_82_)" fill="none" stroke="#6690BE" stroke-width="2.4621" stroke-miterlimit="10" points="
				831.592,787.271 840.208,710.946 858.675,697.404 863.6,687.556 			"/>
		</g>
	</g>
	<g>
		<g>
			<defs>
				<rect id="SVGID_83_" width="1944.482" height="1650.254"/>
			</defs>
			<clipPath id="SVGID_84_">
				<use xlink:href="#SVGID_83_"  overflow="visible"/>
			</clipPath>
			<path clip-path="url(#SVGID_84_)" fill="none" stroke="#6690BE" stroke-width="2.4621" stroke-miterlimit="10" d="
				M835.832,749.716l22.843,16.628l38.164-8.617l19.696,8.617l51.705-3.69l38.163-13.543l6.155-7.389h33.237l4.926,12.312
				l30.775,2.462c0,0,18.467,0,29.546-8.617c11.08-8.617,2.463-17.234,2.463-17.234"/>
		</g>
	</g>
	<g>
		<g>
			<defs>
				<rect id="SVGID_85_" width="1944.482" height="1650.254"/>
			</defs>
			<clipPath id="SVGID_86_">
				<use xlink:href="#SVGID_85_"  overflow="visible"/>
			</clipPath>
			<path clip-path="url(#SVGID_86_)" fill="none" stroke="#6690BE" stroke-width="2.4621" stroke-miterlimit="10" d="
				M1111.045,747.878c0,0,12.312,9.849,7.387,14.773c-4.924,4.924-30.52-6.608-30.52-6.608s-15.03,4.146-17.491,7.839
				c-2.463,3.693-13.543,2.462-16.005-1.229c-2.463-3.693-3.692-8.618-3.692-8.618"/>
		</g>
	</g>
	<g>
		<g>
			<defs>
				<rect id="SVGID_87_" width="1944.482" height="1650.254"/>
			</defs>
			<clipPath id="SVGID_88_">
				<use xlink:href="#SVGID_87_"  overflow="visible"/>
			</clipPath>
			<path clip-path="url(#SVGID_88_)" fill="none" stroke="#6690BE" stroke-width="3.6932" stroke-miterlimit="10" d="
				M1192.451,1229.612l18.959-201.664c0,0,3.459-12.035,23.005-28.933c19.543-16.896,39.209-60.328,43.475-98.875
				c4.267-38.545,10.224-120.256,10.224-120.256s6.31-39.896,20.425-77.899c14.115-38.005,46.027-150.385,47.027-211.73V368.707
				c0,0-5.871-55.437-49.936-58.693C1261.568,306.756,838.4,278.43,838.4,278.43s-26.486,3.283-39.618,13.131
				c-13.132,9.849-32.02,6.566-45.97,6.566l-64.021-5.745c0,0-32.83-9.027-31.188-51.706
				c1.641-42.678,19.694-241.907,19.694-241.907"/>
		</g>
	</g>
	<g>
		<g>
			<defs>
				<rect id="SVGID_89_" width="1944.482" height="1650.254"/>
			</defs>
			<clipPath id="SVGID_90_">
				<use xlink:href="#SVGID_89_"  overflow="visible"/>
			</clipPath>
			<polygon clip-path="url(#SVGID_90_)" fill="#E1134F" points="1196.452,1134.139 1188.817,1231.985 1167.007,1237.04 
				1166.205,1229.87 1089.062,1241.708 1078.917,1164.745 			"/>
		</g>
	</g>
</g>
</svg>
