<?xml version="1.0" encoding="utf-8"?>
<!-- Generator: Adobe Illustrator 15.1.0, SVG Export Plug-In . SVG Version: 6.00 Build 0)  -->
<!DOCTYPE svg PUBLIC "-//W3C//DTD SVG 1.1//EN" "http://www.w3.org/Graphics/SVG/1.1/DTD/svg11.dtd">
<svg version="1.1" id="Layer_1" xmlns="http://www.w3.org/2000/svg" xmlns:xlink="http://www.w3.org/1999/xlink" x="0px" y="0px"
	 width="321.899px" height="106px" viewBox="0 0 321.899 106" enable-background="new 0 0 321.899 106" xml:space="preserve">
<polygon opacity="0.9" fill="#FFFFFF" points="9.899,0 9.899,43.101 0,53 9.899,62.899 9.899,106 321.899,106 321.899,0 "/>
<g>
	<path d="M43.386,19.669v18.869h-2.34V19.669h-6.18v-2.13h14.699v2.13H43.386z"/>
	<path d="M65.436,31.429h-10.5c0.21,3.359,1.801,5.489,4.38,5.489c1.83,0,2.91-0.54,4.351-1.5l1.05,1.62
		c-1.891,1.2-3.271,1.83-5.64,1.83c-2.88,0-6.39-2.1-6.39-8.279c0-5.01,2.76-8.13,6.51-8.13c4.109,0,6.329,3.239,6.329,7.739
		C65.525,30.738,65.495,31.068,65.436,31.429z M59.166,24.408c-2.34,0-3.96,1.681-4.23,5.19h8.49
		C63.246,26.538,61.926,24.408,59.166,24.408z"/>
	<path d="M77.766,25.129c-0.63-0.36-1.319-0.601-2.37-0.601c-2.189,0-3.419,1.771-3.419,4.771v9.239h-2.25V22.789h2.25v1.949
		c0.72-1.26,2.22-2.279,3.899-2.279c1.17,0,1.92,0.149,2.46,0.39L77.766,25.129z"/>
	<path d="M100.235,38.538v-9.21c0-3.6-1.109-4.92-3.39-4.92c-2.13,0-3.51,1.44-3.51,4.92v9.21h-2.25v-9.21c0-3.6-1.2-4.92-3.39-4.92
		c-2.16,0-3.51,1.44-3.51,4.92v9.21h-2.25V22.789h2.25v1.92c0.81-1.351,2.13-2.25,3.989-2.25c2.22,0,3.57,1.2,4.32,2.699
		c0.93-1.499,2.22-2.699,4.77-2.699c3.21,0,5.22,1.89,5.22,6.479v9.6H100.235z"/>
	<path d="M108.695,19.969c-0.93,0-1.649-0.72-1.649-1.59c0-0.9,0.72-1.62,1.649-1.62c0.84,0,1.561,0.72,1.561,1.62
		C110.256,19.249,109.535,19.969,108.695,19.969z M107.525,38.538V22.789h2.25v15.749H107.525z"/>
	<path d="M124.775,38.538v-9.21c0-3.39-1.2-4.92-3.72-4.92c-2.189,0-3.899,1.471-3.899,4.92v9.21h-2.25V22.789h2.25v1.92
		c0.899-1.32,2.369-2.25,4.35-2.25c3.33,0,5.52,1.949,5.52,6.479v9.6H124.775z"/>
	<path d="M140.944,38.538v-1.92c-1.11,1.2-2.67,2.25-4.92,2.25c-2.46,0-5.04-1.23-5.04-5.04c0-3.54,2.91-5.04,6.03-5.04
		c1.59,0,3,0.391,3.93,0.9v-1.86c0-2.34-1.11-3.479-3.42-3.479c-1.649,0-3,0.45-4.29,1.2l-0.84-1.83c1.38-0.75,3.24-1.26,5.28-1.26
		c3.39,0,5.52,1.439,5.52,5.1v10.979H140.944z M140.944,31.488c-1.02-0.57-2.13-0.899-4.05-0.899c-2.31,0-3.689,1.109-3.689,3.09
		c0,2.34,1.289,3.359,3.209,3.359c2.04,0,3.57-1.05,4.53-2.37V31.488z"/>
	<path d="M148.234,38.538V17.929l2.25-1.26v21.869H148.234z"/>
	<path d="M172.954,38.538v-1.92c-1.109,1.2-2.609,2.25-4.739,2.25c-3.15,0-5.64-2.4-5.64-7.95c0-5.579,2.64-8.459,5.939-8.459
		c1.979,0,3.33,0.84,4.439,2.1v-6.63l2.25-1.26v21.869H172.954z M172.954,26.778c-0.87-1.319-2.399-2.37-4.26-2.37
		c-2.609,0-3.899,2.25-3.899,6.48c0,3.96,1.5,6.029,3.989,6.029c1.681,0,3.061-0.899,4.17-2.279V26.778z"/>
	<path d="M192.094,31.429h-10.5c0.21,3.359,1.801,5.489,4.38,5.489c1.83,0,2.91-0.54,4.351-1.5l1.05,1.62
		c-1.891,1.2-3.271,1.83-5.64,1.83c-2.88,0-6.39-2.1-6.39-8.279c0-5.01,2.76-8.13,6.51-8.13c4.109,0,6.329,3.239,6.329,7.739
		C192.184,30.738,192.153,31.068,192.094,31.429z M185.824,24.408c-2.34,0-3.96,1.681-4.23,5.19h8.49
		C189.904,26.538,188.584,24.408,185.824,24.408z"/>
	<path d="M209.133,18.799c-0.93,0-1.62,0.33-1.62,1.65v2.34h3.09v1.89h-3.09v13.859h-2.249V24.679h-2.16v-1.89h2.16v-2.16
		c0-2.82,1.529-3.87,3.72-3.87c0.899,0,1.439,0.09,1.979,0.271v2.13C210.453,18.919,209.853,18.799,209.133,18.799z"/>
	<path d="M215.013,38.538V17.929l2.25-1.26v21.869H215.013z"/>
	<path d="M232.173,38.538v-1.92c-0.9,1.32-2.37,2.25-4.35,2.25c-3.33,0-5.52-1.95-5.52-6.479v-9.6h2.249v9.209
		c0,3.391,1.2,4.92,3.721,4.92c2.189,0,3.899-1.47,3.899-4.92v-9.209h2.25v15.749H232.173z"/>
	<path d="M240.723,19.969c-0.93,0-1.649-0.72-1.649-1.59c0-0.9,0.72-1.62,1.649-1.62c0.84,0,1.561,0.72,1.561,1.62
		C242.283,19.249,241.562,19.969,240.723,19.969z M239.553,38.538V22.789h2.25v15.749H239.553z"/>
	<path d="M256.472,38.538v-1.92c-1.109,1.2-2.609,2.25-4.739,2.25c-3.15,0-5.64-2.4-5.64-7.95c0-5.579,2.64-8.459,5.939-8.459
		c1.979,0,3.33,0.84,4.439,2.1v-6.63l2.25-1.26v21.869H256.472z M256.472,26.778c-0.87-1.319-2.399-2.37-4.26-2.37
		c-2.609,0-3.899,2.25-3.899,6.48c0,3.96,1.5,6.029,3.989,6.029c1.681,0,3.061-0.899,4.17-2.279V26.778z"/>
	<path d="M269.642,38.868c-3.84,0-6.779-2.85-6.779-8.189s3.06-8.22,6.899-8.22s6.779,2.76,6.779,8.1S273.481,38.868,269.642,38.868
		z M269.701,24.408c-2.729,0-4.56,2.07-4.56,6.21s1.83,6.3,4.56,6.3c2.73,0,4.59-2.16,4.59-6.3S272.432,24.408,269.701,24.408z"/>
	<path d="M285.032,38.868c-2.16,0-4.05-0.811-5.55-2.01l1.32-1.65c1.26,1.11,2.729,1.74,4.289,1.74c2.16,0,3.181-0.9,3.181-2.43
		c0-1.29-0.931-2.01-3.721-3.21c-3.149-1.351-4.47-2.311-4.47-4.83c0-2.399,2.07-4.02,4.92-4.02c2.16,0,3.84,0.689,5.04,1.68
		l-1.26,1.65c-1.23-0.96-2.25-1.41-3.93-1.41c-1.65,0-2.61,0.81-2.61,1.949c0,1.32,0.81,1.86,3.479,3.061
		c2.971,1.35,4.71,2.22,4.71,5.04C290.432,37.519,287.762,38.868,285.032,38.868z"/>
	<path d="M37.496,87.738v-28.7h5.74v28.7H37.496z"/>
	<path d="M51.026,87.738v-28.7h19.926v5.617H56.766v4.961h8.241v5.576h-8.241v6.929h14.802v5.617H51.026z"/>
	<path d="M95.799,87.738L85.262,72.076c-0.697-1.066-1.641-2.501-2.01-3.239c0,1.066,0.082,4.674,0.082,6.273v12.628h-5.657v-28.7
		h5.494l10.168,15.17c0.696,1.066,1.64,2.501,2.009,3.239c0-1.066-0.082-4.674-0.082-6.273V59.038h5.658v28.7H95.799z"/>
	<path d="M119.25,88.189c-7.831,0-12.464-6.068-12.464-14.802c0-8.732,4.633-14.801,12.464-14.801s12.465,6.068,12.465,14.801
		C131.715,82.121,127.081,88.189,119.25,88.189z M119.25,64.286c-4.633,0-6.56,3.977-6.56,9.102c0,5.126,1.927,9.103,6.56,9.103
		c4.634,0,6.561-3.977,6.561-9.103C125.811,68.263,123.884,64.286,119.25,64.286z"/>
	<path d="M151.312,87.738h-5.576l-10.209-28.7h6.355l5.412,16.605c0.533,1.599,1.106,3.689,1.353,4.715
		c0.246-1.066,0.779-3.034,1.312-4.715l5.289-16.605h6.272L151.312,87.738z"/>
	<path d="M185.956,87.738l-2.255-6.396h-10.496l-2.255,6.396h-6.15l10.988-28.7h5.576l10.906,28.7H185.956z M179.889,70.683
		c-0.574-1.682-1.148-3.403-1.436-4.47c-0.287,1.066-0.86,2.788-1.435,4.47l-1.846,5.207h6.561L179.889,70.683z"/>
</g>
</svg>
